<?xml version="1.0" encoding="utf-8"?>
<!-- Generator: Adobe Illustrator 25.1.0, SVG Export Plug-In . SVG Version: 6.00 Build 0)  -->
<svg version="1.1" id="Capa_1" xmlns="http://www.w3.org/2000/svg" xmlns:xlink="http://www.w3.org/1999/xlink" x="0px" y="0px"
	 viewBox="0 0 512 512" style="enable-background:new 0 0 512 512;" xml:space="preserve">
<style type="text/css">
	.st0{fill:url(#SVGID_1_);}
	.st1{opacity:0.1;fill:#1E1E1E;enable-background:new    ;}
	.st2{fill:#4BC9C7;}
	.st3{fill:#FFFFFF;}
	.st4{fill:#1E1E1E;}
</style>
<g>
	
		<linearGradient id="SVGID_1_" gradientUnits="userSpaceOnUse" x1="68.4999" y1="559.8761" x2="411.998" y2="1072.67" gradientTransform="matrix(1 0 0 1 0 -566)">
		<stop  offset="0" style="stop-color:#D2DEFF;stop-opacity:0"/>
		<stop  offset="1" style="stop-color:#4BC9C7"/>
	</linearGradient>
	<path class="st0" d="M310.1,89.4C288.6,36.7,236.8-0.4,176.3,0C99.2,0.5,35.8,62.7,33.9,139.8c-0.9,38,13,72.8,36.3,99
		c18.6,20.9,28,48.3,27,76.3c-0.1,3.7-0.1,7.5-0.1,11.2c2.5,101.4,89.1,185.8,190.5,185.7c105.1-0.1,190.3-85.3,190.3-190.5
		c0-77.1-45.8-143.4-111.6-173.4C340.8,136.4,320.7,115.5,310.1,89.4z"/>
	<path class="st1" d="M456,88.3v254.3c0,8.3-6.7,15-15,15H71c-8.3,0-15-6.7-15-15V88.3c0-8.3,6.7-15,15-15h370
		C449.3,73.3,456,80,456,88.3L456,88.3z"/>
	<path class="st2" d="M319.3,66.8c-1.3,0-2.6-0.5-3.5-1.5l-11-11c-2-2-2-5.1,0-7.1l11-11c0.9-0.9,2.2-1.5,3.5-1.5s2.6,0.5,3.5,1.5
		l11,11c0.9,0.9,1.5,2.2,1.5,3.5s-0.5,2.6-1.5,3.5l-11,11C321.9,66.3,320.7,66.8,319.3,66.8z M315.4,50.8l3.9,3.9l3.9-3.9l-3.9-3.9
		L315.4,50.8z"/>
	<path class="st2" d="M382,436.5c-1.3,0-2.6-0.5-3.5-1.5l-11-11c-2-2-2-5.1,0-7.1l11-11c2-2,5.1-2,7.1,0l11,11
		c0.9,0.9,1.5,2.2,1.5,3.5s-0.5,2.6-1.5,3.5l-11,11C384.6,436,383.4,436.5,382,436.5L382,436.5z M378.1,420.5l3.9,3.9l3.9-3.9
		l-3.9-3.9L378.1,420.5z"/>
	<path class="st2" d="M106.7,477.2c-2.8,0-5-2.2-5-5c0-3.3-2.7-6-6-6c-2.8,0-5-2.2-5-5s2.2-5,5-5c3.3,0,6-2.7,6-6c0-2.8,2.2-5,5-5
		s5,2.2,5,5c0,3.3,2.7,6,6,6c2.8,0,5,2.2,5,5s-2.2,5-5,5c-3.3,0-6,2.7-6,6C111.7,475,109.4,477.2,106.7,477.2z"/>
	<path class="st2" d="M150,430.8c-2.8,0-5-2.2-5-5c0-3.3-2.7-6-6-6c-2.8,0-5-2.2-5-5s2.2-5,5-5c3.3,0,6-2.7,6-6c0-2.8,2.2-5,5-5
		s5,2.2,5,5c0,3.3,2.7,6,6,6c2.8,0,5,2.2,5,5s-2.2,5-5,5c-3.3,0-6,2.7-6,6C155,428.6,152.8,430.8,150,430.8z"/>
	<path class="st3" d="M312.7,451.3H199.3l14.8-58.6l7.9-31.3h68l7.9,31.3L312.7,451.3z"/>
	<path class="st4" d="M312.7,456.3H199.3c-1.5,0-3-0.7-3.9-1.9s-1.3-2.8-0.9-4.3l17.9-70.7c0.7-2.7,3.4-4.3,6.1-3.6
		c2.7,0.7,4.3,3.4,3.6,6.1l-16.3,64.5h100.6L290,381.3c-0.7-2.7,0.9-5.4,3.6-6.1s5.4,0.9,6.1,3.6l18,71.3c0.4,1.5,0,3.1-0.9,4.3
		S314.3,456.3,312.7,456.3L312.7,456.3z"/>
	<path class="st3" d="M456,109.3v254.3c0,8.3-6.7,15-15,15H71c-8.3,0-15-6.7-15-15V109.3c0-8.3,6.7-15,15-15h370
		C449.3,94.3,456,101,456,109.3L456,109.3z"/>
	<path class="st3" d="M441,94.3h-86v284.2h86c8.3,0,15-6.7,15-15V109.3C456,101,449.3,94.3,441,94.3L441,94.3z"/>
	<path class="st3" d="M437.5,189.5l-7.2-25.2c-0.6-2.1-2.6-3.6-4.8-3.6h-24.4c-2.2,0-4.2,1.5-4.8,3.6l-7.2,25.2
		c-10.1,2.5-19.6,6.4-28.2,11.7L338,188.4c-2-1.1-4.4-0.8-6,0.8l-17.2,17.3c-1.6,1.6-1.9,4-0.8,6l12.8,22.9
		c-5.2,8.6-9.2,18.1-11.7,28.2l-25.2,7.2c-2.1,0.6-3.6,2.6-3.6,4.8V300c0,2.2,1.5,4.2,3.6,4.8L315,312c1.7,6.9,4.1,13.5,7.1,19.8
		H395c-17.2-7.2-29.3-24.2-29.3-44c0-26.3,21.3-47.7,47.7-47.7c18.7,0,34.9,10.8,42.7,26.4V196C450.1,193.2,443.9,191,437.5,189.5
		L437.5,189.5z"/>
	<g>
		<path class="st4" d="M420,336.8H319l-1.4-2.8c-2.8-5.8-5.1-11.8-6.8-18l-22.5-6.4c-4.3-1.2-7.3-5.2-7.3-9.6v-24.4
			c0-4.5,3-8.4,7.3-9.6l22.5-6.4c2.3-8.5,5.7-16.6,10-24.2L309.4,215c-2.2-3.9-1.5-8.8,1.7-11.9l17.2-17.3c3.1-3.1,8.1-3.8,11.9-1.7
			l20.4,11.4c7.6-4.3,15.8-7.7,24.3-10l6.4-22.5c1.2-4.3,5.2-7.3,9.6-7.3h24.4c4.4,0,8.4,3,9.6,7.3l6.4,22.5
			c5.7,1.6,11.3,3.6,16.6,6.1l2.9,1.3v95l-9.5-19c-7.3-14.6-21.9-23.7-38.2-23.7c-23.5,0-42.7,19.1-42.7,42.7
			c0,17.3,10.3,32.7,26.3,39.4L420,336.8z M325.3,326.8h52.6c-10.8-9.8-17.3-23.8-17.3-39c0-29,23.6-52.7,52.7-52.7
			c14.5,0,28,5.8,37.7,15.8v-51.7c-4.7-2-9.7-3.7-14.7-4.9l-2.8-0.7l-8-28h-24.4l-8,28.1l-2.8,0.7c-9.5,2.3-18.5,6.1-26.8,11.1
			L361,207l-25.5-14.2L318.3,210l14.2,25.5L331,238c-5.1,8.3-8.8,17.3-11.1,26.8l-0.7,2.8l-28,8V300l28,8l0.7,2.8
			C321.2,316.3,323,321.6,325.3,326.8L325.3,326.8z"/>
	</g>
	<path class="st3" d="M456,142.5v-33.2c0-8.3-6.7-15-15-15H71c-8.3,0-15,6.7-15,15v33.2H456z"/>
	<path class="st4" d="M456,147.5H56c-2.8,0-5-2.2-5-5s2.2-5,5-5h400c2.8,0,5,2.2,5,5S458.8,147.5,456,147.5z"/>
	<path class="st3" d="M56,328.2v35.4c0,8.3,6.7,15,15,15h370c8.3,0,15-6.7,15-15v-35.4H56z"/>
	<g>
		<g>
			<path class="st4" d="M455.4,333.2H88c-2.8,0-5-2.2-5-5s2.2-5,5-5h367.5c2.8,0,5,2.2,5,5C460.4,330.9,458.2,333.2,455.4,333.2z"/>
			<path class="st4" d="M331.9,456.3H180.1c-2.8,0-5-2.2-5-5s2.2-5,5-5H332c2.8,0,5,2.2,5,5S334.7,456.3,331.9,456.3z"/>
			<path class="st4" d="M94.1,123.5c-2.8,0-5-2.2-5-5v-0.1c0-2.8,2.2-5,5-5s5,2.2,5,5v0.1C99.1,121.2,96.8,123.5,94.1,123.5z"/>
			<path class="st4" d="M113.4,123.5c-2.8,0-5-2.2-5-5v-0.1c0-2.8,2.2-5,5-5s5,2.2,5,5v0.1C118.4,121.2,116.2,123.5,113.4,123.5z"/>
			<path class="st4" d="M132.7,123.5c-2.8,0-5-2.2-5-5v-0.1c0-2.8,2.2-5,5-5s5,2.2,5,5v0.1C137.7,121.2,135.5,123.5,132.7,123.5z"/>
			<path class="st4" d="M441,383.6H71c-11,0-20-9-20-20V109.3c0-11,9-20,20-20h370c11,0,20,9,20,20v33.2c0,2.8-2.2,5-5,5s-5-2.2-5-5
				v-33.2c0-5.5-4.5-10-10-10H71c-5.5,0-10,4.5-10,10v254.2c0,5.5,4.5,10,10,10h370c5.5,0,10-4.5,10-10V170c0-2.8,2.2-5,5-5
				s5,2.2,5,5v193.5C461,374.6,452,383.6,441,383.6z"/>
		</g>
		<path class="st4" d="M259.7,274.3H93c-2.8,0-5-2.2-5-5s2.2-5,5-5h166.7c2.8,0,5,2.2,5,5S262.5,274.3,259.7,274.3z"/>
		<path class="st4" d="M199.7,232.3H93c-2.8,0-5-2.2-5-5s2.2-5,5-5h106.7c2.8,0,5,2.2,5,5S202.5,232.3,199.7,232.3z"/>
		<path class="st4" d="M259.7,294.1H93c-2.8,0-5-2.2-5-5s2.2-5,5-5h166.7c2.8,0,5,2.2,5,5S262.5,294.1,259.7,294.1z"/>
		<path class="st4" d="M106.1,202.5c-1.3,0-2.6-0.5-3.5-1.5l-12-12c-2-2-2-5.1,0-7.1l12-12c2-2,5.1-2,7.1,0s2,5.1,0,7.1l-8.5,8.5
			l8.5,8.5c2,2,2,5.1,0,7.1C108.7,202,107.4,202.5,106.1,202.5L106.1,202.5z"/>
		<path class="st4" d="M152.9,202.5c-1.3,0-2.6-0.5-3.5-1.5c-2-2-2-5.1,0-7.1l8.5-8.5l-8.5-8.5c-2-2-2-5.1,0-7.1s5.1-2,7.1,0l12,12
			c2,2,2,5.1,0,7.1l-12,12C155.4,202,154.2,202.5,152.9,202.5z"/>
		<path class="st4" d="M122.7,202.5c-0.8,0-1.7-0.2-2.5-0.6c-2.4-1.4-3.3-4.4-1.9-6.8l13.6-24.1c1.4-2.4,4.4-3.3,6.8-1.9
			c2.4,1.4,3.3,4.4,1.9,6.8L127,200C126.1,201.5,124.4,202.5,122.7,202.5L122.7,202.5z"/>
	</g>
	<path class="st2" d="M379,294.1h-16c-1.7,0-3-1.3-3-3v-60.9c0-1.7,1.3-3,3-3h16c1.7,0,3,1.3,3,3v60.9
		C382,292.8,380.7,294.1,379,294.1z"/>
	<path class="st2" d="M346.3,294.1h-16c-1.7,0-3-1.3-3-3v-37.7c0-1.7,1.3-3,3-3h16c1.7,0,3,1.3,3,3v37.7
		C349.3,292.8,348,294.1,346.3,294.1z"/>
	<path class="st2" d="M411.8,294.1h-16c-1.7,0-3-1.3-3-3v-78.3c0-1.7,1.3-3,3-3h16c1.7,0,3,1.3,3,3v78.3
		C414.8,292.8,413.4,294.1,411.8,294.1z"/>
	<circle class="st4" cx="308.7" cy="174" r="5.6"/>
	<circle class="st4" cx="291.8" cy="174" r="5.6"/>
	<circle class="st4" cx="274.9" cy="174" r="5.6"/>
</g>
</svg>
