<?xml version="1.0" encoding="utf-8"?>
<!-- Generator: Adobe Illustrator 16.0.0, SVG Export Plug-In . SVG Version: 6.00 Build 0)  -->
<!DOCTYPE svg PUBLIC "-//W3C//DTD SVG 1.1//EN" "http://www.w3.org/Graphics/SVG/1.1/DTD/svg11.dtd">
<svg version="1.1" id="レイヤー_1" xmlns="http://www.w3.org/2000/svg" xmlns:xlink="http://www.w3.org/1999/xlink" x="0px"
	 y="0px" width="269.52px" height="269.52px" viewBox="0 0 269.52 269.52" enable-background="new 0 0 269.52 269.52"
	 xml:space="preserve">
<g>
	<rect x="0" y="0" fill="#6E83F9" width="269.52" height="269.52"/>
	<polygon opacity="0.1" fill="#040000" enable-background="new    " points="269.52,113.15 269.52,273.52 133.14,273.52 
		50.35,190.72 42.64,183.01 42.64,134.12 50.86,125.9 53.77,122.99 62.96,113.8 83.71,93.05 93.33,83.43 95.38,81.38 103.25,73.51 
		113.82,62.94 219.31,62.94 	"/>
	<g>
		<g>
			<polygon fill="#C3C2C6" points="164.85,209.12 104.67,209.12 106.79,163.96 162.73,163.96 			"/>
			<polygon fill="#B3B2B6" points="164.07,194.38 105.45,194.38 106.79,165.84 162.73,165.84 			"/>
			<path fill="#C9C8CD" d="M94.69,205.36h80.144c5.06,0,9.196,4.144,9.196,9.2l0,0H85.49l0,0C85.49,209.5,89.63,205.36,94.69,205.36
				z"/>
		</g>
		<path fill="#C9C8CD" d="M226.88,130v56.63c0,2.27-1.83,4.1-4.07,4.1H46.71c-2.24,0-4.07-1.83-4.07-4.1V130
			c0-2.26,1.83-4.104,4.07-4.104h176.1C225.04,125.9,226.88,127.73,226.88,130z"/>
		<path fill="#2D2D33" d="M226.88,68.281V171.48H42.64V68.281h0.13c0.62-3.054,3.34-5.344,6.55-5.344h170.87
			c3.21,0,5.934,2.29,6.55,5.344H226.88z"/>
		<rect x="53.76" y="73.51" fill="#F4F4F5" width="161.99" height="87.4"/>
		<g>
			<rect x="73.73" y="81.38" fill="#B3B2B6" width="25.09" height="2.04"/>
			<path fill="#B3B2B6" d="M68.84,80.25L68.84,80.25c1.188,1.188,1.188,3.12,0,4.31l0,0c-1.19,1.19-3.12,1.19-4.313,0l0,0
				c-1.188-1.188-1.188-3.12,0-4.31l0,0C65.72,79.06,67.65,79.06,68.84,80.25z"/>
			
				<rect x="196.319" y="80.95" transform="matrix(-0.7066 -0.7076 0.7076 -0.7066 279.1935 280.5422)" fill="#B3B2B6" width="2.879" height="2.88"/>
			
				<rect x="203.265" y="80.97" transform="matrix(-0.7069 -0.7073 0.7073 -0.7069 291.132 285.4506)" fill="#B3B2B6" width="2.88" height="2.88"/>
			
				<rect x="190.108" y="80.965" transform="matrix(-0.7069 -0.7073 0.7073 -0.7069 268.6754 276.1378)" fill="#B3B2B6" width="2.879" height="2.88"/>
		</g>
	</g>
</g>
<g enable-background="new    ">
	<path fill="#2D2D33" d="M87.922,120.66c1.113,0.668,1.67,1.742,1.67,3.229c0,0.271-0.049,0.711-0.148,1.317l-0.979,5.882
		c-0.111,0.631-0.167,1.058-0.167,1.28c0,0.48,0.195,0.804,0.584,0.965c0.39,0.16,1.108,0.241,2.161,0.241
		c0.186,0,0.451-0.009,0.798-0.021l-0.464,2.672l-1.264,0.021c-1.111,0.037-1.831,0.056-2.15,0.056c-1.905,0-3.232-0.304-3.98-0.909
		c-0.749-0.604-1.123-1.577-1.123-2.913c0-0.297,0.057-0.749,0.166-1.354l1.067-6.403c0.073-0.47,0.11-0.822,0.11-1.058
		c0-1.161-0.561-1.842-1.679-2.039l0.392-2.301c1.417-0.211,2.263-1.127,2.536-2.747l1.062-6.382c0.311-1.831,0.96-3.151,1.95-3.963
		c0.989-0.811,2.548-1.216,4.676-1.216c0.371,0,1.521,0.025,3.451,0.074l-0.427,2.579l-0.78-0.021c-1.437,0-2.32,0.151-2.654,0.454
		c-0.334,0.306-0.588,0.98-0.761,2.032l-1.003,5.977c-0.198,1.175-0.507,2.09-0.928,2.744
		C89.615,119.516,88.911,120.116,87.922,120.66z"/>
	<path fill="#2D2D33" d="M113.11,123.549l6.791,0.872c-0.792,2.771-2.147,5.041-4.071,6.81c-1.926,1.771-4.353,2.653-7.283,2.653
		c-3.179,0-5.706-1.079-7.58-3.237c-1.874-2.157-2.813-4.933-2.813-8.32c0-3.908,1.156-7.369,3.472-10.383
		c2.313-3.013,5.492-4.519,9.537-4.519c2.942,0,5.326,0.903,7.151,2.709c1.824,1.807,2.755,4.193,2.792,7.162l-7.144,0.52
		c-0.025-1.559-0.268-2.721-0.726-3.486c-0.458-0.769-1.229-1.15-2.317-1.15c-1.88,0-3.164,1.392-3.852,4.175
		c-0.686,2.783-1.028,4.975-1.028,6.568c0,2.598,1.014,3.896,3.043,3.896c1.002,0,1.812-0.334,2.431-1.002
		S112.664,125.059,113.11,123.549z"/>
	<path fill="#2D2D33" d="M146.978,113.901l-6.512,1.651c-0.188-0.754-0.65-1.348-1.395-1.781c-0.74-0.433-1.559-0.647-2.447-0.647
		c-1.669,0-2.504,0.557-2.504,1.67c0,0.357,0.115,0.668,0.353,0.928c0.235,0.26,0.897,0.582,1.984,0.968l4.022,1.437
		c1.051,0.373,2.028,0.921,2.935,1.645c0.901,0.725,1.554,1.516,1.947,2.373c0.396,0.859,0.598,1.776,0.598,2.753
		c0,2.561-1.006,4.673-3.018,6.341c-2.01,1.67-4.689,2.505-8.043,2.505c-2.87,0-5.372-0.581-7.505-1.744
		c-2.134-1.162-3.622-2.938-4.462-5.325l7.313-1.429c0.631,1.794,2.188,2.688,4.676,2.688c1.04,0,1.791-0.188,2.254-0.564
		c0.464-0.378,0.696-0.809,0.696-1.289c0-0.311-0.092-0.581-0.271-0.816c-0.18-0.234-0.371-0.405-0.575-0.51
		c-0.204-0.105-1.166-0.477-2.884-1.108c-2.325-0.855-3.954-1.536-4.889-2.036c-0.937-0.501-1.714-1.246-2.339-2.232
		c-0.625-0.989-0.938-2.151-0.938-3.486c0-2.312,0.852-4.269,2.551-5.869c1.701-1.601,4.303-2.399,7.805-2.399
		c2.671,0,4.96,0.563,6.862,1.688C145.098,110.425,146.36,111.959,146.978,113.901z"/>
	<path fill="#2D2D33" d="M173.091,113.901l-6.512,1.651c-0.188-0.754-0.65-1.348-1.395-1.781c-0.742-0.433-1.559-0.647-2.449-0.647
		c-1.67,0-2.504,0.557-2.504,1.67c0,0.357,0.117,0.668,0.354,0.928c0.233,0.26,0.896,0.582,1.982,0.968l4.024,1.437
		c1.051,0.373,2.028,0.921,2.933,1.645c0.903,0.725,1.556,1.516,1.949,2.373c0.396,0.859,0.596,1.776,0.596,2.753
		c0,2.561-1.006,4.673-3.016,6.341c-2.01,1.67-4.691,2.505-8.043,2.505c-2.871,0-5.372-0.581-7.506-1.744
		c-2.134-1.162-3.621-2.938-4.463-5.325l7.311-1.429c0.631,1.794,2.189,2.688,4.676,2.688c1.039,0,1.791-0.188,2.257-0.564
		c0.464-0.378,0.694-0.809,0.694-1.289c0-0.311-0.09-0.581-0.27-0.816c-0.182-0.234-0.371-0.405-0.575-0.51
		c-0.204-0.105-1.165-0.477-2.884-1.108c-2.324-0.855-3.954-1.536-4.891-2.036c-0.935-0.501-1.715-1.246-2.34-2.232
		c-0.625-0.989-0.938-2.151-0.938-3.486c0-2.312,0.851-4.269,2.552-5.869c1.7-1.601,4.302-2.399,7.802-2.399
		c2.672,0,4.961,0.563,6.865,1.688C171.211,110.425,172.473,111.959,173.091,113.901z"/>
	<path fill="#2D2D33" d="M181.597,120.66c-1.11-0.682-1.665-1.764-1.665-3.246c0-0.262,0.05-0.692,0.147-1.299l0.979-5.885
		c0.11-0.631,0.167-1.058,0.167-1.278c0-0.494-0.19-0.822-0.576-0.983c-0.383-0.16-1.105-0.241-2.17-0.241
		c-0.174,0-0.434,0.007-0.777,0.021l0.443-2.653c0.074,0,0.494-0.012,1.264-0.037c1.126-0.022,1.86-0.037,2.209-0.037
		c1.844,0,3.146,0.297,3.905,0.893c0.763,0.594,1.144,1.569,1.144,2.933c0,0.284-0.058,0.735-0.166,1.354l-1.057,6.399
		c-0.086,0.471-0.129,0.822-0.129,1.06c0,1.147,0.563,1.822,1.682,2.021l-0.391,2.319c-1.42,0.196-2.266,1.105-2.539,2.729
		l-1.061,6.4c-0.313,1.793-0.953,3.104-1.931,3.934c-0.979,0.828-2.556,1.243-4.731,1.243c-0.26,0-1.397-0.025-3.414-0.074
		l0.428-2.579l0.816,0.021c1.336,0,2.188-0.145,2.561-0.427c0.371-0.285,0.645-0.973,0.816-2.062l1.006-5.974
		c0.197-1.163,0.501-2.069,0.908-2.72C179.874,121.839,180.583,121.23,181.597,120.66z"/>
</g>
</svg>
