<?xml version="1.0" encoding="utf-8"?>
<!-- Generator: Adobe Illustrator 25.1.0, SVG Export Plug-In . SVG Version: 6.00 Build 0)  -->
<svg version="1.1" id="Capa_1" xmlns="http://www.w3.org/2000/svg" xmlns:xlink="http://www.w3.org/1999/xlink" x="0px" y="0px"
	 viewBox="0 0 512 512" style="enable-background:new 0 0 512 512;" xml:space="preserve">
<style type="text/css">
	.st0{fill:url(#SVGID_1_);}
	.st1{opacity:0.1;fill:#1E1E1E;enable-background:new    ;}
	.st2{fill:#FFFFFF;}
	.st3{fill:#4BC9C7;}
	.st4{fill:#1E1E1E;}
</style>
<g>
	
		<linearGradient id="SVGID_1_" gradientUnits="userSpaceOnUse" x1="-7.105" y1="367.0281" x2="535.131" y2="170.7441" gradientTransform="matrix(1 0 0 -1 0 514)">
		<stop  offset="0" style="stop-color:#D2DEFF;stop-opacity:0"/>
		<stop  offset="1" style="stop-color:#4BC9C7"/>
	</linearGradient>
	<path class="st0" d="M505.6,289.4c-11.8-34.6-38.1-60.2-69.9-72.2c-16.4-6.2-27.3-21.9-27.6-39.4c0-0.4,0-0.8,0-1.2
		C406.7,112,352.7,60.3,288.1,61.4c-38.1,0.7-71.8,19.4-92.9,47.9c-18.2,24.6-46.5,40-77.1,39.9c-0.9,0-1.8,0-2.7,0
		C53.5,150.7,0.8,203.8,0,265.7c-0.9,65.9,52.3,119.7,118,119.7c50.9,0,94.3-32.3,110.9-77.5c4.3-11.8,17.2-18.2,29.3-14.8
		c0.2,0,0.3,0.1,0.5,0.1c11.1,3.1,18.5,13.6,17.5,25.1c-1.2,15.4,0.6,31.3,5.8,46.8c20.5,61.1,87.2,94.7,148.5,74.7
		C493.2,419.4,526.9,351.6,505.6,289.4L505.6,289.4z"/>
	<path class="st1" d="M382.7,291.8l-25.9-7.4c-2.5-10.3-6.6-20.1-12-28.9l13.1-23.5c1.1-2,0.8-4.5-0.9-6.1l-17.7-17.7
		c-1.6-1.6-4.1-2-6.1-0.9l-23.5,13.1c-7.1-4.3-14.7-7.7-22.7-10.2v-48.9c0-2.9-0.6-5.8-1.9-8.4l-20.1-43.2c-3.6-7.7-14.6-7.7-18.1,0
		l-20.1,43.2c-1.2,2.6-1.9,5.5-1.9,8.4v48.9c-8,2.5-15.6,6-22.7,10.2l-23.5-13.1c-2-1.1-4.5-0.8-6.1,0.9L155,225.9
		c-1.6,1.6-2,4.1-0.9,6.1l13.1,23.5c-5.4,8.9-9.4,18.6-12,28.9l-25.9,7.4c-2.2,0.6-3.7,2.6-3.7,4.9v25c0,2.3,1.5,4.3,3.7,4.9
		l25.9,7.4c2.5,10.3,6.6,20.1,12,28.9l-13.1,23.5c-1.1,2-0.8,4.5,0.9,6.1l17.7,17.7c1.6,1.6,4.1,2,6.1,0.9l23.5-13.1
		c8.9,5.4,18.6,9.4,28.9,12l7.4,25.9c0.6,2.2,2.6,3.7,4.9,3.7h25c2.3,0,4.3-1.5,4.9-3.7l7.4-25.9c10.3-2.5,20.1-6.6,28.9-12
		l23.5,13.1c2,1.1,4.5,0.8,6.1-0.9l17.7-17.7c1.6-1.6,2-4.1,0.9-6.1L344.8,363c5.4-8.9,9.4-18.6,12-28.9l25.9-7.4
		c2.2-0.6,3.7-2.6,3.7-4.9v-25C386.4,294.5,384.9,292.5,382.7,291.8L382.7,291.8z M202.4,309.3c0-18,8.9-34,22.6-43.7V353
		C211.3,343.3,202.4,327.3,202.4,309.3L202.4,309.3z M287,353v-87.4c13.7,9.7,22.6,25.7,22.6,43.7S300.7,343.3,287,353z"/>
	<g>
		<path class="st2" d="M444.6,292.1h-17.2c-3.4,0-6.2-2.8-6.2-6.2v-17.2c0-3.4,2.8-6.2,6.2-6.2h17.2c3.4,0,6.2,2.8,6.2,6.2V286
			C450.8,289.4,448,292.1,444.6,292.1z"/>
		<path class="st2" d="M84.6,292.1H67.4c-3.4,0-6.2-2.8-6.2-6.2v-17.2c0-3.4,2.8-6.2,6.2-6.2h17.2c3.4,0,6.2,2.8,6.2,6.2V286
			C90.8,289.4,88,292.1,84.6,292.1z"/>
		<path class="st2" d="M264.6,97.3h-17.2c-3.4,0-6.2-2.8-6.2-6.2V73.9c0-3.4,2.8-6.2,6.2-6.2h17.2c3.4,0,6.2,2.8,6.2,6.2v17.2
			C270.8,94.6,268,97.3,264.6,97.3z"/>
		
			<ellipse transform="matrix(0.9238 -0.3829 0.3829 0.9238 2.8063 178.9253)" class="st2" cx="450.9" cy="82.4" rx="15.2" ry="15.2"/>
		<circle class="st2" cx="61.2" cy="82.5" r="15.2"/>
	</g>
	<path class="st2" d="M382.7,312.8l-25.9-7.4c-2.5-10.3-6.6-20.1-12-28.9l13.1-23.5c1.1-2,0.8-4.5-0.9-6.1l-17.7-17.7
		c-1.6-1.6-4.1-2-6.1-0.9l-23.5,13.1c-8.9-5.4-18.6-9.4-28.9-12l-7.4-25.9c-0.6-2.2-2.6-3.7-4.9-3.7h-25c-2.3,0-4.3,1.5-4.9,3.7
		l-7.4,25.9c-10.3,2.5-20.1,6.6-28.9,12l-23.5-13.1c-2-1.1-4.5-0.8-6.1,0.9L155,246.9c-1.6,1.6-2,4.1-0.9,6.1l13.1,23.5
		c-5.4,8.9-9.4,18.6-12,28.9l-25.9,7.4c-2.2,0.6-3.7,2.6-3.7,4.9v25c0,2.3,1.5,4.3,3.7,4.9l25.9,7.4c2.5,10.3,6.6,20.1,12,28.9
		l-13.1,23.5c-1.1,2-0.8,4.5,0.9,6.1l17.7,17.7c1.6,1.6,4.1,2,6.1,0.9l23.5-13.1c8.9,5.4,18.6,9.4,28.9,12l7.4,25.9
		c0.6,2.2,2.6,3.7,4.9,3.7h25c2.3,0,4.3-1.5,4.9-3.7l7.4-25.9c10.3-2.5,20.1-6.6,28.9-12l23.5,13.1c2,1.1,4.5,0.8,6.1-0.9l17.7-17.7
		c1.6-1.6,2-4.1,0.9-6.1L344.8,384c5.4-8.9,9.4-18.6,12-28.9l25.9-7.4c2.2-0.6,3.7-2.6,3.7-4.9v-25
		C386.4,315.5,384.9,313.5,382.7,312.8z M256,383.9c-29.6,0-53.6-24-53.6-53.6s24-53.6,53.6-53.6s53.6,24,53.6,53.6
		S285.6,383.9,256,383.9z"/>
	<path class="st3" d="M287,182.3V374c-8.8,6.2-19.5,9.9-31,9.9c-11.6,0-22.3-3.7-31-9.9V182.3c0-2.9,0.6-5.8,1.9-8.4l20.1-43.2
		c3.6-7.7,14.6-7.7,18.1,0l20.1,43.2C286.4,176.5,287,179.4,287,182.3L287,182.3z"/>
	<path class="st2" d="M256,188.1v195.8c-11.6,0-22.3-3.7-31-9.9V188.1H256z"/>
	<path class="st2" d="M246.9,130.7l-20.1,43.2c-1.2,2.6-1.9,5.5-1.9,8.4v12.8c3.6,1.9,7.7,3,12,3c5,0,9.7-1.5,13.6-4
		c3.3-2.1,7.6-2,10.9,0.1c3.9,2.5,8.5,3.9,13.5,3.9c4.3,0,8.4-1.1,12-3v-12.8c0-2.9-0.6-5.8-1.9-8.4l-20.1-43.2
		C261.5,123,250.5,123,246.9,130.7L246.9,130.7z"/>
	<path class="st2" d="M246.9,130.7l-11,23.6c5.5,4.5,12.5,7.2,20.1,7.2c7.6,0,14.6-2.7,20.1-7.2l-11-23.6
		C261.5,123,250.5,123,246.9,130.7L246.9,130.7z"/>
	<path class="st4" d="M450.8,102.8c11.1,0,20.2-9.1,20.2-20.2c0-11.1-9.1-20.2-20.2-20.2c-9.4,0-17.3,6.5-19.6,15.2H275.8v-3.6
		c0-6.2-5-11.2-11.2-11.2h-17.2c-6.2,0-11.2,5-11.2,11.2v3.6H80.8c-2.2-8.7-10.1-15.2-19.6-15.2C50.1,62.3,41,71.4,41,82.5
		c0,11.1,9.1,20.2,20.2,20.2c9.4,0,17.3-6.5,19.6-15.2h115.1c-29,9.9-55.2,27-76.3,50.1c-30.2,33-47.3,75.4-48.5,120h-3.7
		c-6.2,0-11.2,5-11.2,11.2V286c0,6.2,5,11.2,11.2,11.2h17.2c6.2,0,11.2-5,11.2-11.2v-17.2c0-6.2-5-11.2-11.2-11.2h-3.5
		c1.2-42.1,17.4-82.1,45.9-113.2c28.7-31.3,67.4-51,109.3-55.7v2.5c0,6.2,5,11.2,11.2,11.2h17.2c6.2,0,11.2-5,11.2-11.2v-2.5
		c41.9,4.7,80.6,24.4,109.3,55.7c28.5,31.1,44.7,71.1,45.9,113.2h-3.5c-6.2,0-11.2,5-11.2,11.2V286c0,6.2,5,11.2,11.2,11.2h17.2
		c6.2,0,11.2-5,11.2-11.2v-17.2c0-6.2-5-11.2-11.2-11.2h-3.7c-1.2-44.6-18.3-87-48.5-120c-21.1-23-47.4-40.1-76.3-50.1h115.1
		C433.5,96.3,441.4,102.8,450.8,102.8L450.8,102.8z M85.8,268.7V286c0,0.6-0.5,1.2-1.2,1.2H67.4c-0.6,0-1.2-0.5-1.2-1.2v-17.2
		c0-0.6,0.5-1.2,1.2-1.2h17.2C85.2,267.6,85.8,268.1,85.8,268.7z M445.8,268.7V286c0,0.6-0.5,1.2-1.2,1.2h-17.2
		c-0.6,0-1.2-0.5-1.2-1.2v-17.2c0-0.6,0.5-1.2,1.2-1.2h17.2C445.3,267.6,445.8,268.1,445.8,268.7z M450.8,72.3
		c5.6,0,10.2,4.6,10.2,10.2s-4.6,10.2-10.2,10.2s-10.2-4.6-10.2-10.2S445.2,72.3,450.8,72.3z M61.2,92.8c-5.6,0-10.2-4.6-10.2-10.2
		s4.6-10.2,10.2-10.2s10.2,4.6,10.2,10.2S66.8,92.8,61.2,92.8z M265.8,91.2c0,0.6-0.5,1.2-1.2,1.2h-17.2c-0.6,0-1.2-0.5-1.2-1.2
		V73.9c0-0.6,0.5-1.2,1.2-1.2h17.2c0.6,0,1.2,0.5,1.2,1.2V91.2z"/>
	<path class="st4" d="M384,308l-23.1-6.6c-2.4-8.7-5.9-17.1-10.3-25l11.7-21c2.2-3.9,1.5-8.9-1.7-12.1l-17.7-17.7
		c-3.2-3.2-8.1-3.9-12.1-1.7l-21,11.7c-5.7-3.2-11.6-5.9-17.8-8.1v-45.3c0-3.6-0.8-7.3-2.3-10.6l-20.1-43.2
		c-2.5-5.4-7.7-8.7-13.6-8.7c-5.9,0-11.1,3.3-13.6,8.7l-20.1,43.2c-1.5,3.3-2.3,6.9-2.3,10.5v45.3c-6.1,2.2-12.1,4.9-17.8,8.1
		l-21-11.7c-3.9-2.2-8.9-1.5-12.1,1.7l-17.7,17.7c-3.2,3.2-3.9,8.1-1.7,12.1l11.7,21c-4.5,7.9-7.9,16.2-10.3,25L128,308
		c-4.3,1.2-7.4,5.2-7.4,9.7v25c0,4.5,3,8.5,7.4,9.7l23.1,6.6c2.4,8.7,5.9,17.1,10.3,25l-11.7,21c-2.2,3.9-1.5,8.9,1.7,12.1
		l17.7,17.7c3.2,3.2,8.1,3.9,12.1,1.7l21-11.7c7.9,4.5,16.2,7.9,25,10.3l6.6,23.1c1.2,4.3,5.2,7.4,9.7,7.4h25c4.5,0,8.5-3,9.7-7.4
		l6.6-23.1c8.7-2.4,17.1-5.9,25-10.3l21,11.7c3.9,2.2,8.9,1.5,12.1-1.7l17.7-17.7c3.2-3.2,3.9-8.1,1.7-12.1l-11.7-21
		c4.5-7.9,7.9-16.2,10.3-25l23.1-6.6c4.3-1.2,7.4-5.2,7.4-9.7v-25C391.4,313.3,388.4,309.3,384,308L384,308z M256,217
		c-2.8,0-5,2.2-5,5v156.6c-24.5-2.5-43.6-23.2-43.6-48.4c0-12.1,4.6-23.7,12.6-32.6v48.8c0,2.8,2.2,5,5,5s5-2.2,5-5V202.3
		c2.3,0.5,4.6,0.8,7,0.8c5.8,0,11.4-1.6,16.3-4.8c1.6-1,3.8-1,5.6,0.1c4.8,3.1,10.4,4.7,16.2,4.7c2.4,0,4.7-0.3,7-0.8v168.3
		c0,0.2,0,0.5,0.1,0.7c-6.2,4-13.4,6.6-21.1,7.4V222C261,219.2,258.8,217,256,217L256,217z M292,297.6c8.1,8.9,12.6,20.4,12.6,32.7
		c0,12.5-4.8,24-12.6,32.6V297.6z M251.5,132.8c1.2-2.7,3.8-2.9,4.5-2.9c0.7,0,3.3,0.2,4.5,2.9l9.2,19.8c-4.1,2.5-8.9,3.9-13.8,3.9
		c-4.9,0-9.6-1.3-13.8-3.9L251.5,132.8z M231.4,176l6.6-14.2c5.5,3.1,11.7,4.7,18,4.7c6.3,0,12.5-1.7,18-4.7l6.6,14.2
		c0.9,2,1.4,4.2,1.4,6.3v9.5c-2.2,0.8-4.6,1.2-7,1.2c-3.9,0-7.6-1.1-10.8-3.1c-5-3.2-11.4-3.2-16.3-0.1c-3.3,2.1-7,3.2-10.9,3.2
		c-2.4,0-4.8-0.4-7-1.2v-9.5C230,180.2,230.5,178,231.4,176z M381.4,342.8c0,0.1,0,0.1-0.1,0.1l-25.9,7.4c-1.7,0.5-3.1,1.9-3.5,3.6
		c-2.4,9.7-6.2,19-11.4,27.5c-0.9,1.5-1,3.5-0.1,5l13.1,23.5c0,0,0,0.1,0,0.2l-17.7,17.7c0,0-0.1,0-0.1,0l-23.5-13.1
		c-1.6-0.9-3.5-0.8-5,0.1c-8.5,5.2-17.8,9-27.5,11.4c-1.7,0.4-3.1,1.8-3.6,3.5l-7.4,25.9c0,0.1-0.1,0.1-0.1,0.1h-25
		c-0.1,0-0.1,0-0.1-0.1l-7.4-25.9c-0.5-1.7-1.9-3.1-3.6-3.5c-9.7-2.4-19-6.2-27.5-11.4c-1.5-0.9-3.5-1-5-0.1l-23.5,13.1
		c-0.1,0-0.1,0-0.2,0l-17.7-17.7c0,0,0-0.1,0-0.2l13.1-23.5c0.9-1.6,0.8-3.5-0.1-5c-5.2-8.5-9-17.8-11.4-27.5
		c-0.4-1.7-1.8-3.1-3.5-3.6l-25.9-7.4c-0.1,0-0.1-0.1-0.1-0.1v-25c0-0.1,0-0.1,0.1-0.1l25.9-7.4c1.7-0.5,3.1-1.9,3.5-3.6
		c2.4-9.7,6.2-19,11.4-27.5c0.9-1.5,1-3.5,0.1-5l-13.1-23.5c0-0.1,0-0.1,0-0.2l17.7-17.7c0,0,0.1,0,0.1,0l23.5,13.1
		c1.6,0.9,3.5,0.8,5-0.1c4.8-2.9,9.9-5.4,15.1-7.5v45.8c-14.2,11.1-22.6,28.2-22.6,46.2c0,32.3,26.3,58.6,58.6,58.6
		s58.6-26.3,58.6-58.6c0-18.2-8.2-35-22.6-46.2v-45.8c5.2,2.1,10.3,4.5,15.1,7.5c1.5,0.9,3.5,1,5,0.1l23.5-13.1c0,0,0.1,0,0.2,0
		l17.7,17.7c0,0,0,0.1,0,0.2l-13.1,23.5c-0.9,1.6-0.8,3.5,0.1,5c5.2,8.5,9,17.8,11.4,27.5c0.4,1.7,1.8,3.1,3.5,3.6l25.9,7.4
		c0.1,0,0.1,0.1,0.1,0.1L381.4,342.8z"/>
	<path class="st1" d="M450.8,76.8c8.4,0,15.2-6.8,15.2-15.2s-6.8-15.2-15.2-15.2c-6.6,0-12.3,4.3-14.4,10.2H270.8v-3.6
		c0-3.4-2.8-6.2-6.2-6.2h-17.2c-3.4,0-6.2,2.8-6.2,6.2v3.6H75.6c-2.1-5.9-7.7-10.2-14.3-10.2c-8.4,0-15.2,6.8-15.2,15.2
		s6.8,15.2,15.2,15.2c6.6,0,12.3-4.3,14.3-10.2h128.1C127.8,88.9,72.1,158.8,71,241.6h-3.6c-3.4,0-6.2,2.8-6.2,6.2V265
		c0,3.4,2.8,6.2,6.2,6.2h17.2c3.4,0,6.2-2.8,6.2-6.2v-17.2c0-3.4-2.8-6.2-6.2-6.2H81c1.3-90.4,71.4-164.5,160.2-171.9v0.5
		c0,3.4,2.8,6.2,6.2,6.2h17.2c3.4,0,6.2-2.8,6.2-6.2v-0.5c88.8,7.5,158.9,81.5,160.2,171.9h-3.6c-3.4,0-6.2,2.8-6.2,6.2V265
		c0,3.4,2.8,6.2,6.2,6.2h17.2c3.4,0,6.2-2.8,6.2-6.2v-17.2c0-3.4-2.8-6.2-6.2-6.2H441c-1.1-82.8-56.8-152.6-132.7-175h128.1
		C438.5,72.5,444.1,76.8,450.8,76.8L450.8,76.8z"/>
	<g>
		<path class="st3" d="M58.3,159.2c-2.8,0-5-2.2-5-5c0-3.3-2.7-6-6-6c-2.8,0-5-2.2-5-5s2.2-5,5-5c3.3,0,6-2.7,6-6c0-2.8,2.2-5,5-5
			s5,2.2,5,5c0,3.3,2.7,6,6,6c2.8,0,5,2.2,5,5s-2.2,5-5,5c-3.3,0-6,2.7-6,6C63.3,157,61.1,159.2,58.3,159.2z"/>
		<path class="st2" d="M345.5,187.1c-2.8,0-5-2.2-5-5c0-3.3-2.7-6-6-6c-2.8,0-5-2.2-5-5s2.2-5,5-5c3.3,0,6-2.7,6-6c0-2.8,2.2-5,5-5
			s5,2.2,5,5c0,3.3,2.7,6,6,6c2.8,0,5,2.2,5,5s-2.2,5-5,5c-3.3,0-6,2.7-6,6C350.5,184.9,348.3,187.1,345.5,187.1z"/>
		<path class="st3" d="M101.8,438c-1.3,0-2.6-0.5-3.5-1.5l-11-11c-2-2-2-5.1,0-7.1l11-11c2-2,5.1-2,7.1,0l11,11c2,2,2,5.1,0,7.1
			l-11,11C104.3,437.5,103,438,101.8,438z M97.8,422l3.9,3.9l3.9-3.9l-3.9-3.9L97.8,422z"/>
		<path class="st2" d="M432.6,358.5c-1.3,0-2.6-0.5-3.5-1.5l-11-11c-2-2-2-5.1,0-7.1l11-11c2-2,5.1-2,7.1,0l11,11c2,2,2,5.1,0,7.1
			l-11,11C435.1,358,433.9,358.5,432.6,358.5z M428.7,342.5l3.9,3.9l3.9-3.9l-3.9-3.9L428.7,342.5z"/>
	</g>
</g>
</svg>
