<svg xmlns="http://www.w3.org/2000/svg" width="500" height="500"><path fill="none" d="M310.857 468.282c-.198.221-.389.447-.58.672-1.365 1.61-3.065 3.612-6.021 2.767a7.044 7.044 0 0 1-.584-.197c-4.59-1.815-3.296-13.331-2.104-20.069-1.99 2.231-4.014 4.342-6.111 6.535-2.179 2.272-4.432 4.626-6.717 7.198a46.355 46.355 0 0 0-1.38 1.667c-2.287 2.839-4.879 6.059-7.445 5.793a5.357 5.357 0 0 1-.891-.174c-5.447-1.557-6.959-11.618-7.859-17.632-.104-.676-.195-1.289-.283-1.815-1.273-7.707-2.355-15.219-1.635-22.391 3.488-34.594 10.485-60.128 20.804-75.943-20.147-7.646-33.937-18.046-41-30.926-7.177-13.097-8.223-29.026-2.863-43.705 7.932-21.728 25.874-33.912 40.622-42.102 17.572-9.758 37.947-13.586 53.93-15.796 4.478-14.688 14.313-27.472 21.378-35.863 8.428-10.012 17.542-20.103 27.07-26.091 8.702-5.47 24.002-10.944 38.493-8.373.72.127 1.469.303 2.226.52 4.715 1.348 10.312 4.551 11.456 8.402 2.12 7.118-4.805 17.639-7.88 21.831-2.226 3.037-4.616 5.489-6.926 7.859-1.211 1.239-2.383 2.442-3.492 3.686a301.85 301.85 0 0 0 4.359-1.536c4.219-1.508 9.001-3.217 14.035-4.485 11.027-2.771 19.242-3.301 25.113-1.623 2.939.841 5.242 2.256 6.847 4.208 3.51 4.264 2.589 12.346.249 18.049-5.868 14.311-21.017 20.623-33.188 25.694l-.735.306c-3.822 1.595-7.651 3.022-11.356 4.399-9.286 3.455-18.069 6.726-25.318 12.089.298 5.013 3.413 9.163 6.434 13.183.466.623.933 1.242 1.385 1.861 3.117 4.265 5.507 8.607 8.038 13.207.429.776.86 1.561 1.296 2.351.366.654.726 1.304 1.083 1.945 5.758 10.304 10.728 19.207 10.651 33.714-.035 7.176-3.334 21.847-8.306 28.979 10.071 8.13 18.379 18.47 25.514 31.825C473.096 341.35 487 297.3 487 249.999c0-130.523-105.811-236.333-236.333-236.333-130.523 0-236.333 105.81-236.333 236.333s105.81 236.333 236.333 236.333c22.722 0 44.692-3.215 65.488-9.2-2.398-2.397-4.26-5.29-5.298-8.85z"/><path fill="#FFF" d="M441.188 383.472a22.957 22.957 0 0 1-4.952-.823c-4.568-1.306-8.153-4.071-10.092-7.785-2.028-3.887-2.205-8.553-.512-13.502l.503-1.469a99.32 99.32 0 0 1-2.067-2.236c-1.787-1.995-3.485-3.891-5.702-5.498-3.891 4.307-7.817 8.261-12.482 10.363-11.302 5.097-26.403 7.234-37.079 8.131-14.795 1.236-30.399-.566-47.71-5.516-7.127-2.038-14.535-4.596-22.618-7.81-10.894 12.856-15.371 36.478-17.8 53.25-2.587 17.867-4.599 36.313 1.214 49 2.733-2.6 5.633-5.857 8.92-9.552 1.395-1.566 2.834-3.188 4.36-4.866.452-.495.981-1.115 1.599-1.834 4.151-4.855 10.429-12.195 16.116-10.569a6.169 6.169 0 0 1 2.189 1.158l.506.414-.038.653c-.179 2.791-1.406 6.065-2.703 9.531-1.556 4.146-3.153 8.405-3.034 11.977 5.41-6.229 12.423-11.821 23.046-11.181 1.303-4.897 3.28-7.886 5.367-11.037.829-1.251 1.687-2.548 2.537-4.017 10.608-18.31 20.424-28.582 33.873-35.464 1.421-.725 6.354-3.007 10.221-1.901 2.169.621 3.647 2.201 4.276 4.573l.173.66-.454.51c-1.703 1.915-3.941 1.94-5.74 1.959-.882.01-1.717.018-2.426.221-3.211.917-8.257 4.381-11.77 6.907-11.715 8.423-23.866 27.504-28.271 44.384l-.146.553-.51.261c-2.647 1.341-5.481 1.061-8.224.788-2.662-.263-5.175-.512-7.093.854-1.67 1.19-5.015 5.628-5.473 9.305-.318 2.558 3.081 8.019 5.948 10.389.026.021.058.042.084.063 48.598-16.145 90.184-47.637 119.021-88.733a28.624 28.624 0 0 0-1.102-1.997l-1.955-.114z"/><path fill="#FFF" d="M262.393 267.684c-16.895 20.789-11.821 48.859 2.566 62.946 10.899 10.671 27.153 16.25 44.358 22.157l1.077.371a240.557 240.557 0 0 0 11.782 3.722c14.777 4.225 27.891 6.147 40.09 5.88 14.328-.316 33.047-2.958 42.615-9.436 3.924-2.649 11.453-9.87 13.418-14.035 7.592-16.076 5.306-30.792 2.051-40.306-1.302-3.799-3.932-8.183-6.745-12.719-1.236-1.998-2.396-4.078-3.515-6.09-1.315-2.364-2.56-4.598-3.854-6.573-1.217-1.85-2.783-3.593-4.3-5.279-2.187-2.432-4.449-4.948-5.748-7.88-.048-.11-4.896-11.174-1.698-14.697l.313-.347.02-.002 1.647-2.086c10.345-13.091 18.663-21.708 30.575-27.019 4.959-2.213 10.71-3.05 16.275-3.856 9.041-1.316 17.645-2.584 23.111-9.246.094-.313.205-.618.285-.938l.012-.04.012-.04c.949-2.948.438-5.021-.381-7.125-.079-.025-.156-.047-.232-.069-10.665-3.05-20.349-.331-31.001 3.252l-1.768.594c-8.594 2.877-19.289 6.459-26.14 11.826-3.189 2.5-6.227 5.8-9.439 9.293-2.283 2.484-4.644 5.052-7.174 7.443-1.023.968-2.187 1.937-3.533 3.059-1.561 1.299-3.327 2.77-5.264 4.569-.756.704-1.59 1.647-2.478 2.643-2.653 2.981-5.398 6.065-8.138 5.282-1.476-.423-2.533-1.857-3.231-4.387l-.157-.569c-.521-7.292.967-16.689 3.873-23.873 6.148-15.188 19.827-21.517 33.051-27.637 10.494-4.857 21.135-9.048 27.533-17.715 1.218-2.274 1.574-4.154 1.033-5.593-.575-1.525-2.195-2.68-4.819-3.43-2.241-.641-5.16-.95-8.448-.897-25.911.423-41.786 19.426-55.792 36.195-6.901 8.264-14.495 18.793-18.489 34.242l-.225.865-.892.082c-38.675 3.521-64.037 15.073-82.236 37.463zm99.171-4.127c.614.075 1.271.189 1.988.367l.053.013.052.02c1.178.399 5.107 1.896 6.243 4.309.383.811.427 1.662.122 2.466-1.29 3.406-4.966 4.702-9.597 3.378-.143-.042-.284-.087-.427-.132a10.332 10.332 0 0 1-1.84-.789c-4.209 3.927-11.387 3.119-13.128-1.34-6.051-15.491 15.426-23.028 16.534-8.292zm-33.906 20.515c1.108.316 1.992 1.139 2.429 2.252.778 2.004-.143 4.242-2.057 4.991-.925.359-1.383.55-1.84.739-.474.197-.944.391-1.896.763-1.38.538-1.737.683-2.577 1.021l-.74.296c-.062.765-.083 1.853.054 3.059.125 1.094.553 2.289 1.236 3.455.612 1.045 1.323 2.103 2.364 2.758.391.245.878.446 1.588.648.409.117.846.222 1.302.332.258.06.517.125.779.19l.106.028c1.905.545 2.99 2.597 2.463 4.671-.534 2.117-2.462 3.443-4.388 3.023l-.076-.02a1.288 1.288 0 0 1-.428-.216 30.972 30.972 0 0 1-.572-.155 19.39 19.39 0 0 1-2.214-.765c-.879-.371-1.621-.896-2.279-1.361a21.872 21.872 0 0 0-.604-.418c-.901-.604-1.844-1.28-2.653-2.136-.771-.815-1.305-1.736-1.819-2.626l-.111-.19a48.864 48.864 0 0 1-.47-.83 6.828 6.828 0 0 1-.88.76c-.841.59-1.742.94-2.613 1.28-.17.065-.339.133-.505.199l-.146.059c-.976.394-1.982.797-3.124.979-1.053.17-2.193.236-3.396.198-1.121-.036-2.258-.222-3.316-.42l-.061-.009-.062-.018a1.321 1.321 0 0 1-.267-.111c-1.825-.544-2.881-2.359-2.513-4.338.402-2.181 2.351-3.65 4.338-3.285.384.072.738.162 1.082.249.558.142 1.04.261 1.459.26.812-.009 1.587-.212 2.443-.458.846-.242 1.644-.472 2.24-.891 1.012-.71 1.729-1.771 2.357-2.81.684-1.135 1.176-2.121 1.453-2.8a33.761 33.761 0 0 0-1.048-.964l-.656-.593c-.569-.514-.836-.801-1.094-1.076-.229-.246-.445-.482-.933-.923-.487-.438-.74-.629-1.012-.834-.298-.228-.61-.466-1.178-.978-.763-.689-1.193-1.655-1.212-2.722a4.02 4.02 0 0 1 1.022-2.748 3.66 3.66 0 0 1 3.752-1.072 4.004 4.004 0 0 1 1.561.87c.327.297.544.465.742.605l-.897-.982s3.448 3.855 12.742 3.103c.707-.213 1.433-.237 2.125-.039zm-33.549-30.184c1.346-1.492 3.723-1.746 5.867-1.802l.099-.002.1.014c1 .131 1.87.312 2.652.527 3.087-4.268 8.782-7.353 13.751-3.015 8.772 7.659-6.639 29.386-15.945 12.624.009-.234.011-.466.013-.696a7.264 7.264 0 0 1-.419-.037c-1.58-.203-6.762-1.139-7.07-4.484-.101-1.27.222-2.319.952-3.129z"/><path fill="#726541" d="M426.145 374.863c1.938 3.714 5.523 6.479 10.092 7.785 1.556.445 3.222.722 4.952.823l1.958.114a43.989 43.989 0 0 0-1.25-1.953l-.026-.039-.023-.043c-3.904-6.863-8.213-14.072-14.211-20.146a38.848 38.848 0 0 1-1.5-1.513l-.503 1.469c-1.695 4.951-1.518 9.617.511 13.503zM443.322 212.435c-5.565.807-11.316 1.644-16.275 3.856-11.912 5.311-20.23 13.927-30.575 27.019l-1.647 2.086.444-.057c2.453-.318 5.01-2.018 7.709-3.818 1.753-1.166 3.563-2.368 5.425-3.229 4.877-2.255 10.53-4.157 16.518-6.17 6.704-2.258 13.636-4.591 20.021-7.609 6.678-3.159 18.151-10.079 21.492-21.322-5.467 6.659-14.071 7.928-23.112 9.244zM404.73 186.473c-13.224 6.12-26.902 12.449-33.051 27.637-2.906 7.184-4.395 16.58-3.873 23.873l.335-.486c5.046-7.354 10.705-13.03 17.045-19.164.901-.874 1.788-1.77 2.646-2.634 1.878-1.896 3.823-3.858 5.931-5.582 1.556-1.275 3.276-2.281 4.939-3.256 1.72-1.008 3.347-1.962 4.83-3.196 3.387-2.818 6.331-6.238 9.451-9.858 1.623-1.885 3.303-3.837 5.046-5.687.646-.685 1.307-1.372 1.973-2.066 4.403-4.588 8.958-9.335 11.325-15.662l.05-.128.073-.113c.31-.482.572-.943.813-1.394-6.398 8.668-17.038 12.859-27.533 17.716z"/><path fill="#FFF" d="M312.795 281.012l.897.982c.087.063.172.121.258.18.32.218.681.459 1.283 1.005.627.566.899.929 1.142 1.251.207.275.372.49.818.895.449.407.717.759.912 1.016.077.103.182.24.217.267 0 0 .018.011.068.026.061.017.167.037.35.057.766.074.877.002 1.36-.313.354-.229.833-.54 1.596-.838.9-.35 1.355-.516 1.81-.68.438-.16.879-.318 1.749-.659.093-.036.188-.057.282-.086-9.294.752-12.742-3.103-12.742-3.103z"/><linearGradient id="a" gradientUnits="userSpaceOnUse" x1="303.231" y1="285.164" x2="303.231" y2="296.934" gradientTransform="rotate(12.352 361.534 361.658)"><stop offset="0" stop-color="#fff"/><stop offset=".373" stop-color="#fdfdfd"/><stop offset=".507" stop-color="#f6f6f6"/><stop offset=".603" stop-color="#ebebeb"/><stop offset=".68" stop-color="#dadada"/><stop offset=".746" stop-color="#c4c4c4"/><stop offset=".805" stop-color="#a8a8a8"/><stop offset=".858" stop-color="#888"/><stop offset=".907" stop-color="#626262"/><stop offset=".952" stop-color="#373737"/><stop offset=".993" stop-color="#090909"/><stop offset="1"/></linearGradient><path fill="url(#a)" d="M312.795 281.012l.897.982c.087.063.172.121.258.18.32.218.681.459 1.283 1.005.627.566.899.929 1.142 1.251.207.275.372.49.818.895.449.407.717.759.912 1.016.077.103.182.24.217.267 0 0 .018.011.068.026.061.017.167.037.35.057.766.074.877.002 1.36-.313.354-.229.833-.54 1.596-.838.9-.35 1.355-.516 1.81-.68.438-.16.879-.318 1.749-.659.093-.036.188-.057.282-.086-9.294.752-12.742-3.103-12.742-3.103z"/><path fill="#1D1D1D" d="M323.506 284.859c-.454.164-.909.33-1.81.68-.763.298-1.241.609-1.596.838-.483.314-.595.387-1.36.313a2.357 2.357 0 0 1-.35-.057.378.378 0 0 1-.068-.026 2.387 2.387 0 0 1-.217-.267 6.897 6.897 0 0 0-.912-1.016 5.323 5.323 0 0 1-.818-.895 7.702 7.702 0 0 0-1.142-1.251c-.603-.546-.963-.787-1.283-1.005-.086-.059-.171-.117-.258-.18a7.73 7.73 0 0 1-.742-.605 3.99 3.99 0 0 0-1.561-.87 3.662 3.662 0 0 0-3.752 1.072 4.02 4.02 0 0 0-1.022 2.748c.019 1.066.449 2.032 1.212 2.722.567.512.88.75 1.178.978.271.205.524.396 1.012.834.487.44.703.677.933.923.258.275.524.563 1.094 1.076l.656.593c.386.342.586.524 1.048.964-.277.679-.77 1.665-1.453 2.8-.628 1.038-1.346 2.1-2.357 2.81-.597.419-1.395.648-2.24.891-.856.246-1.632.449-2.443.458-.419.001-.901-.118-1.459-.26-.344-.087-.698-.177-1.082-.249-1.987-.365-3.936 1.104-4.338 3.285-.368 1.979.688 3.794 2.513 4.338.086.047.174.084.267.111l.062.018.061.009c1.059.198 2.195.384 3.316.42a17.846 17.846 0 0 0 3.396-.198c1.142-.182 2.148-.585 3.124-.979l.146-.059c.166-.066.335-.134.505-.199.871-.34 1.772-.69 2.613-1.28a6.75 6.75 0 0 0 .88-.76c.152.277.311.555.47.83l.111.19c.515.89 1.049 1.811 1.819 2.626.81.855 1.752 1.531 2.653 2.136.2.133.402.275.604.418.658.465 1.4.99 2.279 1.361.65.274 1.376.524 2.214.765.191.055.386.106.572.155.154.119.312.183.428.216l.076.02c1.926.42 3.854-.906 4.388-3.023.527-2.074-.558-4.126-2.463-4.671l-.106-.028c-.263-.065-.521-.131-.779-.19-.456-.11-.893-.215-1.302-.332-.71-.202-1.197-.403-1.588-.648-1.041-.655-1.752-1.713-2.364-2.758-.684-1.166-1.111-2.361-1.236-3.455a16.248 16.248 0 0 1-.054-3.059l.74-.296c.84-.339 1.197-.483 2.577-1.021a80.683 80.683 0 0 0 1.896-.763c.457-.189.915-.38 1.84-.739 1.914-.749 2.835-2.987 2.057-4.991-.437-1.113-1.32-1.936-2.429-2.252a3.704 3.704 0 0 0-2.121.042c-.095.029-.189.05-.282.086-.874.338-1.315.496-1.753.656z"/><path fill="#726541" d="M361.643 265.411c-.064 3.228-2.426 6.616-3.284 7.602-.063.063-.135.114-.199.175.576.316 1.193.584 1.84.789.143.045.284.09.427.132 4.631 1.324 8.307.028 9.597-3.378.305-.804.261-1.655-.122-2.466-1.136-2.412-5.065-3.909-6.243-4.309l-.052-.02-.053-.013a16.513 16.513 0 0 0-1.988-.367c.028.368.054.738.056 1.134.02.241.025.481.021.721zM300.227 261.501c.131.018.275.027.419.037.013-1.948-.152-3.798.627-6.168.386-.93.915-1.862 1.555-2.745a19.328 19.328 0 0 0-2.652-.527l-.1-.014-.099.002c-2.145.056-4.521.31-5.867 1.802-.73.811-1.054 1.859-.953 3.129.308 3.345 5.489 4.281 7.07 4.484z"/><path fill="#1D1D1D" d="M358.159 273.188c.064-.061.136-.111.199-.175.858-.985 3.22-4.374 3.284-7.602.005-.24-.001-.48-.022-.721a15.158 15.158 0 0 0-.056-1.134c-1.108-14.735-22.585-7.198-16.533 8.291 1.741 4.46 8.919 5.267 13.128 1.341zM300.646 261.538c-.002.23-.004.462-.013.696 9.307 16.762 24.718-4.965 15.945-12.624-4.969-4.338-10.664-1.253-13.751 3.015a13.628 13.628 0 0 0-1.555 2.745c-.779 2.37-.614 4.22-.626 6.168z"/><path fill="#1D1D1D" d="M423.649 346.474c4.972-7.132 8.271-21.803 8.306-28.979.076-14.507-4.894-23.41-10.651-33.714-.357-.642-.717-1.291-1.083-1.945l-1.296-2.351c-2.531-4.6-4.921-8.942-8.038-13.207-.452-.619-.919-1.238-1.385-1.861-3.021-4.02-6.136-8.17-6.434-13.183 7.249-5.363 16.032-8.634 25.318-12.089 3.705-1.377 7.534-2.804 11.356-4.399l.735-.306c12.172-5.071 27.32-11.383 33.188-25.694 2.34-5.704 3.261-13.785-.249-18.049-1.604-1.952-3.907-3.367-6.847-4.208-5.871-1.679-14.086-1.149-25.113 1.623-5.034 1.268-9.816 2.977-14.035 4.485a279.49 279.49 0 0 1-4.359 1.536c1.109-1.243 2.281-2.446 3.492-3.686 2.31-2.371 4.7-4.823 6.926-7.859 3.075-4.191 10-14.713 7.88-21.831-1.145-3.851-6.741-7.054-11.456-8.402a22.267 22.267 0 0 0-2.226-.52c-14.491-2.571-29.791 2.902-38.493 8.373-9.528 5.988-18.643 16.079-27.07 26.091-7.064 8.391-16.9 21.176-21.378 35.863-15.982 2.209-36.357 6.038-53.93 15.796-14.748 8.19-32.689 20.375-40.622 42.102-5.36 14.679-4.314 30.608 2.863 43.705 7.063 12.88 20.853 23.279 41 30.926-10.318 15.815-17.315 41.35-20.804 75.943-.721 7.172.361 14.684 1.635 22.391.088.526.18 1.14.283 1.815.9 6.014 2.412 16.075 7.859 17.632.288.082.591.142.891.174 2.566.266 5.158-2.954 7.445-5.793.504-.628.983-1.222 1.38-1.667 2.285-2.572 4.538-4.926 6.717-7.198 2.098-2.193 4.121-4.304 6.111-6.535-1.191 6.738-2.485 18.254 2.104 20.069.197.076.393.143.584.197 2.956.846 4.656-1.156 6.021-2.767.191-.225.382-.451.58-.672 1.037 3.56 2.899 6.453 5.297 8.85a234.243 234.243 0 0 0 9.072-2.815c-.026-.021-.058-.042-.084-.063-2.867-2.37-6.267-7.831-5.948-10.389.458-3.677 3.803-8.114 5.473-9.305 1.918-1.366 4.431-1.117 7.093-.854 2.742.272 5.576.553 8.224-.788l.51-.261.146-.553c4.404-16.88 16.556-35.961 28.271-44.384 3.513-2.526 8.559-5.99 11.77-6.907.709-.203 1.544-.211 2.426-.221 1.799-.019 4.037-.044 5.74-1.959l.454-.51-.173-.66c-.629-2.372-2.107-3.952-4.276-4.573-3.867-1.105-8.8 1.177-10.221 1.901-13.449 6.882-23.265 17.154-33.873 35.464-.851 1.469-1.708 2.766-2.537 4.017-2.087 3.151-4.064 6.14-5.367 11.037-10.623-.641-17.636 4.952-23.046 11.181-.119-3.571 1.479-7.83 3.034-11.977 1.297-3.466 2.524-6.74 2.703-9.531l.038-.653-.506-.414a6.161 6.161 0 0 0-2.189-1.158c-5.688-1.626-11.965 5.714-16.116 10.569-.617.719-1.146 1.339-1.599 1.834-1.526 1.679-2.966 3.3-4.36 4.866-3.287 3.694-6.187 6.952-8.92 9.552-5.813-12.687-3.801-31.133-1.214-49 2.429-16.772 6.906-40.394 17.8-53.25 8.083 3.214 15.491 5.771 22.618 7.81 17.311 4.949 32.915 6.752 47.71 5.516 10.676-.896 25.777-3.034 37.079-8.131 4.665-2.103 8.592-6.057 12.482-10.363 2.217 1.607 3.915 3.503 5.702 5.498a99.32 99.32 0 0 0 2.067 2.236c.486.51.976 1.02 1.5 1.513 5.998 6.073 10.307 13.282 14.211 20.146l.023.043.026.039c.414.613.837 1.267 1.25 1.953.383.635.754 1.3 1.102 1.997a235.493 235.493 0 0 0 4.915-7.284c-7.133-13.356-15.44-23.695-25.512-31.825zM345.523 230.14l.225-.865c3.994-15.448 11.588-25.978 18.489-34.242 14.006-16.769 29.881-35.772 55.792-36.195 3.288-.052 6.207.257 8.448.897 2.624.75 4.244 1.905 4.819 3.43.541 1.439.185 3.318-1.033 5.593-.241.451-.504.912-.813 1.394l-.073.113-.05.128c-2.367 6.326-6.922 11.074-11.325 15.662-.666.694-1.326 1.382-1.973 2.066-1.743 1.85-3.423 3.801-5.046 5.687-3.12 3.621-6.064 7.041-9.451 9.858-1.483 1.233-3.11 2.188-4.83 3.196-1.663.975-3.384 1.981-4.939 3.256-2.107 1.724-4.053 3.686-5.931 5.582-.857.864-1.744 1.76-2.646 2.634-6.34 6.133-11.999 11.809-17.045 19.164l-.335.486.157.569c.698 2.53 1.756 3.964 3.231 4.387 2.739.783 5.484-2.301 8.138-5.282.888-.996 1.722-1.939 2.478-2.643 1.937-1.799 3.703-3.27 5.264-4.569 1.347-1.122 2.51-2.091 3.533-3.059 2.53-2.391 4.891-4.958 7.174-7.443 3.213-3.493 6.25-6.793 9.439-9.293 6.851-5.367 17.546-8.949 26.14-11.826l1.768-.594c10.652-3.583 20.336-6.302 31.001-3.252.076.021.153.044.232.069.818 2.104 1.33 4.177.381 7.125l-.012.04-.012.04c-.08.32-.191.625-.285.938-3.341 11.244-14.814 18.164-21.492 21.322-6.386 3.018-13.317 5.352-20.021 7.609-5.987 2.013-11.641 3.916-16.518 6.17-1.862.861-3.672 2.064-5.425 3.229-2.699 1.801-5.256 3.5-7.709 3.818l-.444.057-.02.002-.313.347c-3.198 3.523 1.65 14.587 1.698 14.697 1.299 2.932 3.562 5.448 5.748 7.88 1.517 1.687 3.083 3.43 4.3 5.279 1.294 1.976 2.538 4.209 3.854 6.573 1.119 2.012 2.278 4.092 3.515 6.09 2.813 4.536 5.443 8.92 6.745 12.719 3.255 9.514 5.541 24.229-2.051 40.306-1.965 4.165-9.494 11.386-13.418 14.035-9.568 6.478-28.287 9.119-42.615 9.436-12.199.268-25.313-1.655-40.09-5.88a238.407 238.407 0 0 1-11.782-3.722l-1.077-.371c-17.205-5.907-33.459-11.486-44.358-22.157-14.388-14.087-19.461-42.157-2.566-62.946 18.199-22.39 43.562-33.941 82.239-37.461l.89-.083z"/><g fill="#1D1D1D"><path d="M106.119 191.907c1.567 1.466 2.391 3.4 2.473 5.802v20.032h-8.489v-16.489c-.082-1.344-.306-2.352-.672-3.023-.366-.672-1.079-1.048-2.138-1.13-1.995 0-3.552.967-4.672 2.901-1.12 1.934-1.679 4.204-1.679 6.81v10.932h-8.55v-16.489c-.082-1.344-.326-2.352-.733-3.023-.407-.672-1.16-1.048-2.26-1.13-1.914 0-3.42.967-4.519 2.901-1.099 1.934-1.649 4.163-1.649 6.687v11.054h-8.55v-26.688h7.756l.611 4.214c2.157-3.704 5.374-5.557 9.649-5.557 2.158 0 3.939.438 5.344 1.313 1.404.876 2.371 2.168 2.901 3.878 1.139-1.588 2.493-2.85 4.061-3.787 1.567-.936 3.186-1.404 4.855-1.404 2.606-.003 4.693.73 6.261 2.196zM117.233 196.731c1.282-2.157 3.094-3.857 5.435-5.1 2.341-1.241 4.998-1.862 7.97-1.862 2.971 0 5.588.621 7.848 1.862 2.26 1.243 4 2.942 5.222 5.1 1.221 2.159 1.832 4.602 1.832 7.329 0 2.729-.611 5.191-1.832 7.39-1.222 2.199-2.962 3.919-5.222 5.161-2.26 1.242-4.917 1.863-7.97 1.863-2.972 0-5.609-.58-7.909-1.741-2.301-1.16-4.092-2.819-5.374-4.977-1.283-2.158-1.924-4.723-1.924-7.695.001-2.728.642-5.171 1.924-7.33zm8.52 12.673c1.221 1.405 2.768 2.107 4.641 2.107 1.955 0 3.532-.692 4.733-2.076 1.2-1.384 1.801-3.155 1.801-5.313 0-2.157-.601-3.929-1.801-5.313-1.202-1.384-2.779-2.077-4.733-2.077-1.873 0-3.42.703-4.641 2.107-1.222 1.405-1.833 3.167-1.833 5.283 0 2.117.611 3.878 1.833 5.282zM182.122 191.052v26.688c0 2.524-.723 4.814-2.168 6.871-1.446 2.055-3.4 3.664-5.863 4.825-2.464 1.16-5.141 1.74-8.031 1.74-2.198 0-4.122-.265-5.771-.793-1.649-.53-2.973-1.121-3.97-1.771-.998-.651-2.189-1.548-3.573-2.687l5.008-5.863c1.222 1.139 2.433 2.035 3.634 2.687 1.201.651 2.718.977 4.55.977 2.158 0 3.97-.54 5.436-1.618 1.466-1.079 2.199-2.576 2.199-4.489v-3.787c-.815 1.385-2.067 2.504-3.756 3.359-1.69.855-3.756 1.283-6.199 1.283-2.403 0-4.632-.621-6.687-1.863-2.057-1.241-3.695-2.952-4.917-5.13-1.221-2.178-1.832-4.59-1.832-7.237 0-2.687.641-5.15 1.924-7.39 1.282-2.238 2.971-3.99 5.069-5.252 2.097-1.262 4.306-1.893 6.626-1.893 2.198 0 4.153.315 5.863.946 1.71.632 3.012 1.457 3.909 2.474l.671-2.077h7.878zm-8.55 16.428v-6.535c-.571-1.302-1.518-2.34-2.84-3.114-1.324-.773-2.84-1.161-4.55-1.161-2.076 0-3.827.693-5.252 2.077-1.426 1.384-2.138 3.136-2.138 5.252 0 2.118.712 3.899 2.138 5.344 1.425 1.446 3.176 2.168 5.252 2.168 3.421 0 5.883-1.344 7.39-4.031zM192.168 178.501c.957-.834 2.046-1.252 3.268-1.252 1.18 0 2.239.418 3.176 1.252.936.835 1.405 1.863 1.405 3.084s-.469 2.239-1.405 3.053c-.937.815-1.996 1.222-3.176 1.222-1.222 0-2.311-.407-3.268-1.222-.957-.814-1.435-1.832-1.435-3.053 0-1.221.478-2.249 1.435-3.084zm7.298 12.551v26.688h-8.55v-26.688h8.55zM219.314 179.326v11.604h6.474v6.657h-6.474v20.154h-8.55v-20.154h-4.153v-6.657h4.153v-11.604h8.55zM261.026 191.052v26.688h-8.55v-3.298c-2.565 2.687-5.538 4.031-8.917 4.031-3.95 0-7.156-1.181-9.619-3.542-2.464-2.361-3.695-5.863-3.695-10.504 0-2.932.6-5.506 1.802-7.726 1.2-2.219 2.799-3.939 4.794-5.161 1.994-1.222 4.132-1.832 6.413-1.832 2.361 0 4.234.357 5.619 1.068 1.384.713 2.604 1.721 3.664 3.023l.55-2.749h7.939zm-8.549 16.428v-6.535c-.489-1.302-1.334-2.34-2.535-3.114-1.201-.773-2.616-1.161-4.244-1.161-1.873 0-3.472.693-4.794 2.077-1.323 1.384-1.985 3.136-1.985 5.252 0 1.385.326 2.657.978 3.817.651 1.161 1.516 2.067 2.595 2.718a6.668 6.668 0 0 0 3.512.977c2.97 0 5.129-1.344 6.473-4.031zM294.707 192.029c1.688 1.507 2.555 3.42 2.596 5.741v19.97h-8.551v-16.795c-.122-2.605-1.426-3.908-3.908-3.908-1.954 0-3.522.916-4.702 2.748-1.182 1.832-1.771 4.194-1.771 7.084v10.871h-8.55v-26.688h7.756l.61 4.275a10.472 10.472 0 0 1 4.062-4.092c1.73-.977 3.776-1.465 6.138-1.465 2.523 0 4.63.753 6.32 2.259zM105.11 257.761l-12.03 28.276-8.55-17.711-7.817 17.711-12.153-28.276h8.306l4.947 11.298 3.726-8.244-1.405-3.054H87.4l5.008 11.787 4.397-11.787h8.305zM138.822 257.761v26.688h-8.55v-3.298c-2.565 2.688-5.538 4.03-8.917 4.03-3.95 0-7.156-1.18-9.619-3.542-2.464-2.36-3.695-5.862-3.695-10.504 0-2.932.6-5.507 1.802-7.726 1.2-2.219 2.799-3.939 4.794-5.161 1.994-1.222 4.132-1.832 6.413-1.832 2.361 0 4.234.357 5.619 1.068 1.383.713 2.605 1.721 3.664 3.023l.55-2.748h7.939zm-8.551 16.428v-6.535c-.488-1.303-1.334-2.341-2.535-3.114-1.201-.773-2.616-1.161-4.244-1.161-1.873 0-3.472.693-4.794 2.077-1.323 1.384-1.985 3.136-1.985 5.252 0 1.385.326 2.656.978 3.817.651 1.16 1.516 2.066 2.595 2.718a6.677 6.677 0 0 0 3.512.977c2.972 0 5.13-1.344 6.473-4.031zM158.67 246.035v11.604h6.474v6.656h-6.474v20.154h-8.55v-20.154h-4.153v-6.656h4.153v-11.604h8.55zM189.908 284.327c-1.771.569-3.512.854-5.222.854-4.641 0-8.316-1.252-11.023-3.756-2.708-2.504-4.061-5.954-4.061-10.352 0-2.85.661-5.344 1.985-7.481 1.322-2.138 3.063-3.766 5.222-4.886 2.157-1.119 4.478-1.68 6.962-1.68 4.438 0 8.041 1.182 10.81 3.543l-4.153 5.496c-1.751-1.384-3.705-2.076-5.863-2.076-1.792 0-3.308.672-4.55 2.015-1.242 1.344-1.863 3.034-1.863 5.069 0 2.037.672 3.736 2.016 5.1 1.343 1.364 3.094 2.046 5.252 2.046 1.873 0 3.42-.509 4.642-1.526l4.275 5.374c-1.183.938-2.658 1.691-4.429 2.26zM225.817 258.737c1.689 1.507 2.555 3.421 2.596 5.741v19.971h-8.55v-16.795c-.123-2.605-1.426-3.908-3.909-3.908-1.955 0-3.522.916-4.703 2.748-1.181 1.832-1.771 4.193-1.771 7.084v10.871h-8.55v-48.186h8.367v25.711a10.577 10.577 0 0 1 4.061-4.031c1.73-.977 3.776-1.465 6.138-1.465 2.524.001 4.631.754 6.321 2.259z"/></g><g><path fill="none" d="M88.493 382.043L176 344.317l-22.327 92.648-18.39-30.075-17.088 20.457a220.234 220.234 0 0 0 46.323 26.597c27.277 11.538 56.262 17.388 86.148 17.388 29.886 0 58.871-5.85 86.148-17.388 26.354-11.146 50.026-27.107 70.358-47.439 20.332-20.331 36.293-44.003 47.439-70.357C466.15 308.87 472 279.886 472 249.999c0-29.886-5.85-58.871-17.388-86.148-11.146-26.354-27.107-50.026-47.439-70.358s-44.004-36.293-70.358-47.44c-27.277-11.537-56.262-17.387-86.148-17.387s-58.871 5.85-86.148 17.387C138.164 57.2 114.492 73.161 94.16 93.493c-20.332 20.332-36.293 44.003-47.44 70.358-11.537 27.277-17.387 56.262-17.387 86.148 0 29.887 5.85 58.871 17.387 86.148 11.147 26.354 27.108 50.026 47.44 70.357a225.439 225.439 0 0 0 9.816 9.226l17.27-20.673-32.753-13.014z"/><path fill="#1D1D1D" d="M250.667 13.666c-130.523 0-236.333 105.81-236.333 236.333 0 70.59 30.958 133.938 80.026 177.243l9.617-11.512a225.439 225.439 0 0 1-9.816-9.226c-20.332-20.331-36.293-44.003-47.44-70.357-11.537-27.277-17.387-56.262-17.387-86.148 0-29.886 5.85-58.871 17.387-86.148 11.147-26.354 27.108-50.026 47.44-70.358 20.332-20.332 44.003-36.293 70.358-47.44 27.277-11.537 56.262-17.387 86.148-17.387s58.871 5.85 86.148 17.387c26.354 11.147 50.026 27.108 70.358 47.44 20.332 20.332 36.293 44.003 47.439 70.358C466.15 191.128 472 220.113 472 249.999c0 29.887-5.85 58.871-17.388 86.148-11.146 26.354-27.107 50.026-47.439 70.357-20.332 20.332-44.004 36.293-70.358 47.439-27.277 11.538-56.262 17.388-86.148 17.388-29.887 0-58.871-5.85-86.148-17.388a220.165 220.165 0 0 1-46.323-26.597l-9.614 11.51c39.549 29.801 88.751 47.475 142.086 47.475C381.189 486.332 487 380.522 487 249.999S381.189 13.666 250.667 13.666z"/><path fill="#1D1D1B" d="M135.283 406.891l18.39 30.075L176 344.317l-87.507 37.726 32.753 13.015-17.27 20.672-9.617 11.512-22.342 26.745 14.041 11.832 22.523-26.962 9.614-11.509z"/></g></svg>