<svg version="1.1" xmlns="http://www.w3.org/2000/svg" xmlns:xlink="http://www.w3.org/1999/xlink" viewBox="0 0 140.4 68.6"><path fill="#1E1E1E" d="M42.3 53.5v3c-2.2.1-4.5.2-6.7.1l.6-.6c.6-.7 1.1-1.6 1.4-2.4 1.5 0 3.1 0 4.7-.1zm-25.3.4c1.4.4 3.5 1 6.5 1.6V52c-1.8-.4-3.2-.8-4.1-1.1h-.1c-.1.3-.3.6-.6.7-.3.2-.7.3-1 .3-.2 0-.4 0-.6-.1l-.2-.1s-.1 0-.1-.1c-1.5-.7-2.9-1.1-4.2-1.2 1.1 1.7 2.3 2.7 4.4 3.5zm121.8-33.6c-.4-.6-1.3-1.1-2.7-1.3-4.8-.7-9.6-1.6-14.4-1.9-3.2-.2-6.5-.4-9.7-.3-12.5.3-26 2.9-28.5 3.8-2.5.9-8.5 3-10.2 3.3-1.8.4-3.1.3-3.1.3s-1.4.1-3.1-.3c-1.8-.4-7.7-2.4-10.2-3.3-2.5-.9-15.9-3.5-28.5-3.8-8-.2-16.7.4-24.6 2.3-3 .7-2.8 2.1-2.6 4.8.1 1.6.2 3.2.4 4.8 0 0 .4.9.5 1.2s1.3 1.8 2.4 2.7c1.1.9 2.4 6.3 3 7.7.3.7 1 2.3 1.9 4 .9-.2 1.8-.3 2.8-.3h1.1l-.3-.6c-3.1-6.7-3-14.1-3-14.1.1-.8 0-4.5 1.2-6 1.2-1.6 1.3-1.9 3.5-2.5 2.2-.6 11.4-1.1 18.4-.8 7 .4 18.9 2.5 21.2 3.3 2.3.8 4.1 1.8 5.6 3.8 1.6 2 2.5 3 2.2 5.7-.3 2.7-2.8 12.1-3.8 14.1-.9 1.7-2.1 3.5-4.7 4.6h.6c1 0 1.8.8 1.8 1.8v1.1c2.7-1.3 4.6-5 5.6-7.2 1.1-2.5 2.1-5.4 3-8 .9-2.6 2.4-7.1 3.1-7.7.7-.6 2.4-.4 2.4-.4s1.7-.3 2.4.4c.7.6 2.2 5.2 3.1 7.7.9 2.6 1.9 5.5 3 8s3.2 6.6 6.5 7.6c.3.1.8.2 1.2.3v-3.7c-.4-.2-.7-.3-1-.5h-1.4c-1 0-1.8-.8-1.8-1.8v-1.9c0-.1-.1-.1-.1-.2-1-2-3.5-11.4-3.8-14.1-.3-2.7.6-3.7 2.2-5.7s3.3-3 5.6-3.8 14.2-2.9 21.2-3.3c7-.4 16.2.1 18.4.8 2.2.6 2.3.9 3.5 2.5 1.2 1.6 1.1 5.2 1.2 6 0 0 .2 7.4-2.9 14.1-1.5 3.2-4.3 6.5-6.6 7.4-1.2.4-3.5 1-6.3 1.5.2.3.3.6.3 1v2.5c3.9-.6 6.8-1.4 8.4-1.9 2.7-.8 3.9-2.4 5.3-4.9 1.5-2.5 3.7-7.2 4.3-8.7.6-1.5 1.9-6.8 3-7.7 1.1-.9 2.3-2.4 2.4-2.7.1-.3.5-1.2.5-1.2l.3-3.6c.2-2.3.6-3.9-.2-4.9zm-37.9 33.3c-2.9-.1-5.8-.3-8.3-.7V56c2.5.3 5.3.5 8.3.6v-3zm32.1 8.8c-.2.6-.5 1-.8 1.3-.4.3-.8.4-1.3.4-.7 0-1.2-.2-1.6-.7-.4-.5-.6-1.1-.6-1.9s.2-1.5.6-2c.4-.5.9-.7 1.5-.7 1 0 1.6.4 1.9 1.3v.1h.1l1-.3h.1v-.1c-.2-.7-.6-1.2-1.1-1.6-.5-.4-1.2-.5-2-.5-1.1 0-2 .3-2.6 1-.7.7-1 1.6-1 2.7 0 1.2.3 2.2 1 2.9.6.7 1.5 1.1 2.6 1.1.8 0 1.5-.2 2.1-.7.6-.4 1-1.1 1.2-1.8v-.1h-.1l-1-.4zm4.6-1c0 1.8-.7 3.4-2 4.7-1.3 1.3-2.9 2-4.7 2-1.8 0-3.4-.7-4.7-2-1.3-1.3-2-2.9-2-4.7 0-1.8.7-3.4 2-4.7 1.3-1.3 2.9-2 4.7-2 1.8 0 3.4.7 4.7 2 1.3 1.3 2 2.9 2 4.7zm-2.9 3.9c1-1.1 1.6-2.3 1.6-3.8s-.5-2.7-1.6-3.8c-1.1-1.1-2.3-1.6-3.8-1.6s-2.8.5-3.8 1.6c-1.1 1-1.6 2.3-1.6 3.8s.5 2.8 1.6 3.8c1.1 1.1 2.3 1.6 3.8 1.6 1.5-.1 2.7-.6 3.8-1.6zM12 45.8c-2.8 0-5.2 1-7.1 2.8-2 1.9-3 4.2-3 6.8 0 2.7 1 5 3 6.9 2 1.9 4.4 2.9 7.3 2.9 1.9 0 3.8-.4 5.4-1.3l.1-.1v-3l-.2.1c-1.8 1-3.5 1.5-5.1 1.5-2.2 0-4-.7-5.5-2-1.4-1.3-2.2-3-2.2-5 0-1.9.7-3.6 2.1-4.9 1.4-1.3 3.2-2 5.2-2 1.6 0 3.4.5 5.4 1.4l.2.1V47h-.1c-1.8-.9-3.7-1.2-5.5-1.2zm24.3 18.7l.1.2h-3l-.1-.1-5-7.5h-.4V64.7h-2.7V46.4h4c2 0 3.6.5 4.8 1.4 1.2 1 1.9 2.2 1.9 3.8 0 1.2-.4 2.3-1.2 3.3-.8.9-2 1.6-3.6 2l5.2 7.6zm-8.1-9.7c3.4 0 5-1 5-3.1 0-.7-.2-1.3-.6-1.8s-1-.8-1.6-1c-.7-.2-1.6-.3-3-.3v6.1c0 .1.1.1.2.1zm4.2-1l.1-.1c0 .1 0 .1-.1.1zm.8-1.2zm-.1.4s0-.1 0 0c0-.1 0-.1 0 0zm-.2.3l.1-.1c-.1-.1-.1.1-.1.1zm-.2.3l.1-.1s-.1 0-.1.1zm.6-1.5v0zm-5 2.8h0zm3.9-.8l.1-.1c-.1 0-.1 0-.1.1zm-.4.2c.1 0 .1-.1.2-.1-.1-.1-.1-.1-.2.1zm-.4.1c.1 0 .1 0 .2-.1 0 .1-.1.1-.2.1zm-.4.2c.1 0 .1 0 .2-.1 0 0-.1.1-.2.1zm-.4 0c.1 0 .1 0 .2-.1-.1.1-.1.1-.2.1zm-.5.2h.2-.2zm-.6.1h.3c-.1-.1-.2 0-.3 0zm-.5 0h.3-.3zm15.1-8.5v18.3h10v-2.6h-7.4v-6h7.4v-2.6h-7.4v-4.4h7.4v-2.7h-10zm27.1 21.7L69.8 65h-5.7l6.2-13.8 7 15.4h3.6L70.4 43.3l-.1-.3-.1.3-11 24.6-.1.3h.2l11.9-.1zM84 46.4l-.1 2.5v.2h4.3v15.7h2.6V49.1H95v-2.7H84zm28.9 0h-10.2v18.3H113v-2.6h-7.6v-6h7.6v-2.6h-7.6v-4.4h7.6v-.2l-.1-2.5zm-37.7-33V8.8c0-.6.2-1.2.6-1.6.4-.4.9-.7 1.4-.7.9 0 1.4.5 1.4 1.6v5.4h1.8V8.9c0-.7.1-1.3.5-1.7.4-.5.8-.7 1.3-.7.9 0 1.3.5 1.3 1.4v5.6h1.8v-6c0-.7-.3-1.3-.7-1.7-.5-.5-1.1-.7-1.7-.7-.5 0-1 .1-1.4.4-.4.3-.8.7-1.3 1.3-.2-.6-.6-1-.9-1.3-.4-.3-.9-.4-1.5-.4-.5 0-.9.1-1.3.4-.4.2-.8.6-1.2 1.1V5.4h-1.6v8.3l1.5-.3zm19.2-6.5c-.4-.6-.8-1-1.4-1.4-.6-.4-1.2-.5-1.9-.5-1 0-2 .4-2.7 1.3-.8.9-1.2 1.9-1.2 3 0 1.2.4 2.3 1.2 3.1.8.9 1.7 1.3 2.8 1.3 1.3 0 2.3-.6 3.2-1.9v1.7H96V5.2h-1.6v1.7zm-.6 4.4c-.5.5-1.2.8-1.9.8-.8 0-1.4-.3-1.9-.8s-.8-1.2-.8-2c0-.7.3-1.3.8-1.9.5-.5 1.2-.8 1.9-.8.8 0 1.4.3 1.9.8s.8 1.2.8 1.9c0 .8-.3 1.5-.8 2zm4.9-1.1h4.7V8.6h-4.7v1.6zm10.5 1.2l-2.7 5.9h1.8l5.6-12.1h-1.8L110 9.7l-3-4.5h-2l4.2 6.2zm13.6-4.5c-.4-.6-.8-1-1.4-1.4-.6-.4-1.2-.5-1.9-.5-1 0-2 .4-2.7 1.3-.8.9-1.2 1.9-1.2 3 0 1.2.4 2.3 1.2 3.1.8.9 1.7 1.3 2.8 1.3 1.3 0 2.3-.6 3.2-1.9v1.7h1.8V5.2h-1.8v1.7zm-.6 4.4c-.5.5-1.2.8-1.9.8-.8 0-1.4-.3-1.9-.8s-.8-1.2-.8-2c0-.7.3-1.3.8-1.9.5-.5 1.2-.8 1.9-.8.8 0 1.4.3 1.9.8s.8 1.2.8 1.9c0 .8-.3 1.5-.8 2zm4.9-8.5h1.1c0 .7-.3 1.4-1 2l.8.7c.4-.4.7-.8 1-1.3.2-.5.4-1 .4-1.4V.4h-2.2l-.1 2.4zm6.9 2.1c-.8 0-1.4.2-1.9.7s-.8 1-.8 1.7c0 .6.2 1 .5 1.4.4.4 1 .8 2 1.1.9.4 1.4.8 1.4 1.2 0 .3-.1.5-.4.7-.3.2-.6.3-.9.3-.5 0-1-.2-1.5-.7l-1.4.7c.7 1.1 1.7 1.6 2.9 1.6.8 0 1.4-.3 2-.8.6-.5.9-1.1.9-1.8 0-.6-.2-1.1-.6-1.5-.4-.4-1-.8-1.9-1.2-.9-.4-1.3-.7-1.3-1.1 0-.5.4-.8 1.1-.8.3 0 .6.1.8.2.2.1.5.3.8.5l1.2-1c-1.3-.7-2.1-1.2-2.9-1.2z"/></svg>