<svg xmlns="http://www.w3.org/2000/svg" width="1000" height="1000"><path fill="#FAFAFA" d="M0 0v1000h128.673L882.56 0H0z"/><path fill="#EFF4F2" d="M1000 0H882.56L128.673 1000H1000V0z"/><path fill="#1E1E1E" d="M406.73 564.786v10.379c-7.772.854-15.545.854-22.464.854.853-.854 1.706-.854 1.706-1.706 1.754-2.606 3.46-5.166 4.313-7.772 5.213-1.755 10.426-1.755 16.445-1.755zm-85.497.854c4.313 1.753 12.085 3.46 21.611 5.166V558.72c-6.066-.853-10.379-2.606-13.839-3.46-.853.854-.853 1.707-1.706 2.607-.854.853-2.606.853-3.46.853h-4.313c-5.166-2.606-9.479-3.46-13.839-4.313 4.313 5.166 8.674 8.626 15.546 11.233zm410.189-113.128c-1.754-1.707-4.313-3.46-9.526-4.313-16.397-2.559-31.942-5.166-48.341-6.019-10.379-.853-21.564-.853-32.796-.853-42.322.853-87.204 9.479-95.877 12.938-8.626 3.459-28.483 10.332-34.55 11.232-6.02.853-10.379.853-10.379.853s-4.313 0-10.38-.853-25.924-7.772-34.55-11.232c-8.625-3.46-53.554-12.085-95.876-12.938-26.777-.853-56.114 1.706-82.892 7.772-10.379 2.606-9.479 6.919-8.625 16.398.853 5.166.853 11.232.853 16.398 0 0 .854 3.46 1.706 4.313 0 .854 4.313 6.066 7.773 8.626 3.459 3.459 7.772 20.711 10.379 25.924.853 2.606 3.46 7.772 6.019 12.938 2.606-.854 6.066-.854 9.526-.854h3.46c0-.853-.854-.853-.854-1.706-10.379-22.464-10.379-47.488-10.379-47.488 0-2.606 0-15.544 4.313-20.71s4.313-6.066 12.086-8.625c7.772-1.754 38.009-3.46 62.18-2.607 23.317.853 63.886 8.626 71.658 11.232 7.772 2.559 13.792 6.019 19.005 12.938 5.166 6.92 8.626 10.38 7.772 19.005-.853 8.626-9.479 40.569-12.938 47.488-2.606 6.066-6.919 11.232-15.545 15.545h1.754c3.46 0 6.066 2.56 6.066 6.02v3.459c9.479-4.313 15.545-16.397 19.005-24.17 3.459-8.626 6.919-18.152 10.379-26.777 3.46-8.626 7.772-24.171 10.379-25.925 2.606-2.606 7.772-.853 7.772-.853s5.166-.854 7.772.853c2.606 2.607 7.772 17.252 10.379 25.925 3.46 8.625 6.066 19.005 10.38 26.777 3.459 8.625 11.231 22.464 21.611 25.07.853 0 2.606.854 4.313.854v-12.085c-.853-.854-2.606-.854-3.46-1.706h-5.166c-3.459 0-6.066-2.607-6.066-6.02v-6.919c-3.459-6.92-12.085-38.01-12.938-47.488-.854-8.626 1.706-12.086 7.772-19.005 5.165-6.92 11.231-9.526 19.005-12.938 7.771-2.606 47.487-9.526 71.706-11.232 23.317-.853 54.407.854 62.18 2.607 7.772 2.559 7.772 3.459 12.085 8.625 4.313 5.166 3.46 17.251 4.313 20.711 0 0 .853 25.023-9.479 47.488-5.166 10.379-14.692 22.464-22.465 25.023-4.313 1.754-12.085 3.46-21.611 5.166.853.854.853 1.754.853 3.46v8.625c12.938-1.706 22.465-5.166 28.484-6.019 8.625-2.606 12.938-7.772 18.151-16.398 5.166-8.625 12.085-24.17 14.691-29.384 2.607-5.166 6.92-23.317 10.38-25.924 3.459-3.46 7.772-7.772 7.772-8.626 0-.853 1.753-4.313 1.753-4.313 0-4.313.854-7.772.854-12.085-.945-8.72.761-14.739-1.846-18.198zM603.65 564.786c-10.379 0-19.857-.853-27.631-2.559v10.331c8.626.854 18.152 1.754 27.631 1.754v-9.526zm107.915 29.337c-.854 1.706-1.754 3.46-2.607 4.313-.853.854-2.606 1.754-4.313 1.754-2.606 0-4.313-.854-5.166-2.606-.853-1.754-1.753-3.46-1.753-6.066 0-2.607.853-5.166 1.753-6.92.854-1.706 3.46-2.606 5.166-2.606 3.46 0 5.166 1.754 6.066 4.313l3.46-.853c-.854-2.606-1.706-4.313-3.46-5.166-1.706-.854-4.313-1.754-6.919-1.754-3.46 0-6.92.854-8.626 3.46-2.606 2.606-3.46 5.166-3.46 8.626 0 4.313.854 7.772 3.46 9.525 1.706 2.606 5.166 3.46 8.626 3.46 2.606 0 5.165-.854 6.919-2.56 1.754-1.753 3.46-3.459 4.313-6.066l-3.459-.854zm15.545-2.56c0 6.066-2.606 11.232-6.92 15.545-4.313 4.313-9.479 6.92-15.545 6.92-6.019 0-11.232-2.606-15.545-6.92-4.313-4.313-6.919-9.479-6.919-15.545s2.606-11.232 6.919-15.545 9.526-6.919 15.545-6.919c6.066 0 11.232 2.606 15.545 6.919 4.36 3.461 6.92 8.627 6.92 15.545zm-9.48 12.085c3.46-3.459 5.166-7.772 5.166-12.938s-1.753-9.479-5.166-12.938c-3.459-3.46-7.771-5.166-12.938-5.166s-9.479 1.753-12.938 5.166c-3.46 3.459-5.166 7.772-5.166 12.938 0 5.165 1.706 9.525 5.166 12.938 3.459 3.46 7.772 5.166 12.938 5.166 5.166.854 9.479-.852 12.938-5.166zm-413.648-65.639c-9.526 0-17.251 3.46-24.171 9.479-6.919 6.066-10.379 13.839-10.379 23.318 0 8.625 3.46 17.251 10.379 23.317 6.92 6.066 14.692 9.479 24.171 9.479 6.066 0 12.938-1.706 18.151-4.313v-10.38l-.853.854c-6.066 3.46-12.086 5.166-17.252 5.166-6.919 0-13.839-2.56-18.151-6.92-5.166-4.313-6.919-10.379-6.919-16.397 0-6.066 2.606-12.086 6.919-16.398s10.379-6.92 17.251-6.92c5.166 0 11.232 1.707 18.152 5.166h.853v-10.38c-5.213-3.365-12.133-5.071-18.151-5.071zm82.037 63.887l-9.525.853v-.853l-17.251-25.071h-.854v25.924h-8.626v-62.132h13.792c6.919 0 12.085 1.706 16.398 5.165 4.313 3.46 6.065 7.772 6.065 12.938 0 4.313-1.706 7.772-4.313 11.232s-6.919 5.166-12.085 6.92l16.399 25.024zM359.242 569.1c11.231 0 16.397-3.46 16.397-10.332 0-2.606-.853-4.313-1.706-6.066-1.706-1.706-3.46-2.606-5.166-3.46-2.606-.853-5.166-.853-10.379-.853l.854 20.711c-.853 0-.853 0 0 0zm13.839-3.46c.853 0 0 0 0 0zm2.559-2.607s0-.853 0 0zm0-3.46c0 .853 0 .853 0 0 0 .853 0 .853 0 0zm-16.398 9.527h.853-.853zm10.379-1.754s.853 0 0 0zm-7.772 1.754h.853-.853zm50.947-28.485v62.181h33.697v-8.626h-25.071v-20.711h25.071v-8.625h-25.071v-14.692h25.071v-8.625h-33.697v-.902zm90.664 72.513l-5.166-10.38h-19.005L500 556.113l23.317 51.801h12.086L500 529.384l-.853-.854-.854.854-37.156 82.891v.854h42.323v-.001zm43.175-72.513v8.626h14.692v52.654h8.625v-52.654h14.692v-8.625l-38.009-.001zm97.583 0h-34.55v62.181h34.55v-8.626h-25.924v-20.711h25.924v-8.625h-25.924v-14.692h25.924v-9.527zM517.299 430.047v-16.398c0-2.559.853-4.313 1.706-5.166.854-1.706 2.606-2.606 4.313-2.606 2.606 0 4.313 1.706 4.313 5.166v18.151h6.066v-15.545c0-2.559.854-4.313 1.754-6.019.854-1.706 2.606-2.606 4.313-2.606 3.46 0 4.313 1.753 4.313 4.313v19.005h6.066v-20.758c0-2.606-.854-4.313-2.606-6.066-1.754-1.753-3.46-2.606-6.066-2.606-1.707 0-3.46.853-5.166 1.706s-2.607 2.607-4.313 4.313c-.853-1.706-1.706-3.46-3.459-4.313-.854-.853-2.606-1.706-5.166-1.706-1.706 0-3.46 0-4.313.853-.853.853-2.606 1.706-4.313 3.46v-4.313h-5.261v27.63l7.819 3.505zm64.739-22.464c-1.706-1.706-2.606-3.459-4.313-4.313-1.754-.853-4.313-1.706-6.066-1.706-3.46 0-6.92 1.706-9.526 4.313a14.31 14.31 0 0 0-4.313 10.379c0 4.313.853 7.773 3.459 10.379 2.607 2.606 6.066 4.313 9.479 4.313 4.313 0 7.772-1.706 10.379-6.019v6.019h5.166v-27.63h-5.166l.901 4.265zm-2.606 14.691c-1.706 1.754-4.313 2.606-6.92 2.606s-4.313-.853-6.919-2.606c-1.754-1.706-2.607-4.313-2.607-6.919s.854-4.313 2.607-6.066c1.753-1.706 4.313-2.559 6.066-2.559 2.606 0 4.313.853 6.919 2.559 1.754 1.754 2.606 4.313 2.606 6.919.854 1.754.001 4.36-1.752 6.066zm16.445-3.459h15.545v-5.166h-15.545v5.166zm35.403 4.312l-9.479 19.858h6.066l19.005-40.569h-6.113l-6.92 15.545-10.379-15.545h-6.872l14.692 20.711zm45.782-15.544c-1.754-1.706-2.606-3.459-4.313-4.313-1.706-.853-4.313-1.706-6.066-1.706-3.46 0-6.92 1.706-9.526 4.313a14.31 14.31 0 0 0-4.313 10.379c0 4.313.853 7.773 3.46 10.379 2.606 2.606 6.066 4.313 9.479 4.313 4.313 0 7.772-1.706 10.379-6.019v6.019h6.066v-27.63h-6.066v4.313h.9v-.048zm-1.754 14.691c-1.753 1.754-4.313 2.606-6.919 2.606s-4.313-.853-6.919-2.606c-1.707-1.706-2.607-4.313-2.607-6.919s.854-4.313 2.607-6.066c1.753-1.706 4.313-2.559 6.065-2.559 2.607 0 4.313.853 6.92 2.559 1.754 1.754 2.606 4.313 2.606 6.919.854 1.754.001 4.36-1.753 6.066zm16.398-28.483h3.46c0 2.56-.854 4.313-3.46 6.919l2.606 2.607c1.706-.854 2.607-2.607 3.46-4.313.854-1.706.854-3.46.854-5.166v-7.772h-7.772v7.772h.853v-.047h-.001zm23.318 6.872c-2.606 0-5.165.853-6.919 2.606-1.754 1.707-2.606 3.46-2.606 6.019 0 1.753.853 3.46 1.753 4.313.854.853 3.46 2.606 6.92 3.459 3.459.853 5.166 2.607 5.166 4.313 0 .853-.854 1.706-1.754 2.606-.854.854-1.706.854-3.46.854-1.706 0-3.46-.854-5.166-2.607l-4.313 2.607c2.606 3.459 6.066 5.166 9.526 5.166 2.606 0 5.166-.853 6.919-2.606 1.754-1.706 2.606-3.46 2.606-6.066 0-1.706-.853-3.459-1.753-5.166-.854-1.706-3.46-2.606-6.92-3.459s-4.313-2.607-4.313-3.46c0-1.706.853-2.559 3.46-2.559.853 0 1.753 0 2.606.853.853 0 1.754.853 2.606 1.706l3.46-3.459c-2.652-3.366-5.212-5.12-7.818-5.12zM329.005 716.777v27.63h-7.772v-37.156h7.772v4.313c1.754-4.313 5.166-6.919 9.526-6.919s7.772 1.706 9.479 4.313c2.606 2.56 3.46 6.92 3.46 11.232v25.023h-6.92v-24.171c0-2.606-.853-4.313-2.606-6.066-1.706-1.706-3.46-2.606-6.019-2.606-2.607 0-4.313.854-6.066 2.606.047.901-.854 1.801-.854 1.801zM386.019 703.791c6.066 0 11.232 1.706 14.692 6.066 4.313 4.313 6.019 9.479 6.019 14.692 0 5.165-1.706 11.231-6.019 14.691-4.313 4.313-9.526 6.019-14.692 6.019-6.065 0-10.379-1.706-14.691-6.019s-6.066-9.526-6.066-14.691c0-5.166 1.706-11.232 6.066-14.692 3.459-4.312 8.625-6.066 14.691-6.066zm-9.526 12.085c-2.606 2.607-3.46 6.066-3.46 9.526s.854 6.92 3.46 9.479c2.606 2.56 6.066 3.46 9.525 3.46 3.46 0 6.92-.853 9.479-3.46 2.606-2.606 3.459-6.066 3.459-9.479 0-3.46-.853-6.919-3.459-9.526-2.607-2.559-6.066-4.313-9.479-4.313-3.458 0-6.918 1.754-9.525 4.313zM457.678 692.559c.854.854 1.706 2.606 1.706 3.46 0 1.706-.853 2.56-1.706 3.46-.853.853-2.606 1.706-3.46 1.706-1.706 0-2.606-.854-3.459-1.706-.854-.854-1.754-2.606-1.754-3.46 0-1.754.854-2.606 1.754-3.46.853-.853 2.606-1.753 3.459-1.753.9.047 2.607.9 3.46 1.753zm0 14.692v38.009h-7.772v-38.009h7.772zM473.223 707.251h7.772v3.46c1.754-3.46 4.313-5.166 8.626-5.166s6.919 1.706 6.919 6.019c.854-4.313 4.313-6.019 10.38-6.019 5.165 0 7.772 3.459 7.772 9.479v30.237h-7.772v-26.777c0-3.46-1.754-6.066-4.313-6.066-.853 0-2.606 0-3.459 1.706-.854.853-1.754 3.46-1.754 8.625v22.465h-7.772v-26.729c0-3.46-1.706-6.066-4.313-6.066-.853 0-2.606 0-3.459 1.706-.854.853-.854 2.606-1.706 6.019v25.023h-7.772v-38.009h.853v.093zM563.033 709.857v-2.606h7.772v38.009h-7.772v-5.165c-3.46 3.459-7.772 6.019-12.938 6.019-6.066 0-11.232-1.706-14.691-6.019-3.46-4.313-6.066-8.626-6.066-14.692s1.753-11.232 6.066-14.691c4.313-4.313 9.479-6.02 14.691-6.02 4.312-.901 8.626.853 12.938 5.165zm0 18.105v-6.02c-.853-2.606-1.754-4.313-3.46-6.919-2.606-2.606-6.066-3.46-9.479-3.46-3.46 0-6.919.854-9.526 3.46-2.606 2.606-3.459 6.066-3.459 9.479 0 3.46.853 6.92 3.459 9.479 2.607 2.606 6.066 3.46 9.526 3.46s6.92-.854 9.479-3.46c1.754-1.659 2.608-3.413 3.46-6.019zM618.294 709.857v-2.606h7.772v28.483c0 7.772-1.754 12.938-6.066 17.251a23.356 23.356 0 0 1-14.691 5.166c-6.02 0-11.232-1.706-14.692-5.166-.854-.853-2.606-2.606-4.313-5.166l7.772-2.606c.853.854 1.706 1.754 1.706 2.606 2.606 2.56 6.066 3.46 9.479 3.46 6.066 0 10.379-4.313 12.938-12.085-2.606 4.313-6.92 6.919-12.085 6.919-6.066 0-11.232-1.706-14.692-6.019-4.313-4.313-6.066-8.626-6.066-14.692s1.754-11.232 6.066-14.691c4.313-4.313 9.479-6.02 14.692-6.02 4.408-.9 8.768.854 12.18 5.166zm0 12.085c-.854-2.606-1.706-4.313-3.46-6.066-2.606-2.559-6.066-4.313-9.526-4.313-3.459 0-6.919 1.754-9.479 4.313-2.606 2.607-3.459 6.066-3.459 9.526s.853 6.92 3.459 9.479c2.607 2.56 6.066 3.46 9.479 3.46 3.46 0 6.92-.853 9.526-3.46 1.706-1.753 3.46-4.313 3.46-6.066v-6.873zM652.844 736.635c.853.854 3.46 1.754 6.919 1.754 3.46 0 6.92-.854 9.479-3.46 0 0 .853-.854 1.753-2.606l7.772 2.606c-1.706 2.56-3.46 4.313-4.313 5.166-4.313 4.313-9.479 6.019-14.692 6.019-6.066 0-10.379-1.706-14.691-6.019-4.313-4.313-6.066-9.479-6.066-14.692 0-5.166 1.706-11.232 6.066-14.691 4.313-4.313 9.479-6.02 14.691-6.02 5.166 0 9.479 1.706 12.938 4.313l1.706 1.707s.854.853 1.754 2.606l-3.46 4.313-19.856 19.004zm12.938-24.171c-.854-.853-2.606-.853-6.02-.853-3.459 0-6.919.853-9.479 3.459-2.606 2.607-3.459 6.066-3.459 9.479 0 2.606 0 5.165.853 6.066l18.105-18.151z"/></svg>