<?xml version="1.0" encoding="utf-8"?>
<!-- Generator: Adobe Illustrator 25.1.0, SVG Export Plug-In . SVG Version: 6.00 Build 0)  -->
<svg version="1.1" id="Capa_1" xmlns="http://www.w3.org/2000/svg" xmlns:xlink="http://www.w3.org/1999/xlink" x="0px" y="0px"
	 viewBox="0 0 512 512" style="enable-background:new 0 0 512 512;" xml:space="preserve">
<style type="text/css">
	.st0{fill:url(#SVGID_1_);}
	.st1{opacity:0.1;fill:#1E1E1E;enable-background:new    ;}
	.st2{fill:#FFFFFF;}
	.st3{fill:#4BC9C7;}
	.st4{fill:#1E1E1E;}
	.st5{fill:none;stroke:#1E1E1E;stroke-width:10;stroke-linejoin:round;stroke-miterlimit:10;}
</style>
<g>
	
		<linearGradient id="SVGID_1_" gradientUnits="userSpaceOnUse" x1="-25.4309" y1="317.5413" x2="524.1671" y2="180.1423" gradientTransform="matrix(1 0 0 -1 0 514)">
		<stop  offset="0" style="stop-color:#D2DEFF;stop-opacity:0"/>
		<stop  offset="1" style="stop-color:#4BC9C7"/>
	</linearGradient>
	<path class="st0" d="M382.6,171.5c-0.2,0-0.4,0-0.6,0c-32-0.1-62.4-13.8-83.4-38c-31.4-36-77.6-58.6-129.1-58.4
		C76,75.6-1.2,154.1,0,247.6c1.2,93,77,168,170.2,168c26.3,0,51.3-6,73.5-16.7c19.2-9.2,42.1-6.8,59,6.2
		c21.9,16.7,49.2,26.7,78.8,26.8c71.4,0.1,130-58,130.4-129.4C512.4,230.4,454.6,171.9,382.6,171.5L382.6,171.5z"/>
	<path class="st1" d="M391,31.4h-220c-8.3,0-15,6.7-15,15v34.1h-41.9c-8.3,0-15,6.7-15,15v344.2c0,8.3,6.7,15,15,15h220
		c8.3,0,15-6.7,15-15v-34.1H391c8.3,0,15-6.7,15-15V46.4C406,38.1,399.3,31.4,391,31.4L391,31.4z"/>
	<path class="st2" d="M349.1,116.5v344.2c0,8.3-6.7,15-15,15h-220c-8.3,0-15-6.7-15-15V116.5c0-8.3,6.7-15,15-15h220
		C342.4,101.5,349.1,108.2,349.1,116.5L349.1,116.5z"/>
	<path class="st3" d="M324.7,348V224c0-1.7-1.3-3-3-3h-195c-1.7,0-3,1.3-3,3v124c0,1.7,1.3,3,3,3h195
		C323.3,351,324.7,349.6,324.7,348z"/>
	<path class="st2" d="M349.1,149.6v-33.2c0-8.3-6.7-15-15-15h-220c-8.3,0-15,6.7-15,15v33.2H349.1z"/>
	<path class="st2" d="M406,67.4v344.2c0,8.3-6.7,15-15,15h-220c-8.3,0-15-6.7-15-15V67.4c0-8.3,6.7-15,15-15h220
		C399.3,52.4,406,59.1,406,67.4z"/>
	<path class="st2" d="M156.1,224v187.5c0,8.3,6.7,15,15,15h220c8.3,0,15-6.7,15-15V224H156.1z"/>
	<path class="st2" d="M406,100.5V67.4c0-8.3-6.7-15-15-15h-220c-8.3,0-15,6.7-15,15v33.2L406,100.5z"/>
	<g>
		<path class="st4" d="M401,95.5v316c0,5.5-4.5,10-10,10h-220c-5.5,0-10-4.5-10-10V177.2c0-2.8-2.2-5-5-5s-5,2.2-5,5v234.4
			c0,11,9,20,20,20h173v29.1c0,5.5-4.5,10-10,10h-48c-2.8,0-5,2.2-5,5s2.2,5,5,5h48c11,0,20-9,20-20v-29.1H391c11,0,20-9,20-20V67.4
			c0-11-9-20-20-20h-220c-11,0-20,9-20,20v29.1h-36.9c-11,0-20,9-20,20v344.2c0,11,9,20,20,20h144.4c2.8,0,5-2.2,5-5s-2.2-5-5-5
			H114.2c-5.5,0-10-4.5-10-10v-306h51.9c2.8,0,5-2.2,5-5V95.5h0V67.4c0-5.5,4.5-10,10-10h220c5.5,0,10,4.5,10,10L401,95.5
			 M151.1,144.6h-46.9v-28.2c0-5.5,4.5-10,10-10h36.9V144.6z"/>
	</g>
	<g>
		<path class="st4" d="M233.3,362.7h-46.6c-2.8,0-5-2.2-5-5s2.2-5,5-5h46.6c2.8,0,5,2.2,5,5S236.1,362.7,233.3,362.7z"/>
		<path class="st4" d="M233.3,335.9h-46.6c-2.8,0-5-2.2-5-5s2.2-5,5-5h46.6c2.8,0,5,2.2,5,5S236.1,335.9,233.3,335.9z"/>
		<path class="st4" d="M233.3,380.5h-46.6c-2.8,0-5-2.2-5-5s2.2-5,5-5h46.6c2.8,0,5,2.2,5,5S236.1,380.5,233.3,380.5z"/>
		<path class="st4" d="M233.3,398.3h-46.6c-2.8,0-5-2.2-5-5s2.2-5,5-5h46.6c2.8,0,5,2.2,5,5S236.1,398.3,233.3,398.3z"/>
		<path class="st4" d="M304,362.7h-46.6c-2.8,0-5-2.2-5-5s2.2-5,5-5H304c2.8,0,5,2.2,5,5S306.8,362.7,304,362.7z"/>
		<path class="st4" d="M304,335.9h-46.6c-2.8,0-5-2.2-5-5s2.2-5,5-5H304c2.8,0,5,2.2,5,5S306.8,335.9,304,335.9z"/>
		<path class="st4" d="M304,380.5h-46.6c-2.8,0-5-2.2-5-5s2.2-5,5-5H304c2.8,0,5,2.2,5,5S306.8,380.5,304,380.5z"/>
		<path class="st4" d="M304,398.3h-46.6c-2.8,0-5-2.2-5-5s2.2-5,5-5H304c2.8,0,5,2.2,5,5S306.8,398.3,304,398.3z"/>
		<path class="st4" d="M374.7,362.7h-46.6c-2.8,0-5-2.2-5-5s2.2-5,5-5h46.6c2.8,0,5,2.2,5,5S377.5,362.7,374.7,362.7z"/>
		<path class="st4" d="M374.7,335.9h-46.6c-2.8,0-5-2.2-5-5s2.2-5,5-5h46.6c2.8,0,5,2.2,5,5S377.5,335.9,374.7,335.9z"/>
		<path class="st4" d="M374.7,380.5h-46.6c-2.8,0-5-2.2-5-5s2.2-5,5-5h46.6c2.8,0,5,2.2,5,5S377.5,380.5,374.7,380.5z"/>
		<path class="st4" d="M374.7,398.3h-46.6c-2.8,0-5-2.2-5-5s2.2-5,5-5h46.6c2.8,0,5,2.2,5,5S377.5,398.3,374.7,398.3z"/>
	</g>
	<path class="st3" d="M450,170.6c-1.3,0-2.6-0.5-3.5-1.5l-11-11c-2-2-2-5.1,0-7.1l11-11c2-2,5.1-2,7.1,0l11,11c2,2,2,5.1,0,7.1
		l-11,11C452.5,170.1,451.3,170.6,450,170.6z M446,154.6l3.9,3.9l3.9-3.9l-3.9-3.9L446,154.6z"/>
	<path class="st3" d="M62,331.3c-1.3,0-2.6-0.5-3.5-1.5l-11-11c-2-2-2-5.1,0-7.1l11-11c2-2,5.1-2,7.1,0l11,11c2,2,2,5.1,0,7.1
		l-11,11C64.6,330.8,63.3,331.3,62,331.3z M58.1,315.2l3.9,3.9l3.9-3.9l-3.9-3.9L58.1,315.2z"/>
	<path class="st2" d="M439,245.3c-2.8,0-5-2.2-5-5c0-3.3-2.7-6-6-6c-2.8,0-5-2.2-5-5s2.2-5,5-5c3.3,0,6-2.7,6-6c0-2.8,2.2-5,5-5
		s5,2.2,5,5c0,3.3,2.7,6,6,6c2.8,0,5,2.2,5,5s-2.2,5-5,5c-3.3,0-6,2.7-6,6C444,243.1,441.7,245.3,439,245.3z"/>
	<path class="st3" d="M123.6,78.1c-2.8,0-5-2.2-5-5c0-3.3-2.7-6-6-6c-2.8,0-5-2.2-5-5s2.2-5,5-5c3.3,0,6-2.7,6-6c0-2.8,2.2-5,5-5
		s5,2.2,5,5c0,3.3,2.7,6,6,6c2.8,0,5,2.2,5,5s-2.2,5-5,5c-3.3,0-6,2.7-6,6C128.6,75.8,126.4,78.1,123.6,78.1z"/>
</g>
<rect x="281.1" y="125.5" class="st3" width="19.1" height="120.3"/>
<polyline class="st5" points="365.7,53.2 370.4,86.6 406,92.3 "/>
<path class="st4" d="M272.8,304.3c-3.4,0-6.5-2.3-7.4-5.6l-4.2-14.7c-5.5-1.5-10.7-3.7-15.7-6.5l-13.4,7.4c-1.1,0.6-2.4,1-3.7,1
	c-2,0-4-0.8-5.4-2.2L211.4,272c-2.4-2.4-2.9-6.2-1.3-9.2l7.4-13.4c-2.8-5-4.9-10.2-6.5-15.7l-14.7-4.2c-3.3-0.9-5.6-4-5.6-7.4v-16.5
	c0-3.4,2.3-6.5,5.6-7.4l14.7-4.2c1.5-5.4,3.7-10.7,6.5-15.7l-7.4-13.4c-1.7-3-1.1-6.8,1.3-9.2l11.7-11.7c1.4-1.4,3.4-2.2,5.4-2.2
	c1.3,0,2.6,0.3,3.7,1l13.4,7.5c3.4-1.9,7-3.6,10.7-4.9v-29.2c0-2.5,0.6-5.1,1.6-7.4l13.3-28.5c1.8-3.9,5.6-6.3,9.9-6.3
	c4.3,0,8.1,2.4,9.9,6.3l13.3,28.5c1.1,2.3,1.6,4.8,1.6,7.4v29.2c3.7,1.3,7.3,3,10.7,4.9l13.4-7.4c1.1-0.6,2.4-1,3.7-1
	c2,0,4,0.8,5.4,2.2l11.7,11.7c2.4,2.4,2.9,6.2,1.3,9.2l-7.5,13.4c2.8,4.9,4.9,10.2,6.5,15.7l14.7,4.2c3.3,0.9,5.6,4,5.6,7.4v16.5
	c0,3.4-2.3,6.5-5.6,7.4l-14.7,4.2c-1.5,5.5-3.7,10.7-6.5,15.7l7.4,13.4c1.7,3,1.1,6.7-1.3,9.2l-11.7,11.7c-1.4,1.4-3.4,2.2-5.4,2.2
	c0,0,0,0,0,0c-1.3,0-2.6-0.3-3.7-1l-13.4-7.5c-4.9,2.8-10.2,5-15.7,6.5l-4.2,14.7c-0.9,3.3-4,5.6-7.4,5.6H272.8z M288.6,295.7
	l4.7-16.4c0.4-1.5,1.6-2.6,3.1-3c6.3-1.5,12.3-4,17.9-7.4c0.7-0.4,1.4-0.6,2.2-0.6c0.7,0,1.5,0.2,2.1,0.5l14.9,8.3l10.7-10.7
	l-8.3-14.9c-0.7-1.3-0.7-3,0.1-4.3c3.4-5.6,5.9-11.6,7.4-17.9c0.4-1.5,1.5-2.7,3-3.1l16.4-4.7v-15.1l-16.4-4.7
	c-1.5-0.4-2.6-1.6-3-3.1c-1.5-6.3-4-12.3-7.4-17.9c-0.8-1.3-0.8-3-0.1-4.3l8.3-14.9l-10.7-10.7l-14.9,8.3c-0.6,0.4-1.4,0.5-2.1,0.5
	c-0.8,0-1.6-0.2-2.2-0.6c-2.7-1.6-5.5-3.1-8.4-4.3V183c9.5,7.6,14.9,18.8,14.9,31c0,21.9-17.8,39.7-39.7,39.7s-39.7-17.8-39.7-39.7
	c0-11.9,5.6-23.5,14.9-31v-28.2c-2.9,1.2-5.7,2.7-8.4,4.3c-0.7,0.4-1.5,0.6-2.2,0.6c-0.7,0-1.5-0.2-2.1-0.5l-14.9-8.3l-10.7,10.7
	l8.3,14.9c0.8,1.3,0.7,3-0.1,4.3c-3.4,5.6-5.9,11.6-7.4,17.9c-0.4,1.5-1.5,2.7-3,3.1l-16.4,4.7v15.1l16.4,4.7c1.5,0.4,2.6,1.6,3,3.1
	c1.5,6.3,4,12.3,7.4,17.9c0.8,1.3,0.8,3,0.1,4.3l-8.3,14.9l10.7,10.7l14.9-8.3c0.6-0.4,1.4-0.5,2.1-0.5c0.8,0,1.6,0.2,2.2,0.6
	c5.6,3.4,11.6,5.9,17.9,7.4c1.5,0.4,2.7,1.5,3.1,3l4.7,16.4H288.6z M256.3,195.2c-4.1,5.4-6.3,12-6.3,18.7
	c0,15.6,11.4,28.7,26.8,30.8V142.5c0-2.4,1.9-4.3,4.3-4.3s4.3,1.9,4.3,4.3v102.2c4.2-0.6,8.3-2,11.9-4.3V130.7
	c-1.2,0.2-2.4,0.3-3.6,0.3c-4,0-7.8-1.1-11.2-3.2c-0.4-0.3-0.9-0.4-1.4-0.4c-0.4,0-0.8,0.1-1.2,0.3c-3.4,2.2-7.3,3.3-11.3,3.3
	c-1.2,0-2.4-0.1-3.6-0.3v93.9c0,2.4-1.9,4.3-4.3,4.3c-2.4,0-4.3-1.9-4.3-4.3V195.2z M305.8,232.7c4.1-5.4,6.3-11.9,6.3-18.8
	c0-6.9-2.2-13.4-6.3-18.8V232.7z M281,118.8c2.1,0,4.2,0.6,6,1.7c2,1.2,4.3,1.9,6.6,1.9c1.2,0,2.5-0.2,3.6-0.5v-5.6
	c0-1.3-0.3-2.6-0.8-3.8l-3.9-8.4c-3.5,1.8-7.5,2.8-11.4,2.8c-3.9,0-7.9-0.9-11.4-2.8l-3.9,8.4c-0.5,1.2-0.8,2.5-0.8,3.8v5.6
	c1.2,0.4,2.4,0.5,3.6,0.5c2.4,0,4.7-0.7,6.7-2C276.9,119.4,278.9,118.8,281,118.8z M273.3,96.3c2.4,1.3,5,2,7.8,2
	c2.7,0,5.4-0.7,7.8-2l-5.7-12.3c-0.6-1.2-1.7-1.3-2.1-1.3s-1.5,0.1-2.1,1.3L273.3,96.3z"/>
<path class="st3" d="M290.2,96.7c-2.7,1.7-5.9,2.5-9.1,2.5c-3.3,0-6.4-0.9-9.1-2.5l6.1-13.1c0.8-1.8,2.5-1.9,3-1.9
	c0.5,0,2.2,0.1,3,1.9L290.2,96.7z"/>
</svg>
