<svg xmlns="http://www.w3.org/2000/svg" width="300" height="122.994" viewBox="0 0 300 122.994"><g fill="#1D1D1D"><path d="M214.638 93.19c-15.502 0-30.251-2.225-35.771-3.805-4.978-1.421-9.334-6.465-13.317-15.423-1.92-4.313-3.725-9.408-5.317-13.902l-.709-1.999c-.3-.837-.628-1.778-.975-2.771-1.47-4.202-3.927-11.235-4.974-12.147-.461-.405-1.367-.627-2.554-.627-.802 0-1.439.103-1.446.104l-.145.023-.145-.024c-.006 0-.645-.104-1.449-.104-1.192 0-2.106.223-2.573.628-1.028.909-3.494 7.958-4.966 12.168-.345.985-.671 1.919-.968 2.751l-.611 1.722c-1.623 4.583-3.461 9.777-5.416 14.178-3.982 8.956-8.336 14-13.31 15.423-5.533 1.58-20.291 3.805-35.781 3.805-2.122 0-4.207-.044-6.195-.13-12.292-.525-23.623-2.377-33.677-5.5-5.798-1.801-8.243-5.298-11.063-10.041-2.918-4.943-7.335-14.316-8.601-17.212-.43-.982-.975-2.716-1.606-4.726-1.147-3.653-2.882-9.173-4.162-10.246-2.101-1.745-4.752-4.828-5.032-5.681-.173-.507-.884-2.297-.892-2.315l-.048-.12-.011-.128a334.494 334.494 0 0 1-.447-5.76c-.088-1.22-.176-2.439-.271-3.658l-.016-.203c-.408-5.17-.678-8.586 5.876-10.175 12.887-3.124 27.52-4.708 43.494-4.708 1.729 0 3.488.02 5.228.058 25.25.557 51.904 5.801 56.546 7.514 5.035 1.869 16.705 5.815 20.089 6.523 2.248.477 4.193.547 5.152.547.492 0 .779-.018.795-.019l.058-.003.061.003c.016.001.301.019.792.019.956 0 2.898-.071 5.153-.547 3.36-.705 15.197-4.707 20.078-6.521 4.641-1.713 31.291-6.958 56.558-7.515 1.123-.025 2.285-.038 3.456-.038 4.7 0 9.889.201 15.861.613 8.036.554 16.154 1.814 24.004 3.034 1.512.234 3.023.469 4.532.699 3.029.46 4.937 1.393 6.005 2.934 1.381 1.991 1.123 4.573.797 7.843-.068.686-.208 1.403-.268 2.151-.219 2.765-.223 5.044-.665 7.169v.13l-.001.172c-.35.878-.734 1.946-.859 2.31-.267.834-2.898 3.92-5.01 5.673-1.28 1.071-3.006 6.592-4.151 10.246-.632 2.008-1.171 3.743-1.602 4.725-1.313 3.006-5.652 12.23-8.598 17.21-2.721 4.589-5.26 8.24-11.059 10.043-10.073 3.123-21.406 4.975-33.686 5.5-1.984.086-4.066.13-6.188.13zm18.422-72.653c-3.668 0-7.104.083-10.216.248-13.754.723-37.215 4.915-41.615 6.502-4.42 1.589-7.754 3.343-10.708 7.172l-.484.622c-2.792 3.589-4.193 5.391-3.707 10.037.536 5.25 5.496 23.786 7.371 27.549 1.861 3.719 4.724 7.785 11.834 9.736 5.359 1.473 15.775 2.959 26.961 2.959 2.62 0 5.149-.085 7.517-.253 12.633-.906 24.678-3.604 29.195-5.23 4.075-1.465 9.617-7.661 12.618-14.106 5.884-12.631 5.756-26.631 5.743-27.424a30.003 30.003 0 0 1-.083-1.422c-.11-2.5-.34-7.704-2.104-10.008l-.462-.608c-1.919-2.533-2.215-2.923-6.005-4.03-3.301-.962-14.899-1.744-25.855-1.744zM31.279 38.348c-.012.799-.126 14.796 5.756 27.423 2.997 6.446 8.533 12.642 12.606 14.107 4.527 1.626 16.583 4.324 29.208 5.23 2.367.168 4.896.253 7.517.253 11.19 0 21.604-1.486 26.96-2.959 7.1-1.951 9.96-6.018 11.823-9.738 1.872-3.731 6.831-22.266 7.371-27.545.485-4.642-.909-6.441-3.687-10.025l-.492-.636c-2.967-3.831-6.3-5.585-10.713-7.172-4.409-1.588-27.88-5.78-41.623-6.502-3.11-.164-6.547-.248-10.213-.248-10.955 0-22.555.782-25.855 1.743-3.783 1.105-4.121 1.55-5.996 4.02l-.47.618c-1.769 2.306-1.999 7.51-2.109 10.011-.027.606-.048 1.089-.083 1.42z"/><path d="M285.203 20.392c-.869-1.252-2.496-2.121-5.411-2.564-9.435-1.436-18.941-3.068-28.465-3.726-6.367-.439-12.854-.714-19.237-.573-24.761.546-51.35 5.643-56.269 7.459-4.908 1.825-16.748 5.833-20.204 6.558-3.46.731-6.187.546-6.187.546s-2.739.186-6.187-.546c-3.464-.725-15.294-4.733-20.213-6.558-4.923-1.816-31.5-6.914-56.26-7.459-15.9-.352-32.987.866-48.495 4.625-5.896 1.429-5.61 4.071-5.188 9.449.248 3.135.439 6.275.718 9.409 0 0 .725 1.823.911 2.367.181.552 2.572 3.462 4.76 5.279 2.179 1.825 4.733 12.376 6.01 15.295 1.273 2.912 5.647 12.196 8.552 17.115 2.925 4.919 5.285 8.008 10.565 9.646 5.276 1.64 16.52 4.737 33.453 5.463 16.935.733 35.318-1.821 41.694-3.642 6.364-1.821 10.558-10.014 12.745-14.933 2.183-4.913 4.189-10.738 6.001-15.838 1.821-5.097 4.746-14.014 6.187-15.289 1.467-1.275 4.746-.729 4.746-.729s3.275-.546 4.724.729c1.463 1.275 4.38 10.191 6.2 15.289 1.816 5.1 3.813 10.925 6.001 15.838 2.188 4.919 6.373 13.111 12.754 14.933 6.363 1.82 24.76 4.375 41.682 3.642 16.938-.726 28.177-3.823 33.462-5.463 5.276-1.639 7.645-4.728 10.562-9.646 2.907-4.919 7.278-14.203 8.552-17.115 1.276-2.918 3.826-13.47 6.009-15.295 2.188-1.816 4.58-4.727 4.756-5.279.186-.544.915-2.367.915-2.367.214-2.398.409-4.798.6-7.2.324-4.104 1.022-7.308-.443-9.42zM133.398 45.21c-.54 5.279-5.449 23.842-7.46 27.851-2.006 4.008-5.095 8.192-12.378 10.195-7.278 2.001-22.029 3.641-34.774 2.734-12.745-.914-24.894-3.646-29.445-5.28-4.556-1.639-10.191-8.293-13.107-14.565-6.19-13.291-5.837-27.853-5.837-27.853.186-1.641 0-8.817 2.373-11.912 2.369-3.095 2.55-3.672 6.92-4.949 4.367-1.27 22.525-2.258 36.362-1.529 13.832.727 37.324 4.914 41.876 6.553 4.552 1.638 8.011 3.46 11.113 7.464 3.088 4.006 4.909 6.013 4.357 11.291zm129.229 20.935c-2.921 6.272-8.561 12.927-13.12 14.565-4.544 1.635-16.688 4.366-29.433 5.28-12.745.906-27.491-.733-34.773-2.734-7.296-2.003-10.385-6.188-12.391-10.195-1.997-4.009-6.921-22.572-7.461-27.851-.552-5.278 1.27-7.285 4.371-11.291 3.09-4.003 6.555-5.826 11.109-7.464 4.543-1.639 28.035-5.826 41.867-6.553 13.84-.729 31.999.259 36.365 1.529 4.371 1.277 4.556 1.854 6.921 4.949 2.368 3.094 2.183 10.271 2.368 11.912.001 0 .368 14.562-5.823 27.853z"/></g><path fill="#1D1D1D" d="M151.655 114.821l-2.859-6.185H137.49l12.307-27.323 13.84 30.415h7.15l-20.836-46.046-.264-.632-.261.554-21.813 48.596-.184.621h.312z"/></svg>