<?xml version="1.0" encoding="utf-8"?>
<!-- Generator: Adobe Illustrator 16.0.0, SVG Export Plug-In . SVG Version: 6.00 Build 0)  -->
<!DOCTYPE svg PUBLIC "-//W3C//DTD SVG 1.1//EN" "http://www.w3.org/Graphics/SVG/1.1/DTD/svg11.dtd">
<svg version="1.1" id="mogitan" xmlns="http://www.w3.org/2000/svg" xmlns:xlink="http://www.w3.org/1999/xlink" x="0px" y="0px"
	 width="621.385px" height="838px" viewBox="178.115 0 621.385 838" enable-background="new 178.115 0 621.385 838"
	 xml:space="preserve">
<g id="イラストver1.1">
	<path id="ベース色" fill="#D3D3D3" d="M272.431,128.236c16.759,39.335,65.422,30.952,97.124,47.758
		c26.501,14.053,44.569,35.438,66.592,67.576c4.638,5.86-3.27,24.658-6.652,31.076c-5.699,10.799-17.644,18.597-25.51,28.97
		c-6.366,8.396-12.497,19.042-19.432,28.695c-6.801,9.47-14.315,20.105-18.246,29.463c-9.476,22.558-17.217,57.772-1.662,97.5
		c4.322,11.041,21.615,29.71,30.292,36.475c22.313,17.423,66.895,26.649,100.417,29.671c40.708,3.675,82.396-2.984,124.748-14.387
		c43.329-11.661,83.316-22.078,111.774-46.382c35.396-30.225,55.188-97.198,16.64-151.829
		c-45.337-64.254-112.387-90.278-189.635-102.638c-6.452-34.452-20.836-60.369-38.575-84.812
		c-32.723-45.077-66.85-90.263-127.758-95.408c-22.202-1.871-46.122,2.902-31.585,29.247
		c31.909,50.128,112.436,52.943,133.333,116.713c6.057,18.482,7.146,36.789,4.999,52.105c-6.953,19.811-18.425-2.433-27.022-11.609
		c-7.946-8.477-14.671-14.146-19.475-19.357c-13.269-14.375-24.173-31.054-36.645-42.275c-16.735-15.055-43.999-25.733-64.585-34.26
		c-23.851-9.874-48.244-19.039-76.261-12.335C272.593,113.731,270.274,119.534,272.431,128.236z M258.896,744.043
		c-0.59-2.665-1.033-5.368-1.445-8.062c-4.262-27.868-4.005-55.743,2.288-83.314c5.828-25.537,16.164-50.326,32.48-77.919
		c-0.186-0.894-0.387-1.797-0.625-2.72c2.306-7.486,6.472-13.786,11.117-19.759c0.797,0.009,1.587-0.004,2.37-0.029
		c9.942-14.948,20.919-30.466,35.408-43.588c-0.16-0.721-0.33-1.445-0.527-2.179c8.83-7.204,15.252-15.959,25.995-21.916
		c8.436,10.815,17.442,21.808,28.41,27.675c22.217,11.9,53.47,19.946,85.055,24.771c54.544,8.327,110.189-1.784,168.403-20.646
		c24.563,31.635,31.884,86.998,35.265,131.534c3.503,46.106,4.844,91.334-13.127,120.402c-9.512-9.717-19.503-23.545-31.896-39.201
		c-7.886-9.961-26.479-39.304-40.981-29.076c-0.076,15.815,15.291,41.979,8.418,58.532c-13.561-19.385-29.704-34.78-56.344-33.977
		c-2.848-17.532-9.798-25.023-16.392-38.422c-20.503-41.676-40.936-68.478-72.937-87.695c-7.414-4.449-25.243-12.184-30.173,2.357
		c4.475,5.773,11.811,3.398,17.527,5.458c7.688,2.775,18.813,11.473,27.507,18.664c28.063,23.229,52.995,71.229,60.491,110.806
		c11.07,6.582,26.316-1.503,36.176,6.586c4.488,3.684,11.953,15.361,12.487,24.941c0.422,7.568-9.56,20.827-16.917,26.111
		c-12.482,8.967-35.278,12.783-58.817,16.658c-22.425,3.688-45.652,8.692-64.192,10.649c-29.159,3.082-58.828,0.004-83.391-2.63
		c-10.226-1.098-19.994,0.805-28.636-0.018c-24.905-2.367-37.69-14.105-52.783-31.669c-9.253-10.764-15.902-25.265-19.534-38.773
		C259.295,746.352,259.08,745.181,258.896,744.043z"/>
	<g id="しっぽ_1_">
		<path id="しっぽ" fill="#C9C9C9" d="M198.584,763.895c0.466,0.279,0.951,0.538,1.444,0.786
			c3.571,21.621,15.351,37.744,28.992,45.688c13.813-5.65,24.468-13.358,33.048-22.4c-7.166-9.234-12.387-21.484-16.85-34.899
			c0.374-0.503,0.729-1.007,1.051-1.522l1.098-1.771l-1.273-1.648c-5.932-7.662-21.787-10.274-32.875-7.905
			c-12.284,2.625-18.274,10.739-16.026,21.704l0.263,1.288L198.584,763.895z"/>
		<path id="しっぽ_2_" fill="#FFFFFF" d="M214.625,798.811l-1.3-1.49l-0.517-2.473c-4.405-21.057,0.299-35.196,12.582-37.82
			c11.087-2.37,28.073,5.532,35.687,21.069l1.637,3.34l-0.81,3.126c-3.179,12.263-11.8,21.299-22.496,23.585
			C230.366,810.08,221.564,806.763,214.625,798.811z"/>
	</g>
	<path id="足" fill="#FFFFFF" d="M555.537,807.061c-50.509,20.631-230.839,20.375-230.839,20.375s-35.031-0.933-32.816-24.365
		c5.816-61.495,101.949-27.921,101.949-27.921c116.688,7.741,159.057-33.655,159.057-33.655
		C593.093,728.125,606.047,786.432,555.537,807.061z"/>
	<path id="おなか" fill="#FFFFFF" d="M630.68,736.493l-20.363,35.029l-52.089-43.515l-44.003-83.438
		c0,0,43.354-30.74,102.079-5.454c58.724,25.287,61.719,126.537,61.719,126.537L630.68,736.493z"/>
	<g id="耳">
		<path fill="#FFFFFF" d="M438.396,241.741l-7.234-1.448c-7.098-1.421-13.669-6.471-20.023-11.354
			c-3.757-2.884-7.641-5.869-11.479-7.971c-10.838-5.934-23.703-11.261-37.322-16.903c-15.585-6.453-31.7-13.127-46.561-21.431
			c-16.57-9.26-45.19-29.378-50.696-60.087l5.711-1.705c10.357,24.308,33.527,29.303,58.057,34.59
			c12.974,2.795,26.388,5.688,37.714,11.692c27.193,14.417,45.402,36.045,67.661,68.53L438.396,241.741z"/>
		<path fill="#FFFFFF" d="M500.417,232.991l-3.563-7.555c-10.427-17.643-22.635-31.674-36.356-46.891
			c-2.024-2.245-3.992-4.521-5.894-6.722c-4.207-4.866-8.182-9.462-12.639-13.646c-3.119-2.931-6.645-5.333-10.377-7.875
			c-3.925-2.67-7.979-5.433-11.631-8.916c-7.887-7.521-14.725-16.649-21.337-25.477c-3.483-4.649-7.084-9.457-10.806-13.991
			c-1.401-1.705-2.831-3.413-4.272-5.135c-10.03-11.982-16.78-26.028-21.692-42.49l0,0c13.668,21.472,38.081,33.061,62.039,46.192
			c30.164,16.532,61.354,33.628,73.397,70.384c5.697,17.382,7.694,39.749,5.301,56.836L500.417,232.991z"/>
	</g>
	<path id="あご" fill="#FFFFFF" d="M624.08,507.998l-1.618,0.489c-27.12,26.495-70.347,24.232-70.347,24.232
		c-223.174,18.035-192.854-128.658-192.854-128.658C430.693,500.38,550.102,508.864,624.08,507.998z"/>
	<g id="口">
		<g id="おちょぼ">
			
				<linearGradient id="SVGID_1_" gradientUnits="userSpaceOnUse" x1="83.2283" y1="566.6445" x2="83.2283" y2="538.8458" gradientTransform="matrix(-0.9891 0.147 -0.147 -0.9891 771.7208 869.4813)">
				<stop  offset="0" style="stop-color:#FFFFFF"/>
				<stop  offset="0.3726" style="stop-color:#FDFDFD"/>
				<stop  offset="0.5069" style="stop-color:#F6F6F6"/>
				<stop  offset="0.6026" style="stop-color:#EBEBEB"/>
				<stop  offset="0.68" style="stop-color:#DADADA"/>
				<stop  offset="0.7463" style="stop-color:#C4C4C4"/>
				<stop  offset="0.805" style="stop-color:#A8A8A8"/>
				<stop  offset="0.8581" style="stop-color:#888888"/>
				<stop  offset="0.9069" style="stop-color:#626262"/>
				<stop  offset="0.9523" style="stop-color:#373737"/>
				<stop  offset="0.9926" style="stop-color:#090909"/>
				<stop  offset="1" style="stop-color:#000000"/>
			</linearGradient>
			<path fill="url(#SVGID_1_)" d="M610.889,351.566l-18.298-8.768c23.37,4.193,32.646-4.945,32.646-4.945L610.889,351.566z"/>
			<path d="M648.4,400.037l-0.142,0.016c-2.531,0.292-5.236,0.55-7.883,0.455c-2.837-0.104-5.517-0.443-7.963-1.009
				c-2.661-0.615-4.966-1.732-7.197-2.81l-0.338-0.164c-0.382-0.184-0.769-0.366-1.156-0.548c-2.001-0.938-4.068-1.909-5.948-3.436
				c-0.728-0.589-1.37-1.251-1.952-1.926c-0.403,0.626-0.819,1.252-1.243,1.877l-0.289,0.429c-1.357,2.015-2.761,4.098-4.704,5.892
				c-2.044,1.885-4.377,3.328-6.595,4.604c-0.495,0.285-0.987,0.586-1.485,0.889c-1.622,0.989-3.46,2.109-5.588,2.841
				c-1.576,0.542-3.321,1.016-5.338,1.447c-0.46,0.098-0.922,0.192-1.37,0.278c-0.382,0.252-0.762,0.375-1.039,0.434l-0.184,0.033
				c-4.604,0.685-8.93-2.75-9.851-7.818c-0.902-4.97,1.972-9.628,6.549-10.606l0.256-0.051c0.627-0.114,1.248-0.219,1.862-0.324
				c1.098-0.187,2.139-0.364,3.118-0.574c1.704-0.364,2.891-0.756,3.851-1.273c2.552-1.376,4.394-3.751,6.004-6.113
				c1.8-2.64,2.998-5.385,3.467-7.938c0.518-2.822,0.644-5.389,0.617-7.192l-1.696-0.821c-1.923-0.932-2.745-1.33-5.9-2.815
				c-2.183-1.026-3.261-1.564-4.341-2.1c-1.048-0.522-2.099-1.045-4.219-2.042c-4.387-2.066-6.2-7.483-4.038-12.077
				c1.201-2.554,3.417-4.345,6.078-4.913c1.882-0.402,3.83-0.165,5.636,0.685c1.996,0.939,3.007,1.385,4.016,1.831
				c1.043,0.461,2.087,0.921,4.149,1.892c1.748,0.824,2.833,1.636,3.625,2.23c1.086,0.814,1.342,1.006,3.151,0.953
				c0.434-0.012,0.693-0.051,0.833-0.081c0.124-0.026,0.169-0.049,0.169-0.049l0,0c0.09-0.056,0.356-0.362,0.551-0.587
				c0.504-0.576,1.189-1.368,2.313-2.251c1.115-0.877,1.536-1.362,2.067-1.976c0.621-0.718,1.325-1.531,2.893-2.764
				c1.506-1.185,2.396-1.702,3.179-2.157c0.702-0.409,1.309-0.76,2.484-1.686c1.128-0.888,2.448-1.511,3.816-1.804
				c3.273-0.7,6.594,0.498,8.661,3.126c1.454,1.846,2.171,4.267,1.967,6.64c-0.215,2.507-1.384,4.714-3.289,6.212
				c-1.419,1.118-2.189,1.623-2.936,2.112c-0.666,0.438-1.297,0.851-2.514,1.808c-1.215,0.956-1.763,1.472-2.345,2.019
				c-0.649,0.611-1.323,1.243-2.745,2.361l-1.646,1.29c-0.958,0.747-1.459,1.138-2.62,2.095c0.548,1.65,1.547,4.05,2.977,6.833
				c1.309,2.543,2.833,5.151,5.104,6.993c1.337,1.085,3.179,1.751,5.129,2.456c1.979,0.715,3.771,1.319,5.679,1.464
				c0.983,0.075,2.142-0.133,3.48-0.374c0.822-0.148,1.672-0.301,2.586-0.407c4.743-0.549,9.094,3.232,9.696,8.429
				c0.545,4.716-2.236,8.827-6.623,9.816c-0.203,0.094-0.419,0.166-0.642,0.213L648.4,400.037z"/>
		</g>
		<path id="口内色" display="none" fill="#FCD9E1" d="M522.13,354.04c22.784,3.691,52.268,14.846,77.658,14.083
			c16.602-0.5,27.85-10.931,45.894-14.92c3.749,15.151-6.409,38.438-16.089,44.341c-6.487,3.953-26.068,7.013-38.138,8.15
			c-31.998,3.003-64.444-22.019-70.304-51.445C521.035,353.702,521.706,352.965,522.13,354.04z"/>
		<path id="ノーマル" display="none" d="M613.598,420.675c-6.885,1.472-14.58,2.319-22.872,2.523
			c-24.782,0.606-49.618-9.321-66.436-26.559c-15.378-15.763-22.925-35.939-21.821-58.353l0.042-0.828l0.617-0.557
			c2.039-1.843,4.24-3.026,6.546-3.519c2.333-0.499,4.764-0.29,7.224,0.62c19.819,7.345,63.407,20.348,86.521,16.987
			c0.87-0.126,1.757-0.287,2.636-0.475c5.256-1.123,9.906-3.149,15.294-5.496c5.512-2.399,11.745-5.115,19.599-7.15
			c1.287-0.92,2.05-2.337,2.854-3.832c1.233-2.291,2.768-5.14,6.545-5.947c1.152-0.246,2.423-0.288,3.879-0.128
			c2.691,0.295,4.938,1.83,6.676,4.562c7.037,11.05,3.975,40.115,2.098,45.637c-7.873,23.184-24.029,37.092-49.395,42.514
			C613.603,420.674,613.601,420.675,613.598,420.675z M625.813,362.543c-5.993,2.697-11.653,5.245-18.031,6.607
			c-2.688,0.575-5.283,0.893-7.934,0.971c-16.858,0.507-34.985-4.027-52.518-8.412c-8.385-2.098-16.342-4.088-23.66-5.379
			c7.094,28.229,38.004,50.15,67.596,47.373c7.956-0.75,16.839-2.081,23.766-3.561c8.215-1.755,11.887-3.312,13.521-4.307
			c8.774-5.351,17.743-26.313,15.577-40.209C637.34,357.353,631.489,359.987,625.813,362.543z"/>
	</g>
	<g id="目">
		<g id="模様">
			<path fill="#E8E8E8" d="M495.598,301.103c-0.872-3.271-0.905-6.537-0.1-9.443c2.392-8.64,11.765-12.095,14.58-12.949l0.124-0.038
				l0.127-0.02c15.32-2.314,21.005,9.976,21.604,11.388c1.907,4.505,2.464,9.581,1.568,14.293
				c-1.439,7.569-6.485,13.545-12.856,15.228c-0.342,0.089-0.682,0.17-1.024,0.244C508.507,322.181,499.301,315.015,495.598,301.103
				z"/>
			<path fill="#E5E5E5" d="M641.212,294.877c-2.441-4.702-3.755-10.864-3.797-17.822c-0.067-11.117,5.412-17.093,16.288-17.768
				l0.232-0.015l0.233,0.059c5.095,1.263,10.732,3.592,13.909,11.286c1.729,4.185,2.481,9.29,2.229,15.258
				c-0.779,15.687-13.093,17.664-16.849,17.898C650.049,303.988,644.797,301.784,641.212,294.877z"/>
		</g>
		<g id="うれしい_1_" display="none">
			
				<polyline display="inline" fill="none" stroke="#000000" stroke-width="14" stroke-linecap="round" stroke-linejoin="round" stroke-miterlimit="10" points="
				513.723,319.611 546,297.514 506.159,284.226 			"/>
			
				<polyline display="inline" fill="none" stroke="#000000" stroke-width="13" stroke-linecap="round" stroke-linejoin="round" stroke-miterlimit="10" points="
				665.786,302.374 628.354,291.016 662.348,266.353 			"/>
		</g>
		<g id="悲しい" display="none">
			<g display="inline">
				<path d="M512.379,303.431c-1.317-3.445-0.281-7.652-0.1-11.379c0.026-0.647-4.605-1.646-4.498-2.286
					c0.327-4.554,3.74-8.596,5.144-11.727c1.839-4.102,5.764-6.333,8.839-8.221c3.402-2.088,7.54-7.139,11.563-6.853
					c3.798,0.271,5.979,7.96,9.513,10.041c3.31,1.945,11.292-0.368,13.702,2.913c2.258,3.072,1.377,9.079,2.298,13.116
					c0.824,3.607-1.309,7.576-1.956,11.802c-0.548,3.578-2.433,6.574-4.284,10.501c-2.021,4.29-4.436,5.982-9.099,7.284
					c-4.256,1.189-7.693,0.427-12.339-0.988c-4.312-1.313-8.655-1.489-11.866-5.134
					C518.084,310.903,514.122,308.001,512.379,303.431z"/>
			</g>
			<g display="inline">
				<path d="M650.42,306.625c-3.468,3.084-9.367,2.084-12.798,2.828c-4.069,0.881-8.106,0.67-11.755-0.98
					c-3.475-1.572-3.265-7.215-6-10.356c-2.555-2.933-4.527-5.048-6.146-8.749c-1.614-3.693-7.528-5.964-7.93-9.848
					c-0.423-4.104-2.286-9.514-1.032-13.171c1.276-3.72,9.137-3.079,12.493-5.629c3.961-3.01,6.063-4.454,9.946-4.695
					c4.356-0.271,6.437,1.612,10.234,3.805c3.654,2.11,7.854,2.55,10.553,5.96c2.767,3.5,10.261,5.327,11.559,9.171
					c0.876,3.43,1.267,7.802,1.21,10.63c-0.064,3.181-6.181,5.611-6.277,8.769C651.988,298.202,653.004,304.325,650.42,306.625z"/>
			</g>
			
				<ellipse transform="matrix(-1 0.0058 -0.0058 -1 1292.8977 602.873)" display="inline" fill="#41BBF9" cx="645.574" cy="303.313" rx="32.092" ry="13.405"/>
			
				<ellipse transform="matrix(0.9779 -0.209 0.209 0.9779 -54.2106 117.4558)" display="inline" fill="#41BBF9" cx="528.755" cy="315.28" rx="32.092" ry="13.404"/>
		</g>
		<g id="ビックリ" display="none">
			<g display="inline">
				<polygon fill="#FCE03D" points="502.854,333.871 500.173,300.917 471.505,284.446 502.017,271.712 508.824,239.357 
					530.364,264.44 563.24,260.915 546.039,289.153 559.55,319.329 527.379,311.697 				"/>
				<path d="M512.193,252.489l15.675,18.251l23.923-2.565l-12.516,20.548l9.83,21.961l-23.407-5.554l-17.848,16.135l-1.952-23.98
					l-20.861-11.987l22.203-9.266L512.193,252.489 M505.456,226.224l-5.005,23.792l-3.655,17.371l-16.382,6.837l-22.438,9.365
					l21.082,12.114l15.391,8.842l1.44,17.693l1.974,24.235l18.037-16.307l13.166-11.904l17.271,4.098l23.658,5.612l-9.936-22.191
					l-7.253-16.202l9.234-15.16l12.646-20.767l-24.177,2.592l-17.651,1.893l-11.563-13.466L505.456,226.224L505.456,226.224z"/>
			</g>
			<g display="inline">
				<polygon fill="#FCE03D" points="680.432,303.672 649.795,291.242 622.189,309.434 624.541,276.455 598.707,255.819 
					630.8,247.867 642.443,216.922 659.922,244.986 692.95,246.496 671.661,271.793 				"/>
				<path d="M643.779,230.414l12.721,20.419l24.032,1.099l-15.49,18.408l6.383,23.199l-22.295-9.045l-20.091,13.237l1.713-23.998
					l-18.799-15.016l23.353-5.786L643.779,230.414 M641.108,203.431l-8.562,22.759l-6.251,16.613l-17.23,4.269l-23.601,5.848
					l18.998,15.176l13.869,11.078l-1.265,17.707l-1.729,24.252l20.303-13.378l14.823-9.767l16.447,6.674l22.532,9.14l-6.451-23.443
					l-4.706-17.116l11.43-13.582l15.654-18.604l-24.29-1.11l-17.731-0.81l-9.385-15.068L641.108,203.431L641.108,203.431z"/>
			</g>
		</g>
		<g id="ノーマル_3_">
			<path d="M512.706,293.289c0.022-0.567,0.076-1.13,0.17-1.693c2.754-38.271,55.069-16.881,37.915,19.508
				c-4.89,10.381-22.401,11.024-31.57,0.61C517.357,309.259,512.338,300.894,512.706,293.289z"/>
			<path d="M621.359,263.301c14.965-11.369,30.694,2.9,35.121,16.014c1.633,6.389,0.571,11.044,0.41,16.273
				C632.283,333.569,599.471,279.932,621.359,263.301z"/>
		</g>
	</g>
	<path d="M427.028,839.314c-8.996,0-17.758-0.522-26.231-1.029l-0.172-0.01c-5.804-0.344-11.285-0.669-16.704-0.821
		c-4.472-0.125-8.915-0.214-13.311-0.301c-40.199-0.8-78.2-1.554-100.171-30.295c-3.091,2.105-6.201,4.777-9.467,7.582
		c-7.708,6.617-15.679,13.461-26.199,15.71c-0.016,0.003-0.031,0.006-0.047,0.009c-2.104,0.448-4.265,0.688-6.422,0.715
		l-0.202,0.001c-10.077,0-21.83-8.835-32.245-24.239c-9.922-14.674-16.505-32.42-17.61-47.472
		c-1.468-20.045,9.476-34.061,30.028-38.452c4.502-0.962,9.422-1.449,14.625-1.449c4.001,0,8.168,0.289,12.418,0.86
		c-1.333-24.56-1.962-50.428,3.955-74.712c4.869-19.965,13.454-36.989,21.757-53.452l0.122-0.241
		c1.884-3.736,3.832-7.599,5.689-11.412c23.684-48.636,50.477-82.579,84.207-106.645c-10.234-18.53-15.292-52.844-14.269-69.121
		c2.18-34.7,15.444-55.068,30.804-78.653c0.976-1.499,1.917-2.942,2.862-4.402c1.154-1.782,2.295-3.557,3.428-5.323
		c6.743-10.495,13.095-20.379,21.198-30.015c1.172-1.393,2.373-2.784,3.581-4.184c7.312-8.471,14.862-17.219,16.633-27.891
		c-15.855-13.218-35.544-22.112-56.368-31.518c-8.514-3.846-17.317-7.823-26.112-12.214l-1.676-0.836
		c-28.184-14.062-63.259-31.562-75.042-66.984c-4.78-14.352-5.591-34.389,3.922-44.468c4.374-4.641,10.375-7.803,17.836-9.397
		c3.914-0.836,8.264-1.26,12.93-1.26c12.634,0,28.003,2.998,46.985,9.164c11.741,3.82,22.776,8.635,32.512,12.883
		c0.857,0.374,1.699,0.741,2.527,1.102c-0.807-0.957-1.627-1.921-2.462-2.903c-5.111-6.009-10.39-12.216-15.22-19.841
		c-6.728-10.618-21.681-37.177-15.239-54.44c3.597-9.644,17.549-16.597,29.781-19.21c1.892-0.404,3.752-0.706,5.528-0.896
		c3.556-0.384,7.234-0.579,10.931-0.579c31.621,0,61.937,13.865,79.764,26.84c21.705,15.792,41.666,41.158,60.005,66.217
		c15.141,20.69,36.148,52.155,44.631,87.366c36.846,7.728,83.918,19.959,123.904,45.865c33.705,21.835,74.365,53.706,89.748,106.781
		c10.424,35.979,5.325,73.921-13.988,104.096c-18.653,29.125-52.377,51.446-100.255,66.369
		c21.177,39.263,33.244,100.107,35.874,180.914c0.559,17.249-3.227,34.908-7.494,52.99c-0.282,1.195-0.588,2.582-0.925,4.106
		l-0.021,0.1c-3.192,14.482-8.535,38.723-22.873,41.787c-0.806,0.172-1.636,0.274-2.466,0.306c-0.107,0.004-0.215,0.005-0.32,0.005
		c-7.037,0-12.859-8.338-17.996-15.695c-1.092-1.563-2.098-3.001-2.922-4.066c-4.965-6.409-9.875-12.288-14.624-17.973l-0.195-0.234
		c-3.093-3.706-6.07-7.272-8.999-10.9c1.436,18.725,0.377,38.947-10.178,42.313c-0.521,0.167-1.057,0.31-1.592,0.425
		c-1.004,0.215-1.992,0.323-2.939,0.323c-5.822,0-9.363-3.974-11.957-7.402c-10.856,24.22-37.641,32.989-62.68,38.34
		c-4.979,1.063-10.344,2.068-16.401,3.072c-9.99,1.652-20.553,3.841-30.767,5.957c-14.383,2.98-29.176,6.045-42.249,7.585
		C441.584,838.936,434.657,839.314,427.028,839.314z M353.379,812.704c2.783,0,5.297,0.124,7.684,0.38
		c17.058,1.829,36.373,3.901,56.696,3.901c9.032,0,17.657-0.428,25.635-1.271c11.906-1.257,25.716-3.778,40.335-6.448
		c7.717-1.409,15.697-2.867,23.57-4.163c8.3-1.364,17.707-2.912,26.104-4.706c14.749-3.152,24.476-6.673,30.609-11.079
		c7.069-5.076,15.113-16.878,14.84-21.771c-0.448-8.063-7.257-18.557-10.667-21.354c-2.98-2.446-7.099-2.783-11.105-2.783
		c-1.347,0-2.726,0.042-4.122,0.085c-1.507,0.046-3.052,0.093-4.592,0.093c-4.832,0-10.48-0.422-15.738-3.548l-1.163-0.693
		c-0.492-0.293-0.835-0.783-0.941-1.346l-0.252-1.33c-7.587-40.052-32.851-86.431-58.767-107.881
		c-7.756-6.416-18.892-15.243-26.016-17.815c-1.378-0.496-3.201-0.64-5.131-0.792c-4.402-0.347-10.399-0.818-14.652-6.304
		l-0.987-1.273c-0.412-0.53-0.529-1.231-0.314-1.867l0.518-1.528c2.098-6.189,6.342-10.13,12.274-11.396
		c1.344-0.287,2.785-0.433,4.285-0.433c8.683,0,17.524,4.749,20.924,6.79c30.936,18.579,52.621,44.589,74.849,89.773
		c1.741,3.542,3.537,6.702,5.273,9.759c4.302,7.568,8.373,14.73,10.775,25.877c23.6,0.742,38.45,13.58,48.87,26.255
		c-0.532-6.879-2.881-14.73-5.17-22.379c-2.551-8.531-4.954-16.565-4.919-23.461l0.007-1.547c0.003-0.648,0.319-1.255,0.85-1.627
		l1.266-0.89c1.888-1.332,3.93-2.24,6.067-2.697c1.103-0.235,2.236-0.354,3.372-0.354c13.647,0,26.446,17.203,34.915,28.588
		c1.418,1.907,2.494,3.348,3.426,4.526c3.372,4.259,6.629,8.464,9.503,12.174c6.427,8.292,12.067,15.571,17.444,21.662
		c14.086-28.537,12.274-70.702,9.171-111.558c-2.96-38.974-9.515-94.203-32.157-126.057c-19.075,6.079-36.536,10.785-53.33,14.375
		c-26.319,5.623-50.387,8.357-73.577,8.358c-13.754,0-27.338-1.009-40.374-2.997c-25.155-3.845-60.608-11.356-86.659-25.31
		c-10.86-5.809-19.727-16.046-27.227-25.49c-4.606,3.124-8.438,6.854-12.471,10.78c-2.873,2.797-5.833,5.679-9.138,8.381
		c-14.854,13.132-26.076,29.295-36.292,44.721c0,0-0.126,0.188-0.165,0.236l-0.071,0.089c-3.827,4.924-8.053,10.947-10.271,18.145
		l-0.106,0.345c-0.047,0.152-0.112,0.299-0.194,0.436l-0.183,0.307c-23.783,39.973-48.852,95.63-31.452,171.836
		c3.791,14.055,10.528,27.454,18.465,36.687c13.387,15.578,25.53,27.676,49.464,29.949c1.348,0.129,2.824,0.19,4.515,0.19
		c2.412,0,4.925-0.125,7.585-0.257C347.35,812.852,350.319,812.704,353.379,812.704z M220.632,742.482
		c-2.417,0-4.699,0.227-6.786,0.673c-11.858,2.531-10.354,9.864-9.86,12.274l0.042,0.205c0.018,0.089,0.03,0.18,0.036,0.271
		l0.014,0.209c1.891,30.071,18.897,44.283,25.384,48.637c9.979-4.372,18.529-10.043,26.065-17.291
		c-8.063-11.858-13.276-26.739-17.321-39.906C235.245,744.598,227.975,742.482,220.632,742.482z M397.879,321.44
		c-2.958,4.556-6.018,9.266-9.267,13.787c-7.277,10.133-14.106,19.936-17.697,28.483c-9.048,21.54-16.672,55.287-1.615,93.74
		c3.72,9.504,20.035,27.59,28.712,34.358c21.152,16.517,64.384,25.62,97.79,28.633c7.293,0.658,14.856,0.992,22.481,0.992
		c22.264,0,45.904-2.739,72.272-8.373c8.96-1.915,18.463-4.222,28.245-6.855l2.595-0.698c41.245-11.094,80.2-21.572,107.232-44.657
		c35.477-30.295,51.605-94.401,15.802-145.145c-38.93-55.171-96.398-86.192-186.341-100.583l-2.085-0.333
		c-0.835-0.133-1.496-0.777-1.65-1.608l-0.388-2.077c-6.857-36.621-22.909-62.403-37.706-82.793
		c-30.044-41.386-64.096-88.292-124.134-93.363c-2.697-0.228-5.321-0.343-7.801-0.343c-4.423,0-8.344,0.358-11.653,1.065
		c-5.644,1.206-9.174,3.284-10.491,6.175c-1.507,3.305-0.415,8.474,3.16,14.951l0.157,0.286c0.068,0.124,0.123,0.254,0.163,0.39
		l0.092,0.308c4.44,14.882,14.273,26.629,23.783,37.99c1.458,1.741,2.904,3.469,4.319,5.193c3.826,4.66,7.472,9.526,10.998,14.233
		c6.739,8.998,13.078,17.46,20.484,24.523c3.17,3.024,6.774,5.479,10.59,8.077c3.836,2.61,7.779,5.294,11.374,8.67
		c4.768,4.475,9.062,9.442,13.214,14.246c1.873,2.167,3.811,4.406,5.784,6.596c14.017,15.543,26.497,29.897,37.301,48.179
		l0.711,1.202c0.301,0.509,0.361,1.124,0.165,1.681l-0.463,1.317c-2.302,6.558-5.502,10.19-9.784,11.105
		c-0.656,0.14-1.326,0.211-1.993,0.211c-6.939,0-12.726-7.469-18.321-14.691c-1.922-2.48-3.698-4.771-5.29-6.473
		c-4.192-4.469-8.068-8.171-11.488-11.438l-0.191-0.182c-2.979-2.845-5.552-5.301-7.822-7.766
		c-5.613-6.08-10.78-12.525-15.776-18.759c-6.973-8.699-13.541-16.893-20.537-23.188c-15.018-13.509-39.449-23.582-59.081-31.675
		l-4.072-1.682c-18.149-7.515-36.001-14.26-54.868-14.26c-5.438,0-10.677,0.539-16.002,1.648c-2.032,4.563-2.938,8.703-1.503,14.496
		c0.012,0.047,0.046,0.189,0.055,0.237c4.938,27.55,31.402,46.029,46.738,54.599c14.453,8.076,30.347,14.658,45.718,21.024
		c13.82,5.724,26.875,11.13,38.104,17.277c4.38,2.399,8.512,5.573,12.507,8.642c5.889,4.526,11.447,8.798,16.724,9.855l1.079,0.216
		c0.466,0.093,0.882,0.349,1.177,0.721l0.683,0.864c7.771,9.82-5.579,35.426-6.151,36.511c-3.684,6.976-9.524,12.647-15.173,18.131
		c-3.791,3.679-7.705,7.478-10.775,11.527c-3.311,4.364-6.563,9.37-10.005,14.671l-1.763-0.957L397.879,321.44z"/>
	<path id="輪郭_x3C_複合パス_x3E_" d="M671.947,794.41c-6.088,0.22-11.674-7.777-16.603-14.836
		c-1.09-1.56-2.118-3.032-2.979-4.146c-4.976-6.424-9.904-12.325-14.671-18.031c-4.587-5.496-9.011-10.791-13.339-16.364
		c1.721,16.059,2.92,43.381-8.176,46.919c-0.474,0.151-0.947,0.276-1.405,0.375c-7.097,1.517-10.779-3.473-13.738-7.482
		c-0.412-0.558-0.828-1.121-1.256-1.674c-9.431,25.719-36.726,34.892-62.579,40.416c-4.951,1.058-10.284,2.057-16.311,3.056
		c-10.02,1.657-20.608,3.851-30.846,5.972c-14.291,2.961-29.066,6.024-42.076,7.557c-16.488,1.94-32.025,1.016-47.052,0.118
		c-5.88-0.349-11.436-0.68-16.939-0.834c-4.478-0.125-8.926-0.214-13.327-0.302c-40.356-0.803-78.527-1.561-99.725-30.996
		c-3.729,2.302-7.404,5.457-11.256,8.766c-7.519,6.455-15.292,13.129-25.313,15.271c0,0-0.002,0-0.003,0
		c-2,0.429-4.043,0.655-6.073,0.68c-9.445,0.108-20.657-8.407-30.767-23.358c-9.735-14.396-16.192-31.778-17.272-46.498
		c-1.388-18.941,8.983-32.189,28.451-36.35c8.44-1.804,18.314-1.869,28.758-0.211c-1.495-26.614-2.105-52.477,3.766-76.572
		c4.814-19.742,13.348-36.664,21.6-53.026c1.927-3.821,3.919-7.77,5.822-11.677c23.841-48.957,50.922-83.028,85.05-106.939
		c-10.562-17.597-15.978-52.669-14.915-69.577c2.146-34.175,15.278-54.339,30.485-77.689c0.947-1.454,1.903-2.921,2.864-4.404
		c1.156-1.785,2.299-3.562,3.433-5.332c6.695-10.42,13.017-20.261,21.045-29.807c1.167-1.386,2.362-2.771,3.564-4.164
		c7.751-8.98,15.756-18.253,17.259-30.009c-16.208-13.792-36.369-22.9-57.685-32.528c-8.502-3.841-17.292-7.813-26.042-12.181
		l-1.676-0.836c-27.852-13.896-62.517-31.191-74.037-65.826c-4.598-13.806-5.468-32.985,3.479-42.464
		c4.09-4.34,9.743-7.306,16.8-8.814c14.093-3.012,33.352-0.443,58.879,7.85c11.646,3.79,22.635,8.583,32.33,12.813
		c3.45,1.505,6.805,2.969,10.021,4.314c-2.413-3.108-4.983-6.129-7.633-9.244c-5.063-5.952-10.298-12.107-15.054-19.616
		c-6.568-10.366-21.183-36.249-15.055-52.67c3.314-8.885,17.007-15.536,28.325-17.954c1.818-0.389,3.609-0.68,5.323-0.864
		c34.533-3.73,69.692,11.614,89.305,25.889c21.482,15.63,41.325,40.853,59.567,65.781c15.29,20.894,36.404,52.574,44.591,87.883
		c37.283,7.767,84.651,20.048,124.471,45.846c33.415,21.647,73.717,53.219,88.915,105.659
		c10.264,35.426,5.252,72.771-13.752,102.461c-18.699,29.196-52.838,51.478-101.506,66.258
		c21.761,38.897,34.142,100.148,36.811,182.169c0.551,17.008-3.206,34.521-7.441,52.466c-0.29,1.229-0.605,2.659-0.953,4.233
		c-3.089,14.015-8.259,37.468-21.338,40.263C673.373,794.296,672.66,794.384,671.947,794.41z M461.375,595.885
		c30.573,18.361,52.039,44.128,74.084,88.941c1.769,3.598,3.581,6.787,5.333,9.87c4.409,7.757,8.588,15.11,10.873,26.851
		c25.116,0.195,40.732,14.491,52.476,30.021c0.853-8.385-2.226-18.674-5.222-28.687c-2.503-8.37-4.868-16.273-4.835-22.878
		l0.007-1.548l1.266-0.89c1.668-1.177,3.463-1.977,5.335-2.377c13.656-2.918,27.262,15.369,36.265,27.471
		c1.331,1.79,2.481,3.334,3.461,4.573c3.327,4.202,6.46,8.245,9.491,12.158c7.152,9.229,13.456,17.364,19.472,23.925
		c15.723-28.941,13.947-72.701,10.719-115.196c-3.029-39.884-9.789-96.225-33.381-128.251
		c-19.547,6.271-37.402,11.106-54.519,14.765c-41.555,8.879-78.592,10.625-113.231,5.34c-24.998-3.82-60.216-11.275-86.016-25.095
		c-10.649-5.696-19.261-15.639-27.734-26.399c-5.476,3.425-9.782,7.618-14.313,12.028c-2.833,2.758-5.76,5.608-8.999,8.256
		c-15.095,13.344-26.404,29.628-36.694,45.165l-0.062,0.095l-0.071,0.089c-3.951,5.083-8.303,11.289-10.618,18.802l-0.106,0.344
		l-0.183,0.307c-23.975,40.296-49.242,96.41-31.684,173.307c3.884,14.406,10.771,28.091,18.898,37.545
		c13.684,15.924,26.113,28.292,50.792,30.637c3.838,0.365,7.996,0.158,12.4-0.061c5.214-0.26,10.607-0.526,16.272,0.08
		c23.799,2.553,53.42,5.731,82.754,2.631c11.972-1.264,25.821-3.792,40.484-6.47c7.719-1.41,15.701-2.868,23.536-4.157
		c8.326-1.369,17.765-2.922,26.196-4.724c15.027-3.212,24.991-6.837,31.358-11.411c7.129-5.119,16.009-17.438,15.67-23.507
		c-0.486-8.736-7.654-19.72-11.396-22.789c-4.296-3.525-10.257-3.343-16.566-3.151c-6.498,0.198-13.218,0.404-19.237-3.175
		l-1.162-0.692l-0.252-1.33c-7.663-40.455-33.225-87.338-59.456-109.05c-7.872-6.512-19.197-15.479-26.612-18.155
		c-1.638-0.59-3.601-0.743-5.677-0.907c-4.231-0.333-9.495-0.749-13.205-5.533l-0.987-1.273l0.518-1.528
		c1.858-5.483,5.593-8.971,10.797-10.081C446.901,587.783,458.149,593.946,461.375,595.885z M239.981,746.522
		c-4.263-4.806-16.904-7.386-26.552-5.323c-6.295,1.344-13.381,4.977-11.402,14.632l0.042,0.205l0.014,0.209
		c1.626,25.875,14.878,43.005,27.188,50.768c11.153-4.749,20.629-11.087,28.865-19.308
		C249.685,775.878,244.223,760.381,239.981,746.522z M360.362,41.016c-1.806,3.958-0.72,9.592,3.229,16.746l0.155,0.283l0.092,0.308
		c4.558,15.276,14.525,27.184,24.166,38.701c1.454,1.736,2.896,3.459,4.307,5.178c3.808,4.638,7.45,9.5,10.972,14.201
		c6.763,9.03,13.15,17.557,20.677,24.734c3.295,3.143,6.974,5.647,10.866,8.298c3.761,2.559,7.646,5.208,11.108,8.459
		c4.685,4.398,8.948,9.328,13.07,14.096c1.882,2.176,3.829,4.428,5.812,6.627c13.942,15.461,26.355,29.735,37.064,47.857
		l0.711,1.202l-0.463,1.317c-2.052,5.846-4.771,9.055-8.315,9.812c-6.573,1.405-12.543-6.298-18.315-13.75
		c-1.926-2.485-3.743-4.833-5.411-6.614c-4.27-4.552-8.198-8.3-11.661-11.607c-2.992-2.857-5.578-5.323-7.83-7.767
		c-5.574-6.038-10.724-12.463-15.705-18.678c-7.007-8.741-13.625-16.998-20.741-23.401c-15.271-13.737-39.881-23.885-59.656-32.038
		l-4.07-1.681c-24.506-10.147-46.875-18.1-72.477-12.629c-0.185,0.04-0.373,0.081-0.557,0.122
		c-2.268,4.829-3.801,9.626-2.043,16.722l0.025,0.095l0.017,0.096c5.07,28.278,32.072,47.167,47.717,55.91
		c14.554,8.132,30.504,14.738,45.929,21.126c13.774,5.705,26.784,11.094,37.908,17.184c4.246,2.325,8.317,5.453,12.254,8.477
		c6.075,4.669,11.816,9.079,17.544,10.227l1.08,0.216l0.683,0.864c6.972,8.81-6.217,34.083-6.352,34.338
		c-3.535,6.696-9.263,12.256-14.801,17.633c-3.842,3.729-7.814,7.585-10.971,11.75c-3.369,4.439-6.653,9.5-10.132,14.857
		c-2.959,4.557-6.019,9.27-9.255,13.774c-7.348,10.231-14.247,20.138-17.917,28.876c-9.191,21.881-16.935,56.167-1.633,95.244
		c3.961,10.12,20.531,28.331,29.344,35.206c21.498,16.786,65.154,26.01,98.841,29.048c28.688,2.589,59.88,0.162,95.352-7.417
		c8.994-1.923,18.53-4.237,28.347-6.88l2.595-0.698c41.468-11.154,80.636-21.689,108.012-45.068
		c36.143-30.863,52.591-96.153,16.137-147.818c-39.266-55.648-97.142-86.922-187.658-101.405l-2.086-0.333l-0.388-2.077
		c-6.932-37.018-23.128-63.034-38.054-83.602c-30.295-41.732-64.632-89.033-125.583-94.182c-7.731-0.652-14.662-0.389-20.04,0.76
		C365.957,35.06,361.956,37.516,360.362,41.016z"/>
</g>
</svg>
