<?xml version="1.0" encoding="utf-8"?>
<!-- Generator: Adobe Illustrator 25.1.0, SVG Export Plug-In . SVG Version: 6.00 Build 0)  -->
<svg version="1.1" id="Capa_1" xmlns="http://www.w3.org/2000/svg" xmlns:xlink="http://www.w3.org/1999/xlink" x="0px" y="0px"
	 viewBox="0 0 512 512" style="enable-background:new 0 0 512 512;" xml:space="preserve">
<style type="text/css">
	.st0{fill:url(#SVGID_1_);}
	.st1{opacity:0.1;fill:#1E1E1E;enable-background:new    ;}
	.st2{fill:#FFFFFF;}
	.st3{fill:#4BC9C7;}
	.st4{fill:#1E1E1E;}
</style>
<g>
	
		<linearGradient id="SVGID_1_" gradientUnits="userSpaceOnUse" x1="-25.301" y1="318.809" x2="529.203" y2="176.502" gradientTransform="matrix(1 0 0 -1 0 514)">
		<stop  offset="0" style="stop-color:#D2DEFF;stop-opacity:0"/>
		<stop  offset="1" style="stop-color:#4BC9C7"/>
	</linearGradient>
	<path class="st0" d="M382.6,171.5c-0.2,0-0.4,0-0.6,0c-32-0.1-62.4-13.8-83.4-38c-31.4-36-77.6-58.6-129.1-58.4
		C76,75.5-1.2,154.1,0,247.6c1.2,93,77,168,170.2,168c26.3,0,51.3-6,73.5-16.7c19.2-9.2,42.1-6.8,59,6.2
		c21.9,16.7,49.2,26.7,78.8,26.8c71.4,0.1,130-58,130.4-129.4C512.4,230.4,454.6,171.9,382.6,171.5z"/>
	<path class="st1" d="M488.3,295.8l-30.1-8.6c-3-12-7.7-23.4-14-33.7l15.2-27.4c1.3-2.3,0.9-5.2-1-7.1l-20.6-20.6
		c-1.9-1.9-4.8-2.3-7.1-1l-27.4,15.2c-10.3-6.3-21.6-11-33.7-14l-8.6-30.1c-0.7-2.6-3.1-4.3-5.7-4.3h-29.1c-2.7,0-5,1.8-5.7,4.3
		l-8.6,30.1c-12,3-23.4,7.7-33.7,14l-27.4-15.2c-2.3-1.3-5.2-0.9-7.1,1L223,219.1c-1.9,1.9-2.3,4.8-1,7.1l15.2,27.4
		c-6.3,10.3-11,21.6-14,33.7l-30.1,8.6c-2.6,0.7-4.3,3.1-4.3,5.7v29.1c0,2.7,1.8,5,4.3,5.7l30.1,8.6c3,12,7.7,23.4,14,33.7
		l-15.2,27.4c-1.3,2.3-0.9,5.2,1,7.1l20.6,20.6c1.9,1.9,4.8,2.3,7.1,1l27.4-15.2c10.3,6.3,21.6,11,33.7,14l8.6,30.1
		c0.7,2.6,3.1,4.3,5.7,4.3h29.1c2.7,0,5-1.8,5.7-4.3l8.6-30.1c12-3,23.4-7.7,33.7-14l27.4,15.2c2.3,1.3,5.2,0.9,7.1-1l20.6-20.6
		c1.9-1.9,2.3-4.8,1-7.1l-15.2-27.4c6.3-10.3,11-21.6,14-33.7l30.1-8.6c2.6-0.7,4.3-3.1,4.3-5.7v-29.1
		C492.6,298.9,490.8,296.6,488.3,295.8L488.3,295.8z M340.7,390.9c-41.3,0-74.8-33.5-74.8-74.8s33.5-74.8,74.8-74.8
		s74.8,33.5,74.8,74.8S382,390.9,340.7,390.9L340.7,390.9z"/>
	<path class="st1" d="M181.1,249.8l-16.3-4.6c-1.6-6.5-4.2-12.6-7.5-18.2l8.2-14.8c0.7-1.3,0.5-2.8-0.5-3.8l-11.1-11.1
		c-1-1-2.6-1.2-3.8-0.5l-14.8,8.2c-5.6-3.4-11.7-5.9-18.2-7.5l-4.6-16.3c-0.4-1.4-1.7-2.3-3.1-2.3H93.5c-1.4,0-2.7,1-3.1,2.3
		l-4.6,16.3c-6.5,1.6-12.6,4.2-18.2,7.5l-14.8-8.2c-1.3-0.7-2.8-0.5-3.8,0.5l-11.1,11.1c-1,1-1.2,2.6-0.5,3.8l8.2,14.8
		c-3.4,5.6-5.9,11.7-7.5,18.2l-16.3,4.6c-1.4,0.4-2.3,1.7-2.3,3.1v15.7c0,1.4,1,2.7,2.3,3.1l16.3,4.6c1.6,6.5,4.2,12.6,7.5,18.2
		l-8.2,14.8c-0.7,1.3-0.5,2.8,0.5,3.8L49,324.3c1,1,2.6,1.2,3.8,0.5l14.8-8.2c5.6,3.4,11.7,5.9,18.2,7.5l4.6,16.3
		c0.4,1.4,1.7,2.3,3.1,2.3h15.7c1.4,0,2.7-1,3.1-2.3l4.6-16.3c6.5-1.6,12.6-4.2,18.2-7.5l14.8,8.2c1.3,0.7,2.8,0.5,3.8-0.5
		l11.1-11.1c1-1,1.2-2.6,0.5-3.8l-8.2-14.8c3.4-5.6,5.9-11.7,7.5-18.2l16.3-4.6c1.4-0.4,2.3-1.7,2.3-3.1v-15.7
		C183.4,251.4,182.5,250.2,181.1,249.8L181.1,249.8z M101.4,286.5c-14.2,0-25.8-11.5-25.8-25.8s11.5-25.8,25.8-25.8
		s25.8,11.5,25.8,25.8C127.2,275,115.7,286.5,101.4,286.5z"/>
	<path class="st1" d="M290.5,94.5l-17.5-5c-1.7-7-4.5-13.6-8.1-19.6l8.9-15.9c0.8-1.4,0.5-3-0.6-4.1l-12-12
		c-1.1-1.1-2.8-1.3-4.1-0.6l-15.9,8.9c-6-3.6-12.6-6.4-19.6-8.1l-5-17.5c-0.4-1.5-1.8-2.5-3.3-2.5h-16.9c-1.6,0-2.9,1-3.3,2.5
		l-5,17.5c-7,1.7-13.6,4.5-19.6,8.1l-15.9-8.9c-1.4-0.8-3-0.5-4.1,0.6l-12,12c-1.1,1.1-1.3,2.8-0.6,4.1l8.9,15.9
		c-3.6,6-6.4,12.6-8.1,19.6l-17.5,5c-1.5,0.4-2.5,1.8-2.5,3.3v16.9c0,1.6,1,2.9,2.5,3.3l17.5,5c1.7,7,4.5,13.6,8.1,19.6l-8.9,15.9
		c-0.8,1.4-0.5,3,0.6,4.1l12,12c1.1,1.1,2.8,1.3,4.1,0.6l15.9-8.9c6,3.6,12.6,6.4,19.6,8.1l5,17.5c0.4,1.5,1.8,2.5,3.3,2.5h16.9
		c1.6,0,2.9-1,3.3-2.5l5-17.5c7-1.7,13.6-4.5,19.6-8.1l15.9,8.9c1.4,0.8,3,0.5,4.1-0.6l12-12c1.1-1.1,1.3-2.8,0.6-4.1l-8.9-15.9
		c3.6-6,6.4-12.6,8.1-19.6l17.5-5c1.5-0.4,2.5-1.8,2.5-3.3V97.8C293,96.3,292,94.9,290.5,94.5L290.5,94.5z M204.7,140.7
		c-19,0-34.4-15.4-34.4-34.4S185.7,72,204.7,72s34.4,15.4,34.4,34.4S223.7,140.7,204.7,140.7z"/>
	<path class="st2" d="M488.3,316.8l-30.1-8.6c-3-12-7.7-23.4-14-33.7l15.2-27.4c1.3-2.3,0.9-5.2-1-7.1l-20.6-20.6
		c-1.9-1.9-4.8-2.3-7.1-1l-27.4,15.2c-10.3-6.3-21.6-11-33.7-14l-8.6-30.1c-0.7-2.6-3.1-4.3-5.7-4.3h-29.1c-2.7,0-5,1.8-5.7,4.3
		l-8.6,30.1c-12,3-23.4,7.7-33.7,14l-27.4-15.2c-2.3-1.3-5.2-0.9-7.1,1L223,240.1c-1.9,1.9-2.3,4.8-1,7.1l15.2,27.4
		c-6.3,10.3-11,21.6-14,33.7l-30.1,8.6c-2.6,0.7-4.3,3.1-4.3,5.7v29.1c0,2.7,1.8,5,4.3,5.7l30.1,8.6c3,12,7.7,23.4,14,33.7
		l-15.2,27.4c-1.3,2.3-0.9,5.2,1,7.1l20.6,20.6c1.9,1.9,4.8,2.3,7.1,1l27.4-15.2c10.3,6.3,21.6,11,33.7,14l8.6,30.1
		c0.7,2.6,3.1,4.3,5.7,4.3h29.1c2.7,0,5-1.8,5.7-4.3l8.6-30.1c12-3,23.4-7.7,33.7-14l27.4,15.2c2.3,1.3,5.2,0.9,7.1-1l20.6-20.6
		c1.9-1.9,2.3-4.8,1-7.1l-15.2-27.4c6.3-10.3,11-21.6,14-33.7l30.1-8.6c2.6-0.7,4.3-3.1,4.3-5.7v-29.1
		C492.6,319.9,490.8,317.6,488.3,316.8z M340.7,411.9c-41.3,0-74.8-33.5-74.8-74.8s33.5-74.8,74.8-74.8s74.8,33.5,74.8,74.8
		S382,411.9,340.7,411.9L340.7,411.9z"/>
	<path class="st3" d="M181.1,270.8l-16.3-4.6c-1.6-6.5-4.2-12.6-7.5-18.2l8.2-14.8c0.7-1.3,0.5-2.8-0.5-3.8l-11.1-11.1
		c-1-1-2.6-1.2-3.8-0.5l-14.8,8.2c-5.6-3.4-11.7-5.9-18.2-7.5l-4.6-16.3c-0.4-1.4-1.7-2.3-3.1-2.3H93.5c-1.4,0-2.7,1-3.1,2.3
		l-4.6,16.3c-6.5,1.6-12.6,4.2-18.2,7.5l-14.8-8.2c-1.3-0.7-2.8-0.5-3.8,0.5l-11.1,11.1c-1,1-1.2,2.6-0.5,3.8l8.2,14.8
		c-3.4,5.6-5.9,11.7-7.5,18.2l-16.3,4.6c-1.4,0.4-2.3,1.7-2.3,3.1v15.7c0,1.4,1,2.7,2.3,3.1l16.3,4.6c1.6,6.5,4.2,12.6,7.5,18.2
		l-8.2,14.8c-0.7,1.3-0.5,2.8,0.5,3.8L49,345.3c1,1,2.6,1.2,3.8,0.5l14.8-8.2c5.6,3.4,11.7,5.9,18.2,7.5l4.6,16.3
		c0.4,1.4,1.7,2.3,3.1,2.3h15.7c1.4,0,2.7-1,3.1-2.3l4.6-16.3c6.5-1.6,12.6-4.2,18.2-7.5l14.8,8.2c1.3,0.7,2.8,0.5,3.8-0.5
		l11.1-11.1c1-1,1.2-2.6,0.5-3.8l-8.2-14.8c3.4-5.6,5.9-11.7,7.5-18.2l16.3-4.6c1.4-0.4,2.3-1.7,2.3-3.1v-15.7
		C183.4,272.4,182.5,271.2,181.1,270.8L181.1,270.8z M101.4,307.5c-14.2,0-25.8-11.5-25.8-25.8s11.5-25.8,25.8-25.8
		s25.8,11.5,25.8,25.8C127.2,296,115.7,307.5,101.4,307.5z"/>
	<path class="st2" d="M290.5,115.5l-17.5-5c-1.7-7-4.5-13.6-8.1-19.6l8.9-15.9c0.8-1.4,0.5-3-0.6-4.1l-12-12
		c-1.1-1.1-2.8-1.3-4.1-0.6l-15.9,8.9c-6-3.6-12.6-6.4-19.6-8.1l-5-17.5c-0.4-1.5-1.8-2.5-3.3-2.5h-16.9c-1.6,0-2.9,1-3.3,2.5
		l-5,17.5c-7,1.7-13.6,4.5-19.6,8.1l-15.9-8.9c-1.4-0.8-3-0.5-4.1,0.6l-12,12c-1.1,1.1-1.3,2.8-0.6,4.1l8.9,15.9
		c-3.6,6-6.4,12.6-8.1,19.6l-17.5,5c-1.5,0.4-2.5,1.8-2.5,3.3v16.9c0,1.6,1,2.9,2.5,3.3l17.5,5c1.7,7,4.5,13.6,8.1,19.6l-8.9,15.9
		c-0.8,1.4-0.5,3,0.6,4.1l12,12c1.1,1.1,2.8,1.3,4.1,0.6l15.9-8.9c6,3.6,12.6,6.4,19.6,8.1l5,17.5c0.4,1.5,1.8,2.5,3.3,2.5h16.9
		c1.6,0,2.9-1,3.3-2.5l5-17.5c7-1.7,13.6-4.5,19.6-8.1l15.9,8.9c1.4,0.8,3,0.5,4.1-0.6l12-12c1.1-1.1,1.3-2.8,0.6-4.1l-8.9-15.9
		c3.6-6,6.4-12.6,8.1-19.6l17.5-5c1.5-0.4,2.5-1.8,2.5-3.3v-16.9C293,117.3,292,115.9,290.5,115.5L290.5,115.5z M204.7,161.7
		c-19,0-34.4-15.4-34.4-34.4S185.7,93,204.7,93s34.4,15.4,34.4,34.4S223.7,161.7,204.7,161.7z"/>
	<g>
		<g>
			<path class="st4" d="M355.3,494h-29.1c-4.9,0-9.2-3.3-10.6-8l-7.8-27.4c-10.4-2.8-20.4-6.9-29.7-12.3l-24.9,13.9
				c-4.3,2.4-9.6,1.6-13.1-1.8l-20.6-20.6c-3.4-3.4-4.2-8.8-1.8-13.1l13.9-24.9c-5.4-9.3-9.5-19.3-12.3-29.7l-27.4-7.8
				c-4.7-1.3-8-5.7-8-10.6v-29.1c0-4.9,3.3-9.2,8-10.6l27.4-7.8c2.8-10.4,6.9-20.4,12.3-29.7l-13.9-24.9c-2.4-4.3-1.6-9.6,1.8-13.1
				l20.6-20.6c3.4-3.4,8.8-4.2,13.1-1.8l24.9,13.9c9.3-5.4,19.3-9.5,29.7-12.3l7.8-27.4c1.3-4.7,5.7-8,10.6-8h29.1
				c4.9,0,9.2,3.3,10.6,8l7.8,27.4c10.4,2.8,20.4,6.9,29.7,12.3l24.9-13.9c4.3-2.4,9.6-1.6,13.1,1.8l20.6,20.6
				c3.4,3.4,4.2,8.8,1.8,13.1l-13.9,24.9c5.4,9.3,9.5,19.3,12.3,29.7l27.4,7.8h0c4.7,1.3,8,5.7,8,10.6v29.1c0,4.9-3.3,9.2-8,10.6
				l-27.4,7.8c-2.8,10.4-6.9,20.4-12.3,29.7l13.9,24.9c2.4,4.3,1.6,9.6-1.8,13.1l-20.6,20.6c-3.4,3.4-8.8,4.2-13.1,1.8l-24.9-13.9
				c-9.3,5.4-19.3,9.5-29.7,12.3l-7.8,27.4C364.5,490.7,360.2,494,355.3,494L355.3,494z M278.2,435.6c0.9,0,1.8,0.2,2.6,0.7
				c10,6.1,20.9,10.6,32.3,13.4c1.7,0.4,3.1,1.8,3.6,3.5l8.6,30.1c0.1,0.4,0.5,0.7,0.9,0.7h29.1c0.4,0,0.8-0.3,0.9-0.7l8.6-30.1
				c0.5-1.7,1.9-3.1,3.6-3.5c11.4-2.8,22.2-7.3,32.3-13.4c1.5-0.9,3.5-1,5-0.1l27.4,15.2c0.4,0.2,0.9,0.1,1.2-0.2l20.6-20.6
				c0.3-0.3,0.4-0.8,0.2-1.2l-15.2-27.4c-0.9-1.6-0.8-3.5,0.1-5c6.1-10,10.6-20.9,13.4-32.3c0.4-1.7,1.8-3.1,3.5-3.6l30.1-8.6
				c0.4-0.1,0.7-0.5,0.7-0.9v-29.1c0-0.4-0.3-0.8-0.7-0.9l-30.1-8.6c-1.7-0.5-3.1-1.9-3.5-3.6c-2.8-11.4-7.3-22.2-13.4-32.3
				c-0.9-1.5-1-3.5-0.1-5l15.2-27.4c0.2-0.4,0.1-0.9-0.2-1.2L434.3,223c-0.3-0.3-0.8-0.4-1.2-0.2l-27.4,15.2c-1.6,0.9-3.5,0.8-5-0.1
				c-10-6.1-20.9-10.6-32.3-13.4c-1.7-0.4-3.1-1.8-3.6-3.5l-8.6-30.1c-0.1-0.4-0.5-0.7-0.9-0.7h-29.1c-0.4,0-0.8,0.3-0.9,0.7
				l-8.6,30.1c-0.5,1.7-1.9,3.1-3.6,3.5c-11.4,2.8-22.2,7.3-32.3,13.4c-1.5,0.9-3.5,1-5,0.1l-27.4-15.2c-0.4-0.2-0.9-0.1-1.2,0.2
				l-20.6,20.6c-0.3,0.3-0.4,0.8-0.2,1.2l15.2,27.4c0.9,1.6,0.8,3.5-0.1,5c-6.1,10-10.6,20.9-13.4,32.3c-0.4,1.7-1.8,3.1-3.5,3.6
				l-30.1,8.6c-0.4,0.1-0.7,0.5-0.7,0.9v29.1c0,0.4,0.3,0.8,0.7,0.9l30.1,8.6c1.7,0.5,3.1,1.9,3.5,3.6c2.8,11.4,7.3,22.2,13.4,32.3
				c0.9,1.5,1,3.5,0.1,5l-15.2,27.4c-0.2,0.4-0.1,0.9,0.2,1.2l20.6,20.6c0.3,0.3,0.8,0.4,1.2,0.2l27.4-15.2
				C276.5,435.8,277.3,435.6,278.2,435.6L278.2,435.6z"/>
			<path class="st4" d="M109.3,368.7H93.5c-3.7,0-6.9-2.5-7.9-6l-3.9-13.5c-4.9-1.4-9.7-3.4-14.2-5.9l-12.3,6.9
				c-3.2,1.8-7.2,1.2-9.8-1.4l-11.1-11.1c-2.6-2.6-3.1-6.6-1.4-9.8l6.9-12.3c-2.5-4.5-4.5-9.3-5.9-14.2l-13.5-3.9
				c-3.5-1-6-4.3-6-7.9v-15.7c0-3.7,2.5-6.9,6-7.9l13.5-3.9c1.4-4.9,3.4-9.7,5.9-14.2L33,235.6c-1.8-3.2-1.2-7.2,1.4-9.8l11.1-11.1
				c2.6-2.6,6.6-3.1,9.8-1.4l12.3,6.9c4.5-2.5,9.3-4.4,14.2-5.9l3.9-13.5c1-3.5,4.3-6,7.9-6h15.7c3.7,0,6.9,2.5,7.9,6l3.9,13.5
				c4.9,1.4,9.7,3.4,14.2,5.9l12.3-6.9c3.2-1.8,7.2-1.2,9.8,1.4l11.1,11.1c2.6,2.6,3.1,6.6,1.4,9.8l-6.9,12.3
				c2.5,4.5,4.4,9.3,5.9,14.2l13.5,3.9c3.5,1,6,4.3,6,7.9v15.7c0,3.7-2.5,6.9-6,7.9l-13.5,3.9c-1.4,4.9-3.4,9.7-5.9,14.2l6.9,12.3
				c1.8,3.2,1.2,7.2-1.4,9.8l-11.1,11.1c-2.6,2.6-6.6,3.1-9.8,1.4l-12.3-6.9c-4.5,2.5-9.3,4.5-14.2,5.9l-3.9,13.5
				C116.2,366.3,112.9,368.7,109.3,368.7L109.3,368.7z M94.9,358.7h13.1l4.3-15c0.5-1.7,1.9-3.1,3.6-3.5c5.9-1.5,11.6-3.8,16.8-7
				c1.5-0.9,3.5-1,5-0.1l13.6,7.6l9.2-9.2l-7.6-13.6c-0.9-1.6-0.8-3.5,0.1-5c3.2-5.2,5.5-10.9,7-16.8c0.4-1.7,1.8-3.1,3.5-3.6
				l15-4.3v-13.1l-15-4.3c-1.7-0.5-3.1-1.9-3.5-3.6c-1.5-5.9-3.8-11.6-7-16.8c-0.9-1.5-1-3.5-0.1-5l7.6-13.6l-9.2-9.2l-13.6,7.6
				c-1.6,0.9-3.5,0.8-5-0.1c-5.2-3.2-10.9-5.5-16.8-7c-1.7-0.4-3.1-1.8-3.6-3.5l-4.3-15H94.9l-4.3,15c-0.5,1.7-1.9,3.1-3.6,3.5
				c-5.9,1.5-11.6,3.8-16.8,7c-1.5,0.9-3.5,1-5,0.1l-13.6-7.6l-9.2,9.2l7.6,13.6c0.9,1.6,0.8,3.5-0.1,5c-3.2,5.2-5.5,10.9-7,16.8
				c-0.4,1.7-1.8,3.1-3.5,3.6l-15,4.3v13.1l15,4.3c1.7,0.5,3.1,1.9,3.5,3.6c1.5,5.9,3.8,11.6,7,16.8c0.9,1.5,1,3.5,0.1,5l-7.6,13.6
				l9.2,9.2l13.6-7.6c1.6-0.9,3.5-0.8,5,0.1c5.2,3.2,10.9,5.5,16.8,7c1.7,0.4,3.1,1.8,3.6,3.5L94.9,358.7z M179.7,275.6L179.7,275.6
				L179.7,275.6z M179.7,275.6C179.7,275.6,179.7,275.6,179.7,275.6L179.7,275.6z"/>
			<path class="st4" d="M101.4,312.5c-17,0-30.8-13.8-30.8-30.8s13.8-30.8,30.8-30.8s30.8,13.8,30.8,30.8
				C132.2,298.7,118.4,312.5,101.4,312.5z M101.4,260.9c-11.5,0-20.8,9.3-20.8,20.8s9.3,20.8,20.8,20.8s20.8-9.3,20.8-20.8
				S112.9,260.9,101.4,260.9z"/>
			<path class="st4" d="M213.2,220.6h-16.9c-3.8,0-7.1-2.5-8.1-6.2l-4.2-14.8c-5.4-1.6-10.7-3.7-15.6-6.5l-13.4,7.5
				c-3.3,1.8-7.5,1.2-10.1-1.4l-12-12c-2.7-2.7-3.2-6.8-1.4-10.1l7.5-13.5c-2.7-4.9-4.9-10.2-6.5-15.6l-14.8-4.2
				c-3.6-1-6.2-4.4-6.2-8.2v-16.9c0-3.8,2.5-7.1,6.2-8.2l14.8-4.2c1.6-5.4,3.7-10.7,6.5-15.6l-7.5-13.4c-1.8-3.3-1.2-7.5,1.4-10.1
				l12-12c2.7-2.7,6.8-3.2,10.1-1.4l13.5,7.5c4.9-2.7,10.2-4.9,15.6-6.5l4.2-14.8c1-3.6,4.4-6.2,8.1-6.2h16.9c3.8,0,7.1,2.5,8.2,6.2
				l4.2,14.8c5.4,1.6,10.7,3.7,15.6,6.5l13.4-7.5c3.3-1.8,7.5-1.2,10.1,1.4l12,12c2.7,2.7,3.2,6.8,1.4,10.1l-7.5,13.5
				c2.7,4.9,4.9,10.2,6.5,15.6l14.8,4.2c3.6,1,6.2,4.4,6.2,8.2v16.9c0,3.8-2.5,7.1-6.2,8.2l-14.8,4.2c-1.6,5.4-3.7,10.7-6.5,15.6
				l7.5,13.4c1.8,3.3,1.2,7.5-1.4,10.1l-12,12c-2.7,2.7-6.8,3.2-10.1,1.4l-13.5-7.5c-4.9,2.7-10.2,4.9-15.6,6.5l-4.2,14.8
				C220.3,218.1,216.9,220.6,213.2,220.6L213.2,220.6z M197.4,210.6H212l4.7-16.4c0.5-1.7,1.9-3.1,3.6-3.5
				c6.4-1.6,12.5-4.1,18.2-7.5c1.5-0.9,3.5-1,5-0.1l14.9,8.3l10.3-10.3l-8.3-14.9c-0.9-1.6-0.8-3.5,0.1-5c3.4-5.6,6-11.8,7.5-18.2
				c0.4-1.7,1.8-3.1,3.5-3.6l16.4-4.7V120l-16.4-4.7c-1.7-0.5-3.1-1.9-3.5-3.6c-1.6-6.4-4.1-12.5-7.5-18.2c-0.9-1.5-1-3.5-0.1-5
				l8.3-14.9l-10.3-10.3l-14.9,8.3c-1.6,0.9-3.5,0.8-5-0.1c-5.6-3.4-11.8-6-18.2-7.5c-1.7-0.4-3.1-1.8-3.6-3.5L212,44h-14.6
				l-4.7,16.4c-0.5,1.7-1.9,3.1-3.6,3.5c-6.4,1.6-12.5,4.1-18.2,7.5c-1.5,0.9-3.5,1-5,0.1L151,63.2l-10.3,10.3l8.3,14.9
				c0.9,1.6,0.8,3.5-0.1,5c-3.4,5.6-6,11.8-7.5,18.2c-0.4,1.7-1.8,3.1-3.5,3.6l-16.4,4.7v14.6l16.4,4.7c1.7,0.5,3.1,1.9,3.5,3.6
				c1.6,6.4,4.1,12.5,7.5,18.2c0.9,1.5,1,3.5,0.1,5l-8.3,14.9l10.3,10.3l14.9-8.3c1.6-0.9,3.5-0.8,5,0.1c5.6,3.4,11.8,6,18.2,7.5
				c1.7,0.4,3.1,1.8,3.6,3.5L197.4,210.6z M204.7,166.7c-5.3,0-10.4-1-15.2-3.1c-2.5-1.1-3.7-4-2.7-6.5c1.1-2.5,4-3.7,6.5-2.7
				c3.6,1.5,7.4,2.3,11.4,2.3c16.2,0,29.4-13.2,29.4-29.4S220.9,98,204.7,98s-29.4,13.2-29.4,29.4c0,3.5,0.6,6.8,1.8,10.1
				c0.9,2.6-0.4,5.5-3,6.4c-2.6,0.9-5.5-0.4-6.4-3c-1.6-4.3-2.4-8.9-2.4-13.5c0-21.7,17.7-39.4,39.4-39.4s39.4,17.7,39.4,39.4
				C244.1,149,226.4,166.7,204.7,166.7L204.7,166.7z"/>
		</g>
	</g>
	<path class="st3" d="M153,412.1c-1.3,0-2.6-0.5-3.5-1.5l-11-11c-2-2-2-5.1,0-7.1l11-11c0.9-0.9,2.2-1.5,3.5-1.5s2.6,0.5,3.5,1.5
		l11,11c0.9,0.9,1.5,2.2,1.5,3.5s-0.5,2.6-1.5,3.5l-11,11C155.5,411.6,154.2,412.1,153,412.1L153,412.1z M149,396.1l3.9,3.9l3.9-3.9
		l-3.9-3.9L149,396.1z"/>
	<path class="st3" d="M352.5,148.3c-2.8,0-5-2.2-5-5c0-3.3-2.7-6-6-6c-2.8,0-5-2.2-5-5s2.2-5,5-5c3.3,0,6-2.7,6-6c0-2.8,2.2-5,5-5
		s5,2.2,5,5c0,3.3,2.7,6,6,6c2.8,0,5,2.2,5,5s-2.2,5-5,5c-3.3,0-6,2.7-6,6C357.5,146.1,355.3,148.3,352.5,148.3z"/>
	<path class="st3" d="M183.4,461.6c-2.8,0-5-2.2-5-5c0-3.3-2.7-6-6-6c-2.8,0-5-2.2-5-5s2.2-5,5-5c3.3,0,6-2.7,6-6c0-2.8,2.2-5,5-5
		s5,2.2,5,5c0,3.3,2.7,6,6,6c2.8,0,5,2.2,5,5s-2.2,5-5,5c-3.3,0-6,2.7-6,6C188.4,459.4,186.2,461.6,183.4,461.6z"/>
	<path class="st3" d="M75.6,173c-2.8,0-5-2.2-5-5c0-3.3-2.7-6-6-6c-2.8,0-5-2.2-5-5s2.2-5,5-5c3.3,0,6-2.7,6-6c0-2.8,2.2-5,5-5
		s5,2.2,5,5c0,3.3,2.7,6,6,6c2.8,0,5,2.2,5,5s-2.2,5-5,5c-3.3,0-6,2.7-6,6C80.6,170.7,78.4,173,75.6,173z"/>
</g>
<path class="st4" d="M341.6,256.4c-44.5,0-81.6,36.3-81.6,80.7s36.3,80.7,79.8,80.7c45.4,0,81.6-36.3,81.6-80.7
	S385.2,256.4,341.6,256.4z M308.1,401.5c-4.5-1.8-9.1-5.4-13.6-8.2c-16.3-13.6-25.4-30.8-26.3-51.7c-0.9-10.9,0.9-21.8,5.4-32.7
	c0-0.9,0-1.8,0.9-1.8c0,0.9,0,1.8,0.9,1.8l32.7,89.8C308.1,399.7,308.1,400.6,308.1,401.5L308.1,401.5L308.1,401.5z M362.5,406.1
	c-13.6,4.5-27.2,4.5-40.8,0.9c-1.8,0-1.8-0.9-0.9-2.7c6.4-19.1,13.6-39,20-58.1c0-0.9,0-0.9,0.9-1.8c0.9,1.8,1.8,3.6,1.8,5.4
	c6.4,18.1,12.7,36.3,20,53.5C364.3,405.2,364.3,405.2,362.5,406.1z M377,379.8c-0.9,0-0.9-0.9-0.9-1.8
	c-8.2-24.5-16.3-48.1-24.5-72.6c-0.9-2.7-0.9-2.7,1.8-2.7c1.8,0,3.6,0,5.4-0.9c1.8,0,2.7-1.8,2.7-3.6s-0.9-2.7-2.7-2.7
	c-4.5,0-9.1,0.9-13.6,0.9c-8.2,0-15.4,0-23.6-0.9h-0.9c-1.8,0-2.7,0.9-2.7,2.7s0.9,2.7,2.7,2.7s4.5,0.9,6.4,0.9c0.9,0,1.8,0,1.8,1.8
	c1.8,10,5.4,20,9.1,29c0,0.9,0,1.8,0,2.7c-4.5,14.5-10,29-14.5,44.5c0,0.9,0,0.9-0.9,0.9c-0.9-0.9-0.9-0.9-0.9-1.8
	c-8.2-24.5-16.3-49-24.5-73.5c-0.9-2.7-0.9-2.7,1.8-2.7c1.8,0,3.6,0,5.4-0.9c1.8,0,3.6-1.8,3.6-3.6s-1.8-2.7-3.6-2.7
	c-5.4,0-11.8,0.9-17.2,0.9c-0.9,0-2.7,0-3.6,0s-0.9,0-1.8,0c0,0,0-0.9,0.9-0.9c0.9-4.5,4.5-8.2,8.2-11.8
	c11.8-10.9,25.4-17.2,40.8-19.1c20.9-2.7,39.9,3.6,56.2,17.2l0.9,0.9h-0.9c-8.2,0.9-12.7,8.2-10.9,15.4c0.9,3.6,2.7,7.3,4.5,10
	s3.6,5.4,4.5,8.2c3.6,8.2,4.5,16.3,2.7,25.4c-3.6,11.8-7.3,24.5-10.9,36.3C377,378.9,377,379.8,377,379.8z M377.9,398.8
	c0-0.9,0-1.8,0.9-2.7c7.3-21.8,15.4-43.5,22.7-65.3c2.7-9.1,4.5-17.2,3.6-27.2v-0.9c9.1,18.1,10.9,37.2,4.5,56.2
	C404.2,375.2,387,396.1,377.9,398.8z"/>
</svg>
