<svg xmlns="http://www.w3.org/2000/svg" viewBox="0 0 18.156 18.156"><path fill="#323232" d="M9.152.156C4.222.125.16 4.164.187 9.063c0 4.89 3.992 8.897 8.862 8.897 4.918.004 8.935-3.992 8.938-8.891.001-4.881-3.991-8.881-8.835-8.913zM5.54 16.219c-.559-.234-1.051-.578-1.516-.961-1.777-1.479-2.762-3.383-2.93-5.691a7.705 7.705 0 0 1 .573-3.519c.024-.059.028-.16.11-.152.063.004.067.097.087.152l3.609 9.886c.03.086.055.181.082.271v.012l-.015.002zm5.999.457a8.005 8.005 0 0 1-4.508.117c-.203-.047-.184-.145-.133-.293a2207.489 2207.489 0 0 0 2.223-6.445c.023-.07.031-.147.125-.227.082.23.164.438.242.648.723 1.983 1.445 3.965 2.172 5.948.055.146.028.205-.121.252zm1.551-2.871c-.086-.055-.091-.133-.112-.193-.898-2.674-1.802-5.348-2.699-8.024-.09-.269-.09-.269.199-.297a7.89 7.89 0 0 0 .612-.066c.211-.031.32-.172.302-.36-.017-.179-.143-.289-.349-.281-.5.02-1 .059-1.5.078-.876.03-1.747-.025-2.622-.076-.043-.003-.086-.008-.129-.003-.19.007-.308.112-.328.296-.015.168.091.313.278.34.226.035.458.059.688.074.112.012.184.043.223.156a924.5 924.5 0 0 0 1.156 3.168c.03.09.016.172-.013.254-.543 1.617-1.082 3.234-1.621 4.852-.015.051-.022.112-.081.147-.071-.038-.074-.112-.094-.175-.91-2.703-1.819-5.41-2.726-8.117-.09-.265-.09-.265.186-.288.192-.016.389-.032.58-.059.237-.032.366-.171.351-.356-.02-.199-.157-.301-.407-.292-.642.023-1.28.093-1.925.082-.148 0-.302 0-.449-.004-.055 0-.125.024-.152-.043-.017-.048.03-.09.059-.133a7.48 7.48 0 0 1 1.125-1.297C4.915 2.02 6.407 1.305 8.126 1.113c2.328-.261 4.398.372 6.195 1.891.035.031.086.051.086.113-.023.039-.066.032-.102.039-.863.114-1.402.86-1.234 1.723.074.406.266.762.477 1.113.185.305.38.602.531.922.435.895.527 1.824.254 2.773-.383 1.342-.793 2.672-1.19 4.008-.01.032-.034.063-.053.11zm.066 2.099c-.012-.1.039-.187.066-.269.84-2.418 1.68-4.827 2.516-7.241.332-.961.5-1.946.387-2.965 0-.031-.008-.063.043-.106 1.021 2.02 1.203 4.102.517 6.25-.576 1.771-2.455 4.068-3.529 4.331z"/></svg>