<?xml version="1.0" encoding="utf-8"?>
<!-- Generator: Adobe Illustrator 16.0.0, SVG Export Plug-In . SVG Version: 6.00 Build 0)  -->
<!DOCTYPE svg PUBLIC "-//W3C//DTD SVG 1.1//EN" "http://www.w3.org/Graphics/SVG/1.1/DTD/svg11.dtd">
<svg version="1.1" id="レイヤー_1" xmlns="http://www.w3.org/2000/svg" xmlns:xlink="http://www.w3.org/1999/xlink" x="0px"
	 y="0px" width="313px" height="421px" viewBox="0 0 313 421" enable-background="new 0 0 313 421" xml:space="preserve">
<g>
	<path fill="none" d="M45.547,337.904c-0.006,0.061-0.01,0.123-0.016,0.186C45.536,338.027,45.543,337.965,45.547,337.904z"/>
	<path fill="none" d="M47.668,323.625c-0.912,4.09-1.552,8.191-1.95,12.303c1.482-15.984,6.574-29.543,12.392-40.973
		C53.171,304.805,49.791,314.113,47.668,323.625z"/>
	<path fill="#FFFFFF" d="M36.816,376.014c1.803,5.182,4.056,10.527,7.124,14.994c-3.725,3.617-7.954,6.453-12.894,8.645
		c-2.832-1.881-9.678-7.492-12.018-18.873c2.425,0.572,5.222,0.559,8.186-0.09C30.985,379.863,34.389,378.164,36.816,376.014z"/>
	<path fill="#FFFFFF" d="M51.074,367.012c0.006-1,0.289-8.139,0.42-9.254c2.16-18.201,4.166-32.234,10.342-47.139
		c0.453-1.096,0.916-2.16,1.371-3.209c3.001-6.91,5.837-13.436,3.407-22.668l-0.91-3.461l-1.815,3.084
		c-0.057,0.096-0.11,0.191-0.166,0.287c0.922-3.049,2.564-5.666,4.197-7.895l2.719,0.012c2.034,0.01,4.004-0.191,5.858-0.596
		c5.439-1.191,9.836-4.162,12.381-8.365c2.66-4.395,3.212-9.844,1.598-15.758l-0.487-1.785c0.447-0.434,0.9-0.867,1.335-1.295
		c1.997-1.963,3.891-3.822,6.167-5.385c3.747,4.672,8.174,9.732,13.584,12.592c12.976,6.869,30.602,10.514,43.104,12.361
		c17.338,2.559,35.848,1.598,56.584-2.939c8.33-1.822,16.988-4.201,26.448-7.268c11.321,15.766,14.71,43.178,16.274,62.523
		c1.639,20.279,2.639,41.211-4.28,55.418c-2.678-3.006-5.489-6.598-8.688-10.686l-0.165-0.209c-1.473-1.881-2.994-3.824-4.605-5.84
		c-0.483-0.605-1.055-1.363-1.713-2.238c-4.653-6.193-11.687-15.553-19.091-13.934c-1.059,0.232-2.071,0.689-3.011,1.355
		l-0.625,0.445c-0.264,0.188-0.421,0.492-0.421,0.816l0.001,0.77c0,3.43,1.215,7.418,2.501,11.641
		c1.152,3.785,2.336,7.67,2.619,11.08c-5.205-6.264-12.609-12.594-24.322-12.908c-1.221-5.527-3.259-9.074-5.412-12.82
		c-0.822-1.43-1.754-3.049-2.646-4.836c-11.148-22.389-21.983-35.256-37.394-44.408c-1.688-1.002-7.58-4.182-12.542-3.096
		c-2.945,0.645-5.045,2.613-6.073,5.693l-0.253,0.758c-0.106,0.318-0.046,0.668,0.16,0.932l0.493,0.631
		c2.127,2.717,5.107,2.938,7.284,3.1c0.965,0.07,1.873,0.137,2.563,0.383c3.544,1.258,9.096,5.615,12.964,8.781
		c12.923,10.592,25.582,33.564,29.445,53.436l0.129,0.662c0.056,0.281,0.229,0.525,0.477,0.672l0.578,0.338
		c3.247,1.912,6.733,1.787,10.103,1.668c2.941-0.104,5.72-0.201,7.57,1.301c1.7,1.381,5.105,6.574,5.349,10.576
		c0.146,2.43-3.82,8.307-7.316,10.844c-3.033,2.203-7.854,3.975-15.173,5.576c-4.163,0.91-8.833,1.703-12.953,2.4
		c-3.949,0.67-8.065,1.441-11.696,2.123c-7.247,1.361-14.091,2.646-20.016,3.301c-14.447,1.598-29.1,0.1-40.874-1.104
		c-2.924-0.301-5.638-0.15-8.263-0.006c-2.167,0.117-4.187,0.227-6.014,0.061c-11.891-1.072-17.95-7.049-24.634-14.752
		c-3.125-3.598-5.873-8.49-7.845-13.832c0.954,1.697,2.099,3.307,3.145,4.934C51.755,375.152,51.051,370.93,51.074,367.012z"/>
	<path fill="#FFFFFF" d="M285.622,155.524c-19.468-27.305-48.083-42.572-92.787-49.502l-1.037-0.161
		c-0.418-0.064-0.75-0.384-0.829-0.799l-0.198-1.03c-3.496-18.174-11.53-30.938-18.927-41.027
		c-15.021-20.48-32.043-43.694-61.873-46.067c-3.746-0.297-7.084-0.157-9.658,0.406c-2.798,0.612-4.545,1.651-5.193,3.088
		c-0.74,1.642-0.186,4.205,1.604,7.41l0.079,0.14c0.036,0.063,0.064,0.129,0.085,0.198l0.047,0.153
		c0.162,0.535,0.342,1.058,0.532,1.576c6.99,9.64,18.513,15.096,29.844,21.235c15.022,8.138,30.553,16.553,36.624,34.78
		c2.872,8.621,3.92,19.723,2.771,28.215l-1.065,2.63l-0.567-1.188c-1.019,1.895-2.303,2.996-3.892,3.344
		c-3.874,0.848-7.053-3.213-10.13-7.145c-0.945-1.21-1.84-2.352-2.643-3.2c-2.133-2.252-4.07-4.082-5.78-5.698l-0.104-0.097
		c-1.465-1.386-2.729-2.584-3.85-3.788c-2.819-3.025-5.396-6.211-7.889-9.291c-3.474-4.29-6.753-8.342-10.248-11.455
		c-7.489-6.671-19.646-11.615-29.418-15.589l-2.028-0.825c-11.969-4.887-22.889-8.718-35.221-6.091
		c-0.929,2.117-1.359,4.06-0.816,6.673c5.571,10.335,16.458,12.634,27.95,15.054c6.45,1.356,13.119,2.76,18.759,5.715
		c13.542,7.096,22.638,17.793,33.771,33.873l2.086,3.013l-0.7-0.137c2.45,5.46-3.339,16.603-3.603,17.104
		c-1.811,3.474-4.699,6.306-7.494,9.045c-1.872,1.834-3.806,3.731-5.322,5.749c-1.633,2.176-3.237,4.671-4.954,7.343l-0.105,0.164
		c-1.431,2.228-2.912,4.53-4.484,6.74c-3.589,5.048-6.957,9.932-8.72,14.188c-4.441,10.716-8.147,27.493-0.574,46.556
		c1.87,4.711,10.015,13.652,14.341,16.992c10.544,8.15,32.037,12.566,48.635,13.98c14.149,1.209,29.536-0.064,47.04-3.895
		c4.449-0.975,9.164-2.143,14.012-3.473l1.286-0.354c20.455-5.607,39.777-10.906,53.149-22.438
		C295.672,212.514,303.525,180.639,285.622,155.524z M189.442,153.705c-2.366,5.09-10.827,5.505-15.458,0.6
		c-0.698,0.327-1.439,0.596-2.212,0.788c-0.17,0.043-0.34,0.082-0.509,0.119c-5.515,1.207-9.721-0.578-10.978-4.659
		c-0.296-0.96-0.185-1.955,0.324-2.877c1.508-2.738,6.215-4.198,7.623-4.581l0.062-0.017l0.063-0.011
		c0.854-0.155,1.632-0.24,2.356-0.282C173.1,125.625,197.669,136.032,189.442,153.705z M226.482,166.811l-1.124,1.085
		c0.242-0.151,0.509-0.332,0.913-0.653c0.558-0.444,1.212-0.758,1.891-0.906c1.625-0.356,3.276,0.232,4.311,1.531
		c0.727,0.915,1.088,2.115,0.992,3.294c-0.101,1.245-0.675,2.344-1.619,3.093c-0.701,0.558-1.082,0.811-1.45,1.056
		c-0.33,0.218-0.643,0.425-1.246,0.903c-0.601,0.478-0.872,0.736-1.158,1.009c-0.322,0.305-0.655,0.621-1.358,1.179l-0.814,0.645
		c-0.474,0.374-0.722,0.568-1.296,1.047c0.276,0.817,0.777,2.008,1.496,3.386c0.656,1.261,1.419,2.552,2.55,3.461
		c0.667,0.536,1.583,0.861,2.554,1.208c0.985,0.35,1.877,0.646,2.824,0.714c0.489,0.034,1.064-0.072,1.728-0.194
		c0.409-0.076,0.829-0.154,1.283-0.208c2.355-0.285,4.523,1.583,4.836,4.163c0.282,2.34-1.088,4.388-3.265,4.891
		c-0.102,0.048-0.208,0.083-0.319,0.107l-0.071,0.016l-0.07,0.008c-1.257,0.152-2.601,0.287-3.914,0.246
		c-1.408-0.043-2.741-0.206-3.956-0.482c-1.324-0.299-2.472-0.847-3.582-1.377l-0.168-0.08c-0.19-0.091-0.383-0.181-0.576-0.27
		c-0.994-0.461-2.024-0.938-2.963-1.691c-0.361-0.291-0.682-0.619-0.974-0.953c-0.198,0.312-0.403,0.623-0.613,0.935l-0.142,0.214
		c-0.67,1.004-1.361,2.042-2.322,2.938c-1.011,0.941-2.166,1.664-3.265,2.304c-0.245,0.142-0.489,0.292-0.736,0.445
		c-0.802,0.493-1.712,1.056-2.768,1.424c-0.781,0.273-1.647,0.512-2.646,0.731c-0.229,0.05-0.459,0.098-0.679,0.142
		c-0.19,0.125-0.379,0.187-0.518,0.217l-0.092,0.017c-2.284,0.352-4.439-1.343-4.91-3.859c-0.46-2.467,0.956-4.787,3.227-5.284
		l0.127-0.026c0.311-0.059,0.618-0.111,0.924-0.166c0.546-0.095,1.062-0.186,1.548-0.292c0.846-0.185,1.434-0.383,1.91-0.643
		c1.264-0.689,2.172-1.872,2.966-3.05c0.886-1.315,1.476-2.682,1.703-3.95c0.251-1.402,0.305-2.677,0.289-3.573l-0.845-0.403
		c-0.957-0.458-1.367-0.654-2.938-1.385c-1.086-0.503-1.623-0.768-2.159-1.032c-0.523-0.256-1.046-0.513-2.101-1.004
		c-2.186-1.015-3.097-3.702-2.035-5.989c0.59-1.27,1.687-2.165,3.008-2.454c0.821-0.18,1.668-0.1,2.475,0.205
		C222.163,171.07,226.482,166.811,226.482,166.811z M251.235,140.189c-0.61,3.892-6.741,4.601-8.606,4.727
		c-0.156,0.011-0.324,0.01-0.491,0.011c-0.016,0.27-0.03,0.541-0.037,0.815c-12.129,18.923-28.556-7.637-17.726-15.95
		c6.135-4.708,12.569-0.677,15.866,4.542c0.932-0.194,1.965-0.342,3.146-0.421l0.114-0.008l0.114,0.011
		c2.508,0.222,5.268,0.695,6.733,2.541C251.146,137.46,251.445,138.709,251.235,140.189z"/>
	<path fill="#726541" d="M18.327,375.568l-0.007-0.105c-0.003-0.047-0.01-0.092-0.019-0.137l-0.021-0.102
		c-0.251-1.193-1.015-4.826,4.862-6.113c4.684-1.023,10.234,0.287,12.103,2.123c0.486,1.557,1.008,3.16,1.571,4.779
		c-2.428,2.15-5.832,3.85-9.603,4.676c-2.963,0.648-5.76,0.662-8.186,0.09C18.695,379.16,18.453,377.426,18.327,375.568z"/>
	<path fill="#726541" d="M88.879,267.809c-2.545,4.203-6.941,7.174-12.381,8.365c-1.854,0.404-3.824,0.605-5.858,0.596l-2.719-0.012
		c0.291-0.396,0.58-0.783,0.866-1.154c0.018-0.021,0.069-0.09,0.084-0.115c5.062-7.725,10.596-15.779,17.97-22.361
		c1.113-0.92,2.143-1.891,3.148-2.861l0.487,1.785C92.091,257.965,91.539,263.414,88.879,267.809z"/>
	<path fill="#726541" d="M58.11,294.955c1.754-3.445,3.572-6.699,5.377-9.766l0.094-0.162c0.037-0.064,0.066-0.133,0.089-0.203
		l0.053-0.168c0-0.002,0-0.004,0.001-0.004c0.056-0.096,0.109-0.191,0.166-0.287l1.815-3.084l0.91,3.461
		c2.43,9.232-0.406,15.758-3.407,22.668c-0.455,1.049-0.918,2.113-1.371,3.209c-6.177,14.904-8.183,28.938-10.342,47.139
		c-0.132,1.115-0.414,8.254-0.42,9.254c-0.023,3.918,0.681,8.141,1.767,12.869c-1.046-1.627-2.191-3.236-3.145-4.934
		c-0.53-1.434-1.016-2.895-1.424-4.379c-2.751-11.783-3.445-22.586-2.741-32.479c0.005-0.063,0.01-0.125,0.016-0.186
		c0.047-0.664,0.109-1.32,0.17-1.977c0.398-4.111,1.038-8.213,1.95-12.303C49.791,314.113,53.171,304.805,58.11,294.955z"/>
	<path fill="#726541" d="M81.003,77.476c6.45,1.356,13.119,2.76,18.759,5.715c13.542,7.096,22.638,17.793,33.771,33.873l2.086,3.013
		l-0.7-0.137c-0.171-0.38-0.38-0.734-0.635-1.053l-0.343-0.429c-0.148-0.185-0.357-0.31-0.589-0.355l-0.536-0.105
		c-2.621-0.512-5.393-2.62-8.327-4.852c-2.002-1.522-4.059-3.085-6.235-4.264c-5.584-3.024-12.081-5.677-18.958-8.486
		c-7.653-3.125-15.557-6.353-22.767-10.335c-7.637-4.218-20.823-13.33-23.335-26.957c-0.004-0.023-0.018-0.095-0.024-0.118
		c-0.05-0.194-0.081-0.376-0.119-0.564C58.625,72.757,69.512,75.056,81.003,77.476z"/>
	<path fill="#726541" d="M127.309,51.146c15.022,8.138,30.553,16.553,36.624,34.78c2.872,8.621,3.92,19.723,2.771,28.215
		l-1.065,2.63l-0.567-1.188c0.346-0.642,0.661-1.374,0.946-2.2l0.228-0.656c0.096-0.279,0.063-0.586-0.088-0.84l-0.356-0.595
		c-5.408-9.053-11.643-16.152-18.643-23.838c-0.984-1.082-1.953-2.19-2.887-3.262c-2.103-2.406-4.238-4.849-6.6-7.044
		c-1.781-1.658-3.75-2.984-5.653-4.268c-1.906-1.283-3.701-2.49-5.294-3.997c-3.693-3.486-6.86-7.67-10.213-12.101
		c-1.789-2.364-3.609-4.77-5.518-7.07c-0.707-0.853-1.429-1.708-2.158-2.57c-4.408-5.214-8.948-10.592-11.371-17.231
		C104.455,39.55,115.978,45.007,127.309,51.146z"/>
	<path fill="#FFFFFF" d="M225.042,168.086c-0.388,0.228-0.827,0.486-1.573,1.078c-0.775,0.616-1.122,1.021-1.431,1.38
		c-0.262,0.307-0.47,0.547-1.021,0.986c-0.556,0.442-0.896,0.836-1.145,1.124c-0.097,0.112-0.228,0.265-0.271,0.293
		c0,0-0.021,0.012-0.084,0.025c-0.07,0.015-0.196,0.034-0.413,0.042c-0.898,0.031-1.027-0.065-1.567-0.466
		c-0.395-0.293-0.936-0.695-1.806-1.1c-1.028-0.477-1.547-0.702-2.065-0.928c-0.502-0.22-1.005-0.439-1.999-0.9
		c-0.106-0.049-0.216-0.081-0.325-0.122c10.821,1.571,15.141-2.688,15.141-2.688l-1.124,1.085
		C225.252,167.961,225.148,168.023,225.042,168.086z"/>
	
		<linearGradient id="SVGID_1_" gradientUnits="userSpaceOnUse" x1="120.5757" y1="175.4209" x2="120.5757" y2="189.2243" gradientTransform="matrix(-0.9884 0.1519 0.1519 0.9884 309.9675 -33.1619)">
		<stop  offset="0" style="stop-color:#FFFFFF"/>
		<stop  offset="0.3726" style="stop-color:#FDFDFD"/>
		<stop  offset="0.5069" style="stop-color:#F6F6F6"/>
		<stop  offset="0.6026" style="stop-color:#EBEBEB"/>
		<stop  offset="0.68" style="stop-color:#DADADA"/>
		<stop  offset="0.7463" style="stop-color:#C4C4C4"/>
		<stop  offset="0.805" style="stop-color:#A8A8A8"/>
		<stop  offset="0.8581" style="stop-color:#888888"/>
		<stop  offset="0.9069" style="stop-color:#626262"/>
		<stop  offset="0.9523" style="stop-color:#373737"/>
		<stop  offset="0.9926" style="stop-color:#090909"/>
		<stop  offset="1" style="stop-color:#000000"/>
	</linearGradient>
	<path fill="url(#SVGID_1_)" d="M225.042,168.086c-0.388,0.228-0.827,0.486-1.573,1.078c-0.775,0.616-1.122,1.021-1.431,1.38
		c-0.262,0.307-0.47,0.547-1.021,0.986c-0.556,0.442-0.896,0.836-1.145,1.124c-0.097,0.112-0.228,0.265-0.271,0.293
		c0,0-0.021,0.012-0.084,0.025c-0.07,0.015-0.196,0.034-0.413,0.042c-0.898,0.031-1.027-0.065-1.567-0.466
		c-0.395-0.293-0.936-0.695-1.806-1.1c-1.028-0.477-1.547-0.702-2.065-0.928c-0.502-0.22-1.005-0.439-1.999-0.9
		c-0.106-0.049-0.216-0.081-0.325-0.122c10.821,1.571,15.141-2.688,15.141-2.688l-1.124,1.085
		C225.252,167.961,225.148,168.023,225.042,168.086z"/>
	<path fill="#040000" d="M213.666,170.521c0.519,0.226,1.037,0.452,2.065,0.928c0.87,0.405,1.411,0.807,1.806,1.1
		c0.54,0.401,0.669,0.497,1.567,0.466c0.217-0.008,0.343-0.027,0.413-0.042c0.063-0.014,0.084-0.025,0.084-0.025
		c0.044-0.028,0.175-0.181,0.271-0.293c0.249-0.288,0.589-0.682,1.145-1.124c0.551-0.439,0.759-0.679,1.021-0.986
		c0.309-0.359,0.655-0.764,1.431-1.38c0.746-0.592,1.186-0.851,1.573-1.078c0.106-0.063,0.21-0.125,0.316-0.19
		c0.242-0.151,0.509-0.332,0.913-0.653c0.558-0.444,1.212-0.758,1.891-0.906c1.625-0.356,3.276,0.232,4.311,1.531
		c0.727,0.915,1.088,2.115,0.992,3.294c-0.101,1.245-0.675,2.344-1.619,3.093c-0.701,0.558-1.082,0.811-1.45,1.056
		c-0.33,0.218-0.643,0.425-1.246,0.903c-0.601,0.478-0.872,0.736-1.158,1.009c-0.322,0.305-0.655,0.621-1.358,1.179l-0.814,0.645
		c-0.474,0.374-0.722,0.568-1.296,1.047c0.276,0.817,0.777,2.008,1.496,3.386c0.656,1.261,1.419,2.552,2.55,3.461
		c0.667,0.536,1.583,0.861,2.554,1.208c0.985,0.35,1.877,0.646,2.824,0.714c0.489,0.034,1.064-0.072,1.728-0.194
		c0.409-0.076,0.829-0.154,1.283-0.208c2.355-0.285,4.523,1.583,4.836,4.163c0.282,2.34-1.088,4.388-3.265,4.891
		c-0.102,0.048-0.208,0.083-0.319,0.107l-0.071,0.016l-0.07,0.008c-1.257,0.152-2.601,0.287-3.914,0.246
		c-1.408-0.043-2.741-0.206-3.956-0.482c-1.324-0.299-2.472-0.847-3.582-1.377l-0.168-0.08c-0.19-0.091-0.383-0.181-0.576-0.27
		c-0.994-0.461-2.024-0.938-2.963-1.691c-0.361-0.291-0.682-0.619-0.974-0.953c-0.198,0.312-0.403,0.623-0.613,0.935l-0.142,0.214
		c-0.67,1.004-1.361,2.042-2.322,2.938c-1.011,0.941-2.166,1.664-3.265,2.304c-0.245,0.142-0.489,0.292-0.736,0.445
		c-0.802,0.493-1.712,1.056-2.768,1.424c-0.781,0.273-1.647,0.512-2.646,0.731c-0.229,0.05-0.459,0.098-0.679,0.142
		c-0.19,0.125-0.379,0.187-0.518,0.217l-0.092,0.017c-2.284,0.352-4.439-1.343-4.91-3.859c-0.46-2.467,0.956-4.787,3.227-5.284
		l0.127-0.026c0.311-0.059,0.618-0.111,0.924-0.166c0.546-0.095,1.062-0.186,1.548-0.292c0.846-0.185,1.434-0.383,1.91-0.643
		c1.264-0.689,2.172-1.872,2.966-3.05c0.886-1.315,1.476-2.682,1.703-3.95c0.251-1.402,0.305-2.677,0.289-3.573l-0.845-0.403
		c-0.957-0.458-1.367-0.654-2.938-1.385c-1.086-0.503-1.623-0.768-2.159-1.032c-0.523-0.256-1.046-0.513-2.101-1.004
		c-2.186-1.015-3.097-3.702-2.035-5.989c0.59-1.27,1.687-2.165,3.008-2.454c0.821-0.18,1.668-0.1,2.475,0.205
		c0.109,0.041,0.219,0.072,0.325,0.122C212.661,170.082,213.164,170.301,213.666,170.521z"/>
	<path fill="#726541" d="M170.485,144.949c-0.166,3.778,2.347,7.921,3.278,9.136c0.07,0.078,0.148,0.144,0.221,0.219
		c-0.698,0.327-1.439,0.596-2.212,0.788c-0.17,0.043-0.34,0.082-0.509,0.119c-5.515,1.207-9.721-0.578-10.978-4.659
		c-0.296-0.96-0.185-1.955,0.324-2.877c1.508-2.738,6.215-4.198,7.623-4.581l0.062-0.017l0.063-0.011
		c0.854-0.155,1.632-0.24,2.356-0.282c-0.061,0.429-0.118,0.86-0.148,1.323C170.52,144.387,170.494,144.667,170.485,144.949z"/>
	<path fill="#726541" d="M242.629,144.916c-0.156,0.011-0.324,0.01-0.491,0.011c0.126-2.281,0.458-4.432-0.278-7.267
		c-0.385-1.115-0.936-2.245-1.618-3.326c0.932-0.194,1.965-0.342,3.146-0.421l0.114-0.008l0.114,0.011
		c2.508,0.222,5.268,0.695,6.733,2.541c0.798,1.003,1.097,2.252,0.887,3.732C250.625,144.081,244.494,144.79,242.629,144.916z"/>
	<path fill="#040000" d="M173.984,154.304c-0.072-0.076-0.15-0.141-0.221-0.219c-0.932-1.215-3.444-5.358-3.278-9.136
		c0.009-0.282,0.034-0.562,0.081-0.841c0.03-0.463,0.088-0.895,0.148-1.323c2.385-17.16,26.954-6.753,18.728,10.92
		C187.076,158.794,178.615,159.21,173.984,154.304z"/>
	<path fill="#040000" d="M242.138,144.927c-0.016,0.27-0.03,0.541-0.037,0.815c-12.129,18.923-28.556-7.637-17.726-15.95
		c6.135-4.708,12.569-0.677,15.866,4.542c0.683,1.081,1.233,2.21,1.618,3.326C242.596,140.495,242.264,142.646,242.138,144.927z"/>
	<path fill="#040000" d="M14.353,400.682c5.249,7.686,11.147,12.045,16.18,11.963c1.079-0.02,2.16-0.145,3.212-0.375
		c5.225-1.145,9.166-4.563,12.979-7.869c1.633-1.416,3.163-2.74,4.678-3.783c10.981,14.217,29.854,14.502,49.816,14.803
		c2.193,0.031,4.399,0.064,6.622,0.115c2.694,0.063,5.422,0.211,8.31,0.369c7.587,0.414,15.348,0.84,23.618-0.176
		c6.505-0.799,13.854-2.359,20.964-3.869c5.061-1.072,10.292-2.184,15.268-3.031c3.012-0.516,5.674-1.027,8.139-1.566
		c12.42-2.719,25.699-7.139,31.038-19.189c1.493,1.947,3.674,4.293,7.414,3.475c0.256-0.055,0.521-0.127,0.788-0.215
		c5.235-1.697,5.717-11.732,4.961-21.025c1.532,1.879,3.074,3.705,4.582,5.49c2.386,2.83,4.836,5.736,7.306,8.893
		c0.414,0.529,0.907,1.229,1.429,1.969c2.646,3.748,5.606,7.941,9.173,7.793c0.404-0.016,0.818-0.068,1.227-0.158
		c7.112-1.557,9.71-13.602,11.262-20.801c0.17-0.793,0.322-1.498,0.462-2.107c2.076-8.982,3.912-17.76,3.595-26.336
		c-1.503-40.123-7.645-70.313-18.256-89.762c23.741-7.527,40.436-18.695,49.63-33.207c9.521-15.034,11.962-33.893,6.697-51.74
		c-7.771-26.326-28.044-42.056-44.838-52.819c-19.917-12.768-43.326-18.73-61.647-22.481c-4.297-17.466-14.807-33.042-22.377-43.281
		c-9.17-12.404-19.146-24.955-29.965-32.744c-9.921-7.146-27.688-14.792-45.115-12.825c-0.876,0.098-1.799,0.252-2.742,0.458
		c-6.07,1.328-12.985,4.817-14.75,9.617c-3.16,8.593,4.333,21.751,7.702,27.009c2.417,3.775,5.055,6.846,7.605,9.815
		c0.401,0.467,0.808,0.939,1.212,1.416c-0.407-0.175-0.817-0.352-1.23-0.53c-4.852-2.088-10.342-4.452-16.181-6.319
		c-12.871-4.113-22.612-5.35-29.78-3.781c-3.703,0.81-6.676,2.396-8.84,4.713c-4.701,5.031-4.25,14.983-1.842,22.103
		c5.94,17.565,23.403,26.173,37.435,33.089l0.836,0.412c4.361,2.15,8.733,4.101,12.963,5.987c10.406,4.64,20.204,9.008,28.104,15.53
		c-0.853,5.3-4.581,9.66-8.188,13.881l-0.154,0.181c-0.545,0.638-1.088,1.273-1.617,1.91c-4.009,4.814-7.14,9.742-10.455,14.959
		l-1.692,2.654l-1.41,2.192c-7.572,11.75-14.111,21.899-15.11,39.142c-0.47,8.086,2.124,25.113,7.252,34.292
		c-16.694,12.035-29.916,28.957-41.562,53.172c-0.934,1.939-1.912,3.9-2.858,5.801c-4.086,8.205-8.307,16.678-10.676,26.602
		c-2.88,12.074-2.505,24.918-1.784,37.111c-4.856-0.627-9.476-0.506-13.426,0.359c-10.2,2.23-15.604,9.221-14.825,19.176
		C6.076,384.617,9.389,393.418,14.353,400.682z M58.11,294.955c1.754-3.445,3.572-6.699,5.377-9.766l0.094-0.162
		c0.037-0.064,0.066-0.133,0.089-0.203l0.053-0.168c0-0.002,0-0.004,0.001-0.004c0.922-3.049,2.564-5.666,4.197-7.895
		c0.291-0.396,0.58-0.783,0.866-1.154c0.018-0.021,0.069-0.09,0.084-0.115c5.062-7.725,10.596-15.779,17.97-22.361
		c1.113-0.92,2.143-1.891,3.148-2.861c0.447-0.434,0.9-0.867,1.335-1.295c1.997-1.963,3.891-3.822,6.167-5.385
		c3.747,4.672,8.174,9.732,13.584,12.592c12.976,6.869,30.602,10.514,43.104,12.361c17.338,2.559,35.848,1.598,56.584-2.939
		c8.33-1.822,16.988-4.201,26.448-7.268c11.321,15.766,14.71,43.178,16.274,62.523c1.639,20.279,2.639,41.211-4.28,55.418
		c-2.678-3.006-5.489-6.598-8.688-10.686l-0.165-0.209c-1.473-1.881-2.994-3.824-4.605-5.84c-0.483-0.605-1.055-1.363-1.713-2.238
		c-4.653-6.193-11.687-15.553-19.091-13.934c-1.059,0.232-2.071,0.689-3.011,1.355l-0.625,0.445
		c-0.264,0.188-0.421,0.492-0.421,0.816l0.001,0.77c0,3.43,1.215,7.418,2.501,11.641c1.152,3.785,2.336,7.67,2.619,11.08
		c-5.205-6.264-12.609-12.594-24.322-12.908c-1.221-5.527-3.259-9.074-5.412-12.82c-0.822-1.43-1.754-3.049-2.646-4.836
		c-11.148-22.389-21.983-35.256-37.394-44.408c-1.688-1.002-7.58-4.182-12.542-3.096c-2.945,0.645-5.045,2.613-6.073,5.693
		l-0.253,0.758c-0.106,0.318-0.046,0.668,0.16,0.932l0.493,0.631c2.127,2.717,5.107,2.938,7.284,3.1
		c0.965,0.07,1.873,0.137,2.563,0.383c3.544,1.258,9.096,5.615,12.964,8.781c12.923,10.592,25.582,33.564,29.445,53.436l0.129,0.662
		c0.056,0.281,0.229,0.525,0.477,0.672l0.578,0.338c3.247,1.912,6.733,1.787,10.103,1.668c2.941-0.104,5.72-0.201,7.57,1.301
		c1.7,1.381,5.105,6.574,5.349,10.576c0.146,2.43-3.82,8.307-7.316,10.844c-3.033,2.203-7.854,3.975-15.173,5.576
		c-4.163,0.91-8.833,1.703-12.953,2.4c-3.949,0.67-8.065,1.441-11.696,2.123c-7.247,1.361-14.091,2.646-20.016,3.301
		c-14.447,1.598-29.1,0.1-40.874-1.104c-2.924-0.301-5.638-0.15-8.263-0.006c-2.167,0.117-4.187,0.227-6.014,0.061
		c-11.891-1.072-17.95-7.049-24.634-14.752c-3.125-3.598-5.873-8.49-7.845-13.832c-0.53-1.434-1.016-2.895-1.424-4.379
		c-2.751-11.783-3.445-22.586-2.741-32.479c0.004-0.063,0.011-0.125,0.016-0.186c0.047-0.664,0.109-1.32,0.17-1.977
		C47.2,319.943,52.292,306.385,58.11,294.955z M285.622,155.524c17.903,25.114,10.05,56.989-7.494,72.118
		c-13.372,11.531-32.694,16.83-53.149,22.438l-1.286,0.354c-4.848,1.33-9.563,2.498-14.012,3.473
		c-17.504,3.83-32.891,5.104-47.04,3.895c-16.598-1.414-38.091-5.83-48.635-13.98c-4.326-3.34-12.472-12.281-14.341-16.992
		c-7.573-19.063-3.867-35.84,0.574-46.556c1.763-4.256,5.131-9.14,8.72-14.188c1.573-2.209,3.053-4.512,4.484-6.74l0.105-0.164
		c1.717-2.672,3.321-5.167,4.954-7.343c1.516-2.018,3.45-3.915,5.322-5.749c2.795-2.74,5.683-5.571,7.494-9.045
		c0.263-0.501,6.053-11.644,3.603-17.104c-0.171-0.38-0.38-0.734-0.635-1.053l-0.343-0.429c-0.148-0.185-0.357-0.31-0.589-0.355
		l-0.536-0.105c-2.621-0.512-5.393-2.62-8.327-4.852c-2.002-1.522-4.059-3.085-6.235-4.264c-5.584-3.024-12.081-5.677-18.958-8.486
		c-7.653-3.125-15.557-6.353-22.767-10.335c-7.637-4.218-20.823-13.33-23.335-26.957c-0.004-0.023-0.018-0.095-0.024-0.118
		c-0.05-0.194-0.081-0.376-0.119-0.564c-0.542-2.613-0.113-4.556,0.816-6.673c12.332-2.626,23.252,1.204,35.221,6.091l2.028,0.825
		c9.772,3.974,21.929,8.918,29.418,15.589c3.494,3.113,6.774,7.165,10.248,11.455c2.492,3.08,5.07,6.266,7.889,9.291
		c1.12,1.204,2.385,2.401,3.85,3.788l0.104,0.097c1.71,1.616,3.647,3.446,5.78,5.698c0.803,0.849,1.697,1.99,2.643,3.2
		c3.077,3.932,6.256,7.993,10.13,7.145c1.589-0.348,2.873-1.449,3.892-3.344c0.346-0.642,0.661-1.374,0.946-2.2l0.228-0.656
		c0.096-0.279,0.063-0.586-0.088-0.84l-0.356-0.595c-5.408-9.053-11.643-16.152-18.643-23.838c-0.984-1.082-1.953-2.19-2.887-3.262
		c-2.103-2.406-4.238-4.849-6.6-7.044c-1.781-1.658-3.75-2.984-5.653-4.268c-1.906-1.283-3.701-2.49-5.294-3.997
		c-3.693-3.486-6.86-7.67-10.213-12.101c-1.789-2.364-3.609-4.77-5.518-7.07c-0.707-0.853-1.429-1.708-2.158-2.57
		c-4.408-5.214-8.948-10.592-11.371-17.231c-0.189-0.518-0.37-1.042-0.532-1.576l-0.047-0.153c-0.021-0.069-0.049-0.135-0.085-0.198
		l-0.079-0.14c-1.789-3.205-2.344-5.768-1.604-7.41c0.648-1.438,2.395-2.476,5.193-3.088c2.574-0.563,5.912-0.704,9.658-0.406
		c29.83,2.374,46.853,25.587,61.873,46.067c7.396,10.089,15.431,22.854,18.927,41.027l0.198,1.03
		c0.079,0.415,0.411,0.735,0.829,0.799l1.037,0.161C237.539,112.952,266.154,128.22,285.622,155.524z M19.028,380.779
		c-0.333-1.619-0.576-3.354-0.701-5.211l-0.007-0.105c-0.003-0.047-0.01-0.092-0.019-0.137l-0.021-0.102
		c-0.251-1.193-1.015-4.826,4.862-6.113c4.684-1.023,10.234,0.287,12.103,2.123c0.486,1.557,1.008,3.16,1.571,4.779
		c1.803,5.182,4.056,10.527,7.124,14.994c-3.725,3.617-7.954,6.453-12.894,8.645C28.214,397.771,21.368,392.16,19.028,380.779z"/>
</g>
</svg>
