<svg xmlns="http://www.w3.org/2000/svg" viewBox="0 -0.177 16.563 16.5"><path fill="#323232" d="M16.313 12.375v-12h-16v12h6v2h-4v1h12v-1h-4v-2h6zm-15-1v-10h14v10h-14z"/><g fill="#323232"><path d="M11.779 2.621c-.315-.319-.707.067-.707.067l-2.328 2.33c-.389.389-1.497.835-1.497.835L8.52 7.128s.473-1.083.858-1.472l2.33-2.329s.391-.388.071-.706zM5.797 7.127c-.59 1.41-.494 2.213-1.484 2.458 3.822.664 3.822-2.07 3.822-2.07L6.86 6.24s-.774.195-1.063.887zm-.368 2.035c.291-.338.747-1.958 1.336-2.364.413.276-.017 1.567-1.336 2.364z"/></g></svg>