<?xml version="1.0" encoding="utf-8"?>
<!-- Generator: Adobe Illustrator 16.0.0, SVG Export Plug-In . SVG Version: 6.00 Build 0)  -->
<!DOCTYPE svg PUBLIC "-//W3C//DTD SVG 1.1//EN" "http://www.w3.org/Graphics/SVG/1.1/DTD/svg11.dtd">
<svg version="1.1" id="レイヤー_1" xmlns="http://www.w3.org/2000/svg" xmlns:xlink="http://www.w3.org/1999/xlink" x="0px"
	 y="0px" width="269.52px" height="269.52px" viewBox="0 0 269.52 269.52" enable-background="new 0 0 269.52 269.52"
	 xml:space="preserve">
<g>
	<rect x="0" y="0" fill="#EDA506" width="269.52" height="269.52"/>
	<polygon opacity="0.1" fill="#040000" enable-background="new    " points="269.52,113.15 269.52,273.52 133.14,273.52 
		50.35,190.72 42.64,183.01 42.64,134.12 50.86,125.9 53.77,122.99 62.96,113.8 83.71,93.05 93.33,83.43 95.38,81.38 103.25,73.51 
		113.82,62.94 219.31,62.94 	"/>
	<g>
		<g>
			<polygon fill="#C3C2C6" points="164.85,209.12 104.67,209.12 106.79,163.96 162.73,163.96 			"/>
			<polygon fill="#B3B2B6" points="164.07,194.38 105.45,194.38 106.79,165.84 162.73,165.84 			"/>
			<path fill="#C9C8CD" d="M94.69,205.36h80.143c5.06,0,9.197,4.143,9.197,9.2l0,0H85.49l0,0C85.49,209.5,89.63,205.36,94.69,205.36
				z"/>
		</g>
		<path fill="#C9C8CD" d="M226.88,130v56.63c0,2.27-1.83,4.1-4.07,4.1H46.71c-2.24,0-4.07-1.83-4.07-4.1V130
			c0-2.26,1.83-4.103,4.07-4.103h176.1C225.04,125.9,226.88,127.73,226.88,130z"/>
		<path fill="#2D2D33" d="M226.88,68.281V171.48H42.64V68.281h0.13c0.62-3.053,3.34-5.343,6.55-5.343h170.87
			c3.21,0,5.933,2.29,6.55,5.343H226.88z"/>
		<rect x="53.76" y="73.51" fill="#F4F4F5" width="161.99" height="87.4"/>
		<g>
			<rect x="73.73" y="81.38" fill="#B3B2B6" width="25.09" height="2.04"/>
			<path fill="#B3B2B6" d="M68.84,80.25L68.84,80.25c1.188,1.188,1.188,3.12,0,4.31l0,0c-1.19,1.19-3.12,1.19-4.313,0l0,0
				c-1.188-1.188-1.188-3.12,0-4.31l0,0C65.72,79.06,67.65,79.06,68.84,80.25z"/>
			
				<rect x="196.317" y="80.952" transform="matrix(0.7066 0.7076 -0.7076 0.7066 116.3238 -115.7613)" fill="#B3B2B6" width="2.879" height="2.88"/>
			
				<rect x="203.274" y="80.968" transform="matrix(0.7069 0.7073 -0.7073 0.7069 118.2794 -120.6391)" fill="#B3B2B6" width="2.88" height="2.88"/>
			
				<rect x="190.117" y="80.964" transform="matrix(0.7069 0.7073 -0.7073 0.7069 114.4202 -111.3339)" fill="#B3B2B6" width="2.879" height="2.88"/>
		</g>
	</g>
</g>
<g enable-background="new    ">
	<path fill="#2D2D33" d="M83.021,109.777v4.787l-10.065,5.084l10.065,5.085v4.748l-15.159-7.849v-4.007L83.021,109.777z"/>
	<path fill="#2D2D33" d="M101.916,121.963h-6.054l-1.566,9.383h-6.774l3.896-23.328h6.773l-1.433,8.58h6.053l1.434-8.58h6.774
		l-3.896,23.328h-6.775L101.916,121.963z"/>
	<path fill="#2D2D33" d="M126.074,113.317l-3.025,18.029h-6.775l3.025-18.029h-4.99l0.905-5.366h16.893l-0.889,5.366H126.074z"/>
	<path fill="#2D2D33" d="M161.796,108.018l-3.896,23.328h-6.566l2.085-12.424c0.217-1.276,0.496-2.609,0.838-4
		c0.272-1.127,0.461-1.987,0.563-2.58c-0.138,0.354-0.337,0.889-0.599,1.606c-0.559,1.492-1.072,2.769-1.539,3.827l-6.038,13.569
		h-4.204l-1.602-13.569c-0.147-1.195-0.25-2.472-0.308-3.827c-0.045-0.81-0.09-1.437-0.136-1.881
		c-0.318,3.226-0.671,6.006-1.058,8.341l-1.826,10.938h-5.285l3.889-23.328h9.386l1.252,10.322c0.104,0.844,0.193,1.442,0.273,1.795
		c0.159-0.523,0.395-1.122,0.702-1.795l4.623-10.322H161.796z"/>
	<path fill="#2D2D33" d="M180.563,125.74l-0.923,5.604h-15.945l3.896-23.328h7.086l-2.959,17.724H180.563z"/>
	<path fill="#2D2D33" d="M186.499,129.502v-4.787l10.065-5.084l-10.065-5.084v-4.77l15.159,7.83v4.044L186.499,129.502z"/>
</g>
</svg>
