<?xml version="1.0" encoding="utf-8"?>
<!-- Generator: Adobe Illustrator 16.0.0, SVG Export Plug-In . SVG Version: 6.00 Build 0)  -->
<!DOCTYPE svg PUBLIC "-//W3C//DTD SVG 1.1//EN" "http://www.w3.org/Graphics/SVG/1.1/DTD/svg11.dtd">
<svg version="1.1" id="レイヤー_1" xmlns="http://www.w3.org/2000/svg" xmlns:xlink="http://www.w3.org/1999/xlink" x="0px"
	 y="0px" width="269.52px" height="269.52px" viewBox="0 0 269.52 269.52" enable-background="new 0 0 269.52 269.52"
	 xml:space="preserve">
<g>
	<rect x="0" y="0" fill="#FCFC49" width="269.52" height="269.52"/>
	<polygon opacity="0.1" fill="#040000" enable-background="new    " points="269.52,113.15 269.52,273.52 133.14,273.52 
		50.35,190.72 42.64,183.01 42.64,134.12 50.86,125.9 53.77,122.99 62.96,113.8 83.71,93.05 93.33,83.43 95.38,81.38 103.25,73.51 
		113.82,62.94 219.31,62.94 	"/>
	<g>
		<g>
			<polygon fill="#C3C2C6" points="164.85,209.12 104.67,209.12 106.79,163.96 162.73,163.96 			"/>
			<polygon fill="#B3B2B6" points="164.07,194.38 105.45,194.38 106.79,165.84 162.73,165.84 			"/>
			<path fill="#C9C8CD" d="M94.69,205.36h80.143c5.06,0,9.197,4.143,9.197,9.2l0,0H85.49l0,0C85.49,209.5,89.63,205.36,94.69,205.36
				z"/>
		</g>
		<path fill="#C9C8CD" d="M226.88,130v56.63c0,2.27-1.83,4.1-4.07,4.1H46.71c-2.24,0-4.07-1.83-4.07-4.1V130
			c0-2.26,1.83-4.103,4.07-4.103h176.1C225.04,125.9,226.88,127.73,226.88,130z"/>
		<path fill="#2D2D33" d="M226.88,68.281V171.48H42.64V68.281h0.13c0.62-3.053,3.34-5.343,6.55-5.343h170.87
			c3.21,0,5.933,2.29,6.55,5.343H226.88z"/>
		<rect x="53.76" y="73.51" fill="#F4F4F5" width="161.99" height="87.4"/>
		<g>
			<rect x="73.73" y="81.38" fill="#B3B2B6" width="25.09" height="2.04"/>
			<path fill="#B3B2B6" d="M68.84,80.25L68.84,80.25c1.188,1.188,1.188,3.12,0,4.31l0,0c-1.19,1.19-3.12,1.19-4.313,0l0,0
				c-1.188-1.188-1.188-3.12,0-4.31l0,0C65.72,79.06,67.65,79.06,68.84,80.25z"/>
			
				<rect x="196.317" y="80.952" transform="matrix(0.7066 0.7076 -0.7076 0.7066 116.3238 -115.7613)" fill="#B3B2B6" width="2.879" height="2.88"/>
			
				<rect x="203.274" y="80.968" transform="matrix(0.7069 0.7073 -0.7073 0.7069 118.2794 -120.6391)" fill="#B3B2B6" width="2.88" height="2.88"/>
			
				<rect x="190.117" y="80.964" transform="matrix(0.7069 0.7073 -0.7073 0.7069 114.4202 -111.3339)" fill="#B3B2B6" width="2.879" height="2.88"/>
		</g>
	</g>
</g>
<g enable-background="new    ">
	<path fill="#2D2D33" d="M71.136,111.159l-1.043,6.187h-6.41l1.025-6.187H71.136z"/>
	<path fill="#2D2D33" d="M81.871,94.018h3.822c-4.818,5.391-7.229,11.65-7.229,18.782c0,3.486,0.803,6.83,2.409,10.032h-3.828
		c-1.305-2.108-2.26-4.287-2.867-6.537c-0.606-2.25-0.909-4.127-0.909-5.631c0-1.709,0.325-3.615,0.978-5.717
		c0.649-2.104,1.842-4.272,3.57-6.513C79.549,96.198,80.9,94.725,81.871,94.018z"/>
	<path fill="#2D2D33" d="M98.683,96.018l-2.58,15.434c-0.376,2.302-0.875,3.974-1.495,5.016c-0.622,1.043-1.569,1.86-2.846,2.452
		c-1.276,0.593-3.06,0.889-5.35,0.889c-1.346,0-2.746-0.152-4.204-0.461l0.905-5.399c1.148,0.193,2.036,0.29,2.662,0.29
		c0.876,0,1.562-0.168,2.057-0.505c0.495-0.336,0.836-0.755,1.022-1.257c0.188-0.502,0.413-1.566,0.675-3.195l2.223-13.262
		L98.683,96.018L98.683,96.018z"/>
	<path fill="#2D2D33" d="M116.064,119.346h-6.757c-0.034-0.331-0.051-0.599-0.051-0.804c0-0.581,0.041-1.269,0.125-2.06
		c-1.356,2.17-3.247,3.255-5.674,3.255c-1.642,0-2.969-0.472-3.982-1.418c-1.014-0.944-1.521-2.13-1.521-3.555
		c0-1.06,0.272-2.03,0.819-2.914c0.546-0.883,1.32-1.586,2.322-2.109s2.026-0.868,3.074-1.034c1.047-0.165,3.097-0.391,6.147-0.675
		c0.144-0.422,0.216-0.752,0.216-0.991c0-0.945-0.661-1.418-1.983-1.418c-1.299,0-2.257,0.644-2.872,1.931l-5.622-1.146
		c1.424-3.201,4.557-4.803,9.399-4.803c2.448,0,4.375,0.426,5.775,1.273c1.401,0.848,2.103,2.1,2.103,3.751
		c0,0.741-0.41,3.361-1.23,7.861c-0.308,1.675-0.461,2.784-0.461,3.332C115.893,118.27,115.949,118.777,116.064,119.346z
		 M109.986,111.143c-3.138,0.239-4.706,1.242-4.706,3.008c0,0.97,0.508,1.453,1.521,1.453c0.649,0,1.298-0.291,1.946-0.872
		S109.808,112.954,109.986,111.143z"/>
	<path fill="#2D2D33" d="M137.392,102.085l-8.535,17.261h-5.204l-4.394-17.261h6.737l1.986,9.417l4.58-9.417H137.392z"/>
	<path fill="#2D2D33" d="M153.542,119.346h-6.757c-0.034-0.331-0.053-0.599-0.053-0.804c0-0.581,0.042-1.269,0.125-2.06
		c-1.354,2.17-3.246,3.255-5.674,3.255c-1.641,0-2.967-0.472-3.98-1.418c-1.015-0.944-1.521-2.13-1.521-3.555
		c0-1.06,0.273-2.03,0.82-2.914c0.546-0.883,1.319-1.586,2.322-2.109c1.002-0.523,2.025-0.868,3.073-1.034
		c1.047-0.165,3.097-0.391,6.148-0.675c0.143-0.422,0.215-0.752,0.215-0.991c0-0.945-0.662-1.418-1.983-1.418
		c-1.3,0-2.257,0.644-2.872,1.931l-5.622-1.146c1.424-3.201,4.558-4.803,9.399-4.803c2.449,0,4.375,0.426,5.775,1.273
		c1.401,0.849,2.103,2.1,2.103,3.751c0,0.741-0.41,3.361-1.229,7.861c-0.309,1.675-0.462,2.784-0.462,3.332
		C153.37,118.27,153.427,118.777,153.542,119.346z M147.464,111.143c-3.138,0.239-4.706,1.242-4.706,3.008
		c0,0.97,0.507,1.453,1.52,1.453c0.649,0,1.299-0.291,1.946-0.872C146.872,114.151,147.286,112.954,147.464,111.143z"/>
	<path fill="#2D2D33" d="M120.353,129.436l-5.998,1.521c-0.171-0.695-0.599-1.242-1.282-1.642c-0.684-0.398-1.436-0.599-2.256-0.599
		c-1.538,0-2.307,0.513-2.307,1.538c0,0.331,0.107,0.615,0.324,0.854c0.217,0.239,0.826,0.536,1.828,0.892l3.706,1.322
		c0.968,0.344,1.867,0.849,2.7,1.515c0.832,0.666,1.432,1.395,1.796,2.186c0.365,0.791,0.549,1.638,0.549,2.536
		c0,2.356-0.927,4.303-2.777,5.84s-4.321,2.307-7.408,2.307c-2.644,0-4.947-0.536-6.913-1.607c-1.965-1.07-3.336-2.705-4.109-4.904
		l6.732-1.315c0.581,1.652,2.018,2.479,4.308,2.479c0.957,0,1.648-0.174,2.076-0.521s0.642-0.743,0.642-1.188
		c0-0.283-0.083-0.534-0.248-0.752c-0.165-0.216-0.342-0.373-0.529-0.47s-1.074-0.438-2.656-1.021
		c-2.142-0.79-3.643-1.415-4.503-1.877c-0.86-0.461-1.579-1.146-2.153-2.058c-0.576-0.911-0.864-1.98-0.864-3.211
		c0-2.13,0.783-3.932,2.351-5.406c1.565-1.475,3.961-2.211,7.187-2.211c2.461,0,4.567,0.52,6.323,1.556
		C118.621,126.235,119.783,127.648,120.353,129.436z"/>
	<path fill="#2D2D33" d="M132.231,140.647l5.212,1.281c-0.934,2.233-2.157,3.78-3.674,4.641c-1.516,0.859-3.082,1.29-4.7,1.29
		c-2.381,0-4.325-0.756-5.836-2.267c-1.51-1.511-2.265-3.452-2.265-5.824c0-2.703,0.892-5.092,2.675-7.167
		c1.783-2.076,4.146-3.114,7.084-3.114c2.13,0,3.938,0.643,5.417,1.924c1.481,1.281,2.224,2.931,2.224,4.947l-5.862,0.685
		c0-1.869-0.632-2.803-1.897-2.803c-1.082,0-1.852,0.765-2.307,2.294c-0.456,1.528-0.684,2.864-0.684,4.007
		c0,1.688,0.638,2.534,1.913,2.534C130.783,143.073,131.684,142.265,132.231,140.647z"/>
	<path fill="#2D2D33" d="M141.681,130.085h5.754l-0.688,4.163c1.196-3.117,3.029-4.676,5.496-4.676c0.192,0,0.462,0.027,0.805,0.086
		l-0.771,6.151c-0.592-0.035-0.984-0.052-1.18-0.052c-1.424,0-2.47,0.333-3.137,0.999c-0.666,0.665-1.143,1.846-1.426,3.54
		l-1.175,7.048h-6.566L141.681,130.085z"/>
	<path fill="#2D2D33" d="M162.079,130.085l-2.892,17.261h-6.707l2.894-17.261H162.079L162.079,130.085z M163.187,123.471
		l-0.85,5.076h-6.705l0.85-5.076H163.187z"/>
	<path fill="#2D2D33" d="M165.675,130.085h6.151l-0.467,2.768c0.8-1.354,1.582-2.234,2.353-2.64c0.77-0.405,1.608-0.606,2.521-0.606
		c1.779,0,3.209,0.664,4.292,1.991s1.624,3.119,1.624,5.375c0,2.745-0.746,5.228-2.237,7.442c-1.492,2.215-3.47,3.322-5.931,3.322
		c-1.926,0-3.36-0.809-4.307-2.426l-1.244,7.521h-6.566L165.675,130.085z M171.194,136.288c-0.494,2.701-0.742,4.434-0.742,5.195
		c0,0.615,0.155,1.116,0.47,1.504c0.313,0.388,0.754,0.58,1.323,0.58c0.67,0,1.205-0.283,1.604-0.854s0.744-1.575,1.041-3.017
		c0.295-1.441,0.443-2.511,0.443-3.204c0-1.698-0.627-2.548-1.881-2.548C172.367,133.948,171.615,134.728,171.194,136.288z"/>
	<path fill="#2D2D33" d="M196.232,130.085l-0.752,4.409h-3.12l-1.034,6.15c-0.104,0.604-0.155,0.985-0.155,1.146
		c0,0.844,0.536,1.266,1.607,1.266c0.469,0,1.011-0.067,1.626-0.205l-0.752,4.494c-1.229,0.262-2.409,0.394-3.537,0.394
		c-1.401,0-2.44-0.178-3.118-0.529c-0.679-0.353-1.23-0.854-1.658-1.504c-0.427-0.649-0.642-1.504-0.642-2.563
		c0-0.443,0.103-1.274,0.308-2.495l1.021-6.151h-2.371l0.735-4.409h2.38l0.953-5.11l6.264-0.119l-0.882,5.229h3.128V130.085z"/>
	<path fill="#2D2D33" d="M197.236,150.832h-3.822c4.818-5.332,7.229-11.593,7.229-18.782c0-3.486-0.804-6.83-2.41-10.032h3.828
		c1.299,2.086,2.253,4.269,2.863,6.546c0.607,2.279,0.914,4.153,0.914,5.622c0,1.698-0.326,3.602-0.976,5.709
		s-1.836,4.271-3.557,6.494C199.584,148.61,198.228,150.091,197.236,150.832z"/>
</g>
</svg>
