<svg xmlns="http://www.w3.org/2000/svg" width="313" height="421" viewBox="0 0 313 421"><path fill="none" d="M45.547 337.904l-.016.186c.005-.063.012-.125.016-.186zM47.668 323.625a101.29 101.29 0 0 0-1.95 12.303c1.482-15.984 6.574-29.543 12.392-40.973-4.939 9.85-8.319 19.158-10.442 28.67z"/><path fill="#FFF" d="M36.816 376.014c1.803 5.182 4.056 10.527 7.124 14.994-3.725 3.617-7.954 6.453-12.894 8.645-2.832-1.881-9.678-7.492-12.018-18.873 2.425.572 5.222.559 8.186-.09 3.771-.827 7.175-2.526 9.602-4.676zM51.074 367.012c.006-1 .289-8.139.42-9.254 2.16-18.201 4.166-32.234 10.342-47.139.453-1.096.916-2.16 1.371-3.209 3.001-6.91 5.837-13.436 3.407-22.668l-.91-3.461-1.815 3.084c-.057.096-.11.191-.166.287.922-3.049 2.564-5.666 4.197-7.895l2.719.012c2.034.01 4.004-.191 5.858-.596 5.439-1.191 9.836-4.162 12.381-8.365 2.66-4.395 3.212-9.844 1.598-15.758l-.487-1.785c.447-.434.9-.867 1.335-1.295 1.997-1.963 3.891-3.822 6.167-5.385 3.747 4.672 8.174 9.732 13.584 12.592 12.976 6.869 30.602 10.514 43.104 12.361 17.338 2.559 35.848 1.598 56.584-2.939 8.33-1.822 16.988-4.201 26.448-7.268 11.321 15.766 14.71 43.178 16.274 62.523 1.639 20.279 2.639 41.211-4.28 55.418-2.678-3.006-5.489-6.598-8.688-10.686l-.165-.209c-1.473-1.881-2.994-3.824-4.605-5.84a104.544 104.544 0 0 1-1.713-2.238c-4.653-6.193-11.687-15.553-19.091-13.934a8.255 8.255 0 0 0-3.011 1.355l-.625.445a1.002 1.002 0 0 0-.421.816l.001.77c0 3.43 1.215 7.418 2.501 11.641 1.152 3.785 2.336 7.67 2.619 11.08-5.205-6.264-12.609-12.594-24.322-12.908-1.221-5.527-3.259-9.074-5.412-12.82-.822-1.43-1.754-3.049-2.646-4.836-11.148-22.389-21.983-35.256-37.394-44.408-1.688-1.002-7.58-4.182-12.542-3.096-2.945.645-5.045 2.613-6.073 5.693l-.253.758a1 1 0 0 0 .16.932l.493.631c2.127 2.717 5.107 2.938 7.284 3.1.965.07 1.873.137 2.563.383 3.544 1.258 9.096 5.615 12.964 8.781 12.923 10.592 25.582 33.564 29.445 53.436l.129.662c.056.281.229.525.477.672l.578.338c3.247 1.912 6.733 1.787 10.103 1.668 2.941-.104 5.72-.201 7.57 1.301 1.7 1.381 5.105 6.574 5.349 10.576.146 2.43-3.82 8.307-7.316 10.844-3.033 2.203-7.854 3.975-15.173 5.576-4.163.91-8.833 1.703-12.953 2.4-3.949.67-8.065 1.441-11.696 2.123-7.247 1.361-14.091 2.646-20.016 3.301-14.447 1.598-29.1.1-40.874-1.104-2.924-.301-5.638-.15-8.263-.006-2.167.117-4.187.227-6.014.061-11.891-1.072-17.95-7.049-24.634-14.752-3.125-3.598-5.873-8.49-7.845-13.832.954 1.697 2.099 3.307 3.145 4.934-1.086-4.728-1.79-8.95-1.767-12.868z"/><path fill="#FFF" d="M285.622 155.524c-19.468-27.305-48.083-42.572-92.787-49.502l-1.037-.161a.997.997 0 0 1-.829-.799l-.198-1.03c-3.496-18.174-11.53-30.938-18.927-41.027-15.021-20.48-32.043-43.694-61.873-46.067-3.746-.297-7.084-.157-9.658.406-2.798.612-4.545 1.651-5.193 3.088-.74 1.642-.186 4.205 1.604 7.41l.079.14a.961.961 0 0 1 .085.198l.047.153c.162.535.342 1.058.532 1.576 6.99 9.64 18.513 15.096 29.844 21.235 15.022 8.138 30.553 16.553 36.624 34.78 2.872 8.621 3.92 19.723 2.771 28.215l-1.065 2.63-.567-1.188c-1.019 1.895-2.303 2.996-3.892 3.344-3.874.848-7.053-3.213-10.13-7.145-.945-1.21-1.84-2.352-2.643-3.2-2.133-2.252-4.07-4.082-5.78-5.698l-.104-.097c-1.465-1.386-2.729-2.584-3.85-3.788-2.819-3.025-5.396-6.211-7.889-9.291-3.474-4.29-6.753-8.342-10.248-11.455-7.489-6.671-19.646-11.615-29.418-15.589l-2.028-.825c-11.969-4.887-22.889-8.718-35.221-6.091-.929 2.117-1.359 4.06-.816 6.673 5.571 10.335 16.458 12.634 27.95 15.054 6.45 1.356 13.119 2.76 18.759 5.715 13.542 7.096 22.638 17.793 33.771 33.873l2.086 3.013-.7-.137c2.45 5.46-3.339 16.603-3.603 17.104-1.811 3.474-4.699 6.306-7.494 9.045-1.872 1.834-3.806 3.731-5.322 5.749-1.633 2.176-3.237 4.671-4.954 7.343l-.105.164c-1.431 2.228-2.912 4.53-4.484 6.74-3.589 5.048-6.957 9.932-8.72 14.188-4.441 10.716-8.147 27.493-.574 46.556 1.87 4.711 10.015 13.652 14.341 16.992 10.544 8.15 32.037 12.566 48.635 13.98 14.149 1.209 29.536-.064 47.04-3.895a279.327 279.327 0 0 0 14.012-3.473l1.286-.354c20.455-5.607 39.777-10.906 53.149-22.438 17.544-15.124 25.397-46.999 7.494-72.114zm-96.18-1.819c-2.366 5.09-10.827 5.505-15.458.6-.698.327-1.439.596-2.212.788-.17.043-.34.082-.509.119-5.515 1.207-9.721-.578-10.978-4.659-.296-.96-.185-1.955.324-2.877 1.508-2.738 6.215-4.198 7.623-4.581l.062-.017.063-.011c.854-.155 1.632-.24 2.356-.282 2.387-17.16 26.956-6.753 18.729 10.92zm37.04 13.106l-1.124 1.085a9.32 9.32 0 0 0 .913-.653 4.65 4.65 0 0 1 1.891-.906 4.3 4.3 0 0 1 4.311 1.531 4.727 4.727 0 0 1 .992 3.294c-.101 1.245-.675 2.344-1.619 3.093-.701.558-1.082.811-1.45 1.056-.33.218-.643.425-1.246.903-.601.478-.872.736-1.158 1.009-.322.305-.655.621-1.358 1.179l-.814.645c-.474.374-.722.568-1.296 1.047.276.817.777 2.008 1.496 3.386.656 1.261 1.419 2.552 2.55 3.461.667.536 1.583.861 2.554 1.208.985.35 1.877.646 2.824.714.489.034 1.064-.072 1.728-.194.409-.076.829-.154 1.283-.208 2.355-.285 4.523 1.583 4.836 4.163.282 2.34-1.088 4.388-3.265 4.891a1.478 1.478 0 0 1-.319.107l-.071.016-.07.008c-1.257.152-2.601.287-3.914.246a20.82 20.82 0 0 1-3.956-.482c-1.324-.299-2.472-.847-3.582-1.377l-.168-.08c-.19-.091-.383-.181-.576-.27-.994-.461-2.024-.938-2.963-1.691a7.85 7.85 0 0 1-.974-.953 41.52 41.52 0 0 1-.613.935l-.142.214c-.67 1.004-1.361 2.042-2.322 2.938-1.011.941-2.166 1.664-3.265 2.304a29.43 29.43 0 0 0-.736.445c-.802.493-1.712 1.056-2.768 1.424a22.77 22.77 0 0 1-2.646.731c-.229.05-.459.098-.679.142-.19.125-.379.187-.518.217l-.092.017c-2.284.352-4.439-1.343-4.91-3.859-.46-2.467.956-4.787 3.227-5.284l.127-.026c.311-.059.618-.111.924-.166a37.694 37.694 0 0 0 1.548-.292c.846-.185 1.434-.383 1.91-.643 1.264-.689 2.172-1.872 2.966-3.05.886-1.315 1.476-2.682 1.703-3.95.251-1.402.305-2.677.289-3.573l-.845-.403c-.957-.458-1.367-.654-2.938-1.385-1.086-.503-1.623-.768-2.159-1.032-.523-.256-1.046-.513-2.101-1.004-2.186-1.015-3.097-3.702-2.035-5.989.59-1.27 1.687-2.165 3.008-2.454.821-.18 1.668-.1 2.475.205 10.818 1.569 15.137-2.69 15.137-2.69zm24.753-26.622c-.61 3.892-6.741 4.601-8.606 4.727-.156.011-.324.01-.491.011-.016.27-.03.541-.037.815-12.129 18.923-28.556-7.637-17.726-15.95 6.135-4.708 12.569-.677 15.866 4.542a22.802 22.802 0 0 1 3.146-.421l.114-.008.114.011c2.508.222 5.268.695 6.733 2.541.798 1.003 1.097 2.252.887 3.732z"/><path fill="#726541" d="M18.327 375.568l-.007-.105a1.027 1.027 0 0 0-.019-.137l-.021-.102c-.251-1.193-1.015-4.826 4.862-6.113 4.684-1.023 10.234.287 12.103 2.123a156.82 156.82 0 0 0 1.571 4.779c-2.428 2.15-5.832 3.85-9.603 4.676-2.963.648-5.76.662-8.186.09a39.058 39.058 0 0 1-.7-5.211zM88.879 267.809c-2.545 4.203-6.941 7.174-12.381 8.365a27.006 27.006 0 0 1-5.858.596l-2.719-.012c.291-.396.58-.783.866-1.154.018-.021.069-.09.084-.115 5.062-7.725 10.596-15.779 17.97-22.361 1.113-.92 2.143-1.891 3.148-2.861l.487 1.785c1.615 5.913 1.063 11.362-1.597 15.757zM58.11 294.955a182.48 182.48 0 0 1 5.377-9.766l.094-.162c.037-.064.066-.133.089-.203l.053-.168.001-.004c.056-.096.109-.191.166-.287l1.815-3.084.91 3.461c2.43 9.232-.406 15.758-3.407 22.668-.455 1.049-.918 2.113-1.371 3.209-6.177 14.904-8.183 28.938-10.342 47.139-.132 1.115-.414 8.254-.42 9.254-.023 3.918.681 8.141 1.767 12.869-1.046-1.627-2.191-3.236-3.145-4.934a53.78 53.78 0 0 1-1.424-4.379c-2.751-11.783-3.445-22.586-2.741-32.479l.016-.186c.047-.664.109-1.32.17-1.977a101.322 101.322 0 0 1 1.95-12.303c2.123-9.51 5.503-18.818 10.442-28.668zM81.003 77.476c6.45 1.356 13.119 2.76 18.759 5.715 13.542 7.096 22.638 17.793 33.771 33.873l2.086 3.013-.7-.137a4.892 4.892 0 0 0-.635-1.053l-.343-.429a.996.996 0 0 0-.589-.355l-.536-.105c-2.621-.512-5.393-2.62-8.327-4.852-2.002-1.522-4.059-3.085-6.235-4.264-5.584-3.024-12.081-5.677-18.958-8.486-7.653-3.125-15.557-6.353-22.767-10.335-7.637-4.218-20.823-13.33-23.335-26.957a2.466 2.466 0 0 0-.024-.118c-.05-.194-.081-.376-.119-.564 5.574 10.335 16.461 12.634 27.952 15.054zM127.309 51.146c15.022 8.138 30.553 16.553 36.624 34.78 2.872 8.621 3.92 19.723 2.771 28.215l-1.065 2.63-.567-1.188c.346-.642.661-1.374.946-2.2l.228-.656a1.004 1.004 0 0 0-.088-.84l-.356-.595c-5.408-9.053-11.643-16.152-18.643-23.838a205.261 205.261 0 0 1-2.887-3.262c-2.103-2.406-4.238-4.849-6.6-7.044-1.781-1.658-3.75-2.984-5.653-4.268-1.906-1.283-3.701-2.49-5.294-3.997-3.693-3.486-6.86-7.67-10.213-12.101-1.789-2.364-3.609-4.77-5.518-7.07a339.393 339.393 0 0 0-2.158-2.57c-4.408-5.214-8.948-10.592-11.371-17.231 6.99 9.639 18.513 15.096 29.844 21.235z"/><path fill="#FFF" d="M225.042 168.086c-.388.228-.827.486-1.573 1.078-.775.616-1.122 1.021-1.431 1.38-.262.307-.47.547-1.021.986-.556.442-.896.836-1.145 1.124-.097.112-.228.265-.271.293 0 0-.021.012-.084.025-.07.015-.196.034-.413.042-.898.031-1.027-.065-1.567-.466-.395-.293-.936-.695-1.806-1.1-1.028-.477-1.547-.702-2.065-.928-.502-.22-1.005-.439-1.999-.9-.106-.049-.216-.081-.325-.122 10.821 1.571 15.141-2.688 15.141-2.688l-1.124 1.085c-.107.066-.211.128-.317.191z"/><linearGradient id="a" gradientUnits="userSpaceOnUse" x1="120.576" y1="175.421" x2="120.576" y2="189.224" gradientTransform="scale(-1 1) rotate(8.737 62.064 -2045.344)"><stop offset="0" stop-color="#fff"/><stop offset=".373" stop-color="#fdfdfd"/><stop offset=".507" stop-color="#f6f6f6"/><stop offset=".603" stop-color="#ebebeb"/><stop offset=".68" stop-color="#dadada"/><stop offset=".746" stop-color="#c4c4c4"/><stop offset=".805" stop-color="#a8a8a8"/><stop offset=".858" stop-color="#888"/><stop offset=".907" stop-color="#626262"/><stop offset=".952" stop-color="#373737"/><stop offset=".993" stop-color="#090909"/><stop offset="1"/></linearGradient><path fill="url(#a)" d="M225.042 168.086c-.388.228-.827.486-1.573 1.078-.775.616-1.122 1.021-1.431 1.38-.262.307-.47.547-1.021.986-.556.442-.896.836-1.145 1.124-.097.112-.228.265-.271.293 0 0-.021.012-.084.025-.07.015-.196.034-.413.042-.898.031-1.027-.065-1.567-.466-.395-.293-.936-.695-1.806-1.1-1.028-.477-1.547-.702-2.065-.928-.502-.22-1.005-.439-1.999-.9-.106-.049-.216-.081-.325-.122 10.821 1.571 15.141-2.688 15.141-2.688l-1.124 1.085c-.107.066-.211.128-.317.191z"/><path fill="#040000" d="M213.666 170.521c.519.226 1.037.452 2.065.928.87.405 1.411.807 1.806 1.1.54.401.669.497 1.567.466.217-.008.343-.027.413-.042a.393.393 0 0 0 .084-.025c.044-.028.175-.181.271-.293.249-.288.589-.682 1.145-1.124a6.209 6.209 0 0 0 1.021-.986c.309-.359.655-.764 1.431-1.38a11.889 11.889 0 0 1 1.573-1.078 9.32 9.32 0 0 0 1.229-.843 4.65 4.65 0 0 1 1.891-.906 4.3 4.3 0 0 1 4.311 1.531 4.727 4.727 0 0 1 .992 3.294c-.101 1.245-.675 2.344-1.619 3.093-.701.558-1.082.811-1.45 1.056-.33.218-.643.425-1.246.903-.601.478-.872.736-1.158 1.009-.322.305-.655.621-1.358 1.179l-.814.645c-.474.374-.722.568-1.296 1.047.276.817.777 2.008 1.496 3.386.656 1.261 1.419 2.552 2.55 3.461.667.536 1.583.861 2.554 1.208.985.35 1.877.646 2.824.714.489.034 1.064-.072 1.728-.194.409-.076.829-.154 1.283-.208 2.355-.285 4.523 1.583 4.836 4.163.282 2.34-1.088 4.388-3.265 4.891a1.478 1.478 0 0 1-.319.107l-.071.016-.07.008c-1.257.152-2.601.287-3.914.246a20.82 20.82 0 0 1-3.956-.482c-1.324-.299-2.472-.847-3.582-1.377l-.168-.08c-.19-.091-.383-.181-.576-.27-.994-.461-2.024-.938-2.963-1.691a7.85 7.85 0 0 1-.974-.953 41.52 41.52 0 0 1-.613.935l-.142.214c-.67 1.004-1.361 2.042-2.322 2.938-1.011.941-2.166 1.664-3.265 2.304a29.43 29.43 0 0 0-.736.445c-.802.493-1.712 1.056-2.768 1.424a22.77 22.77 0 0 1-2.646.731c-.229.05-.459.098-.679.142-.19.125-.379.187-.518.217l-.092.017c-2.284.352-4.439-1.343-4.91-3.859-.46-2.467.956-4.787 3.227-5.284l.127-.026c.311-.059.618-.111.924-.166a37.694 37.694 0 0 0 1.548-.292c.846-.185 1.434-.383 1.91-.643 1.264-.689 2.172-1.872 2.966-3.05.886-1.315 1.476-2.682 1.703-3.95.251-1.402.305-2.677.289-3.573l-.845-.403c-.957-.458-1.367-.654-2.938-1.385-1.086-.503-1.623-.768-2.159-1.032-.523-.256-1.046-.513-2.101-1.004-2.186-1.015-3.097-3.702-2.035-5.989.59-1.27 1.687-2.165 3.008-2.454.821-.18 1.668-.1 2.475.205.109.041.219.072.325.122.991.458 1.494.677 1.996.897z"/><path fill="#726541" d="M170.485 144.949c-.166 3.778 2.347 7.921 3.278 9.136.07.078.148.144.221.219-.698.327-1.439.596-2.212.788-.17.043-.34.082-.509.119-5.515 1.207-9.721-.578-10.978-4.659-.296-.96-.185-1.955.324-2.877 1.508-2.738 6.215-4.198 7.623-4.581l.062-.017.063-.011c.854-.155 1.632-.24 2.356-.282-.061.429-.118.86-.148 1.323-.045.28-.071.56-.08.842zM242.629 144.916c-.156.011-.324.01-.491.011.126-2.281.458-4.432-.278-7.267a16.22 16.22 0 0 0-1.618-3.326 22.802 22.802 0 0 1 3.146-.421l.114-.008.114.011c2.508.222 5.268.695 6.733 2.541.798 1.003 1.097 2.252.887 3.732-.611 3.892-6.742 4.601-8.607 4.727z"/><path fill="#040000" d="M173.984 154.304c-.072-.076-.15-.141-.221-.219-.932-1.215-3.444-5.358-3.278-9.136a6.25 6.25 0 0 1 .081-.841c.03-.463.088-.895.148-1.323 2.385-17.16 26.954-6.753 18.728 10.92-2.366 5.089-10.827 5.505-15.458.599zM242.138 144.927c-.016.27-.03.541-.037.815-12.129 18.923-28.556-7.637-17.726-15.95 6.135-4.708 12.569-.677 15.866 4.542a16.144 16.144 0 0 1 1.618 3.326c.737 2.835.405 4.986.279 7.267z"/><path fill="#040000" d="M14.353 400.682c5.249 7.686 11.147 12.045 16.18 11.963 1.079-.02 2.16-.145 3.212-.375 5.225-1.145 9.166-4.563 12.979-7.869 1.633-1.416 3.163-2.74 4.678-3.783 10.981 14.217 29.854 14.502 49.816 14.803 2.193.031 4.399.064 6.622.115 2.694.063 5.422.211 8.31.369 7.587.414 15.348.84 23.618-.176 6.505-.799 13.854-2.359 20.964-3.869 5.061-1.072 10.292-2.184 15.268-3.031a181.427 181.427 0 0 0 8.139-1.566c12.42-2.719 25.699-7.139 31.038-19.189 1.493 1.947 3.674 4.293 7.414 3.475.256-.055.521-.127.788-.215 5.235-1.697 5.717-11.732 4.961-21.025a407.69 407.69 0 0 0 4.582 5.49c2.386 2.83 4.836 5.736 7.306 8.893.414.529.907 1.229 1.429 1.969 2.646 3.748 5.606 7.941 9.173 7.793a7.025 7.025 0 0 0 1.227-.158c7.112-1.557 9.71-13.602 11.262-20.801.17-.793.322-1.498.462-2.107 2.076-8.982 3.912-17.76 3.595-26.336-1.503-40.123-7.645-70.313-18.256-89.762 23.741-7.527 40.436-18.695 49.63-33.207 9.521-15.034 11.962-33.893 6.697-51.74-7.771-26.326-28.044-42.056-44.838-52.819-19.917-12.768-43.326-18.73-61.647-22.481-4.297-17.466-14.807-33.042-22.377-43.281-9.17-12.404-19.146-24.955-29.965-32.744-9.921-7.146-27.688-14.792-45.115-12.825-.876.098-1.799.252-2.742.458-6.07 1.328-12.985 4.817-14.75 9.617-3.16 8.593 4.333 21.751 7.702 27.009 2.417 3.775 5.055 6.846 7.605 9.815.401.467.808.939 1.212 1.416l-1.23-.53c-4.852-2.088-10.342-4.452-16.181-6.319-12.871-4.113-22.612-5.35-29.78-3.781-3.703.81-6.676 2.396-8.84 4.713-4.701 5.031-4.25 14.983-1.842 22.103 5.94 17.565 23.403 26.173 37.435 33.089l.836.412c4.361 2.15 8.733 4.101 12.963 5.987 10.406 4.64 20.204 9.008 28.104 15.53-.853 5.3-4.581 9.66-8.188 13.881l-.154.181c-.545.638-1.088 1.273-1.617 1.91-4.009 4.814-7.14 9.742-10.455 14.959l-1.692 2.654-1.41 2.192c-7.572 11.75-14.111 21.899-15.11 39.142-.47 8.086 2.124 25.113 7.252 34.292-16.694 12.035-29.916 28.957-41.562 53.172-.934 1.939-1.912 3.9-2.858 5.801-4.086 8.205-8.307 16.678-10.676 26.602-2.88 12.074-2.505 24.918-1.784 37.111-4.856-.627-9.476-.506-13.426.359-10.2 2.23-15.604 9.221-14.825 19.176.584 7.473 3.897 16.274 8.861 23.538zM58.11 294.955a182.48 182.48 0 0 1 5.377-9.766l.094-.162c.037-.064.066-.133.089-.203l.053-.168.001-.004c.922-3.049 2.564-5.666 4.197-7.895.291-.396.58-.783.866-1.154.018-.021.069-.09.084-.115 5.062-7.725 10.596-15.779 17.97-22.361 1.113-.92 2.143-1.891 3.148-2.861.447-.434.9-.867 1.335-1.295 1.997-1.963 3.891-3.822 6.167-5.385 3.747 4.672 8.174 9.732 13.584 12.592 12.976 6.869 30.602 10.514 43.104 12.361 17.338 2.559 35.848 1.598 56.584-2.939 8.33-1.822 16.988-4.201 26.448-7.268 11.321 15.766 14.71 43.178 16.274 62.523 1.639 20.279 2.639 41.211-4.28 55.418-2.678-3.006-5.489-6.598-8.688-10.686l-.165-.209c-1.473-1.881-2.994-3.824-4.605-5.84a104.544 104.544 0 0 1-1.713-2.238c-4.653-6.193-11.687-15.553-19.091-13.934a8.255 8.255 0 0 0-3.011 1.355l-.625.445a1.002 1.002 0 0 0-.421.816l.001.77c0 3.43 1.215 7.418 2.501 11.641 1.152 3.785 2.336 7.67 2.619 11.08-5.205-6.264-12.609-12.594-24.322-12.908-1.221-5.527-3.259-9.074-5.412-12.82-.822-1.43-1.754-3.049-2.646-4.836-11.148-22.389-21.983-35.256-37.394-44.408-1.688-1.002-7.58-4.182-12.542-3.096-2.945.645-5.045 2.613-6.073 5.693l-.253.758a1 1 0 0 0 .16.932l.493.631c2.127 2.717 5.107 2.938 7.284 3.1.965.07 1.873.137 2.563.383 3.544 1.258 9.096 5.615 12.964 8.781 12.923 10.592 25.582 33.564 29.445 53.436l.129.662c.056.281.229.525.477.672l.578.338c3.247 1.912 6.733 1.787 10.103 1.668 2.941-.104 5.72-.201 7.57 1.301 1.7 1.381 5.105 6.574 5.349 10.576.146 2.43-3.82 8.307-7.316 10.844-3.033 2.203-7.854 3.975-15.173 5.576-4.163.91-8.833 1.703-12.953 2.4-3.949.67-8.065 1.441-11.696 2.123-7.247 1.361-14.091 2.646-20.016 3.301-14.447 1.598-29.1.1-40.874-1.104-2.924-.301-5.638-.15-8.263-.006-2.167.117-4.187.227-6.014.061-11.891-1.072-17.95-7.049-24.634-14.752-3.125-3.598-5.873-8.49-7.845-13.832a53.78 53.78 0 0 1-1.424-4.379c-2.751-11.783-3.445-22.586-2.741-32.479.004-.063.011-.125.016-.186.047-.664.109-1.32.17-1.977 1.483-15.983 6.575-29.541 12.393-40.971zm227.512-139.431c17.903 25.114 10.05 56.989-7.494 72.118-13.372 11.531-32.694 16.83-53.149 22.438l-1.286.354a279.327 279.327 0 0 1-14.012 3.473c-17.504 3.83-32.891 5.104-47.04 3.895-16.598-1.414-38.091-5.83-48.635-13.98-4.326-3.34-12.472-12.281-14.341-16.992-7.573-19.063-3.867-35.84.574-46.556 1.763-4.256 5.131-9.14 8.72-14.188 1.573-2.209 3.053-4.512 4.484-6.74l.105-.164c1.717-2.672 3.321-5.167 4.954-7.343 1.516-2.018 3.45-3.915 5.322-5.749 2.795-2.74 5.683-5.571 7.494-9.045.263-.501 6.053-11.644 3.603-17.104a4.892 4.892 0 0 0-.635-1.053l-.343-.429a.996.996 0 0 0-.589-.355l-.536-.105c-2.621-.512-5.393-2.62-8.327-4.852-2.002-1.522-4.059-3.085-6.235-4.264-5.584-3.024-12.081-5.677-18.958-8.486-7.653-3.125-15.557-6.353-22.767-10.335-7.637-4.218-20.823-13.33-23.335-26.957a2.466 2.466 0 0 0-.024-.118c-.05-.194-.081-.376-.119-.564-.542-2.613-.113-4.556.816-6.673 12.332-2.626 23.252 1.204 35.221 6.091l2.028.825c9.772 3.974 21.929 8.918 29.418 15.589 3.494 3.113 6.774 7.165 10.248 11.455 2.492 3.08 5.07 6.266 7.889 9.291 1.12 1.204 2.385 2.401 3.85 3.788l.104.097c1.71 1.616 3.647 3.446 5.78 5.698.803.849 1.697 1.99 2.643 3.2 3.077 3.932 6.256 7.993 10.13 7.145 1.589-.348 2.873-1.449 3.892-3.344.346-.642.661-1.374.946-2.2l.228-.656a1.004 1.004 0 0 0-.088-.84l-.356-.595c-5.408-9.053-11.643-16.152-18.643-23.838a205.261 205.261 0 0 1-2.887-3.262c-2.103-2.406-4.238-4.849-6.6-7.044-1.781-1.658-3.75-2.984-5.653-4.268-1.906-1.283-3.701-2.49-5.294-3.997-3.693-3.486-6.86-7.67-10.213-12.101-1.789-2.364-3.609-4.77-5.518-7.07a339.393 339.393 0 0 0-2.158-2.57c-4.408-5.214-8.948-10.592-11.371-17.231a30.048 30.048 0 0 1-.532-1.576l-.047-.153a.961.961 0 0 0-.085-.198l-.079-.14c-1.789-3.205-2.344-5.768-1.604-7.41.648-1.438 2.395-2.476 5.193-3.088 2.574-.563 5.912-.704 9.658-.406 29.83 2.374 46.853 25.587 61.873 46.067 7.396 10.089 15.431 22.854 18.927 41.027l.198 1.03a.997.997 0 0 0 .829.799l1.037.161c44.706 6.926 73.321 22.194 92.789 49.498zM19.028 380.779a38.75 38.75 0 0 1-.701-5.211l-.007-.105a1.027 1.027 0 0 0-.019-.137l-.021-.102c-.251-1.193-1.015-4.826 4.862-6.113 4.684-1.023 10.234.287 12.103 2.123a156.82 156.82 0 0 0 1.571 4.779c1.803 5.182 4.056 10.527 7.124 14.994-3.725 3.617-7.954 6.453-12.894 8.645-2.832-1.881-9.678-7.492-12.018-18.873z"/></svg>