<?xml version="1.0" encoding="utf-8"?>
<!-- Generator: Adobe Illustrator 16.0.0, SVG Export Plug-In . SVG Version: 6.00 Build 0)  -->
<!DOCTYPE svg PUBLIC "-//W3C//DTD SVG 1.1//EN" "http://www.w3.org/Graphics/SVG/1.1/DTD/svg11.dtd">
<svg version="1.1" id="レイヤー_1" xmlns="http://www.w3.org/2000/svg" xmlns:xlink="http://www.w3.org/1999/xlink" x="0px"
	 y="0px" width="500px" height="500px" viewBox="0 0 500 500" enable-background="new 0 0 500 500" xml:space="preserve">
<rect x="0" fill="#FFFFFF" width="500" height="500"/>
<path fill="none" d="M310.857,468.282c-0.198,0.221-0.389,0.446-0.58,0.672c-1.365,1.61-3.064,3.612-6.021,2.767
	c-0.198-0.057-0.393-0.122-0.584-0.196c-4.591-1.815-3.296-13.331-2.104-20.069c-1.99,2.23-4.014,4.342-6.11,6.535
	c-2.18,2.271-4.433,4.626-6.718,7.198c-0.473,0.544-0.933,1.101-1.38,1.667c-2.287,2.839-4.879,6.059-7.444,5.793
	c-0.302-0.033-0.6-0.092-0.892-0.175c-5.446-1.557-6.959-11.617-7.858-17.632c-0.104-0.676-0.195-1.289-0.283-1.814
	c-1.273-7.707-2.355-15.22-1.635-22.392c3.487-34.594,10.484-60.128,20.804-75.942c-20.147-7.646-33.938-18.047-41-30.926
	c-7.177-13.098-8.223-29.026-2.863-43.705c7.933-21.729,25.874-33.913,40.622-42.103c17.572-9.758,37.947-13.586,53.93-15.796
	c4.479-14.688,14.313-27.472,21.378-35.863c8.429-10.012,17.542-20.103,27.07-26.091c8.702-5.47,24.002-10.944,38.493-8.373
	c0.72,0.127,1.469,0.303,2.226,0.52c4.715,1.348,10.313,4.551,11.456,8.402c2.12,7.118-4.805,17.639-7.88,21.831
	c-2.226,3.037-4.616,5.489-6.926,7.859c-1.211,1.239-2.383,2.442-3.492,3.686c1.457-0.5,2.91-1.013,4.359-1.536
	c4.219-1.508,9.001-3.217,14.035-4.485c11.026-2.771,19.241-3.301,25.112-1.623c2.939,0.841,5.242,2.256,6.848,4.208
	c3.51,4.264,2.589,12.346,0.249,18.049c-5.868,14.311-21.018,20.623-33.188,25.694l-0.735,0.306
	c-3.821,1.595-7.65,3.022-11.355,4.399c-9.286,3.455-18.069,6.726-25.318,12.089c0.298,5.013,3.413,9.162,6.435,13.183
	c0.466,0.623,0.933,1.242,1.385,1.86c3.117,4.266,5.507,8.607,8.038,13.207c0.429,0.777,0.859,1.562,1.296,2.352
	c0.366,0.654,0.726,1.305,1.083,1.945c5.758,10.304,10.728,19.207,10.651,33.714c-0.035,7.176-3.335,21.847-8.307,28.979
	c10.071,8.129,18.379,18.469,25.515,31.824C473.096,341.35,487,297.3,487,249.999c0-130.523-105.812-236.333-236.333-236.333
	c-130.523,0-236.333,105.81-236.333,236.333c0,130.522,105.81,236.333,236.333,236.333c22.722,0,44.691-3.215,65.487-9.2
	C313.757,474.735,311.895,471.842,310.857,468.282L310.857,468.282z"/>
<path fill="#FFFFFF" d="M441.188,383.473c-1.676-0.094-3.336-0.369-4.952-0.824c-4.567-1.306-8.153-4.07-10.092-7.785
	c-2.028-3.887-2.205-8.553-0.512-13.502l0.503-1.469c-0.7-0.734-1.39-1.479-2.067-2.235c-1.787-1.995-3.485-3.892-5.702-5.498
	c-3.891,4.307-7.816,8.261-12.481,10.362c-11.303,5.098-26.403,7.234-37.079,8.131c-14.795,1.236-30.399-0.565-47.71-5.516
	c-7.127-2.037-14.535-4.596-22.618-7.81c-10.894,12.856-15.371,36.478-17.8,53.25c-2.587,17.867-4.599,36.313,1.214,49
	c2.733-2.601,5.633-5.857,8.92-9.552c1.396-1.566,2.834-3.188,4.36-4.866c0.452-0.495,0.98-1.115,1.599-1.834
	c4.151-4.855,10.429-12.195,16.116-10.569c0.8,0.234,1.545,0.628,2.188,1.158l0.506,0.414l-0.037,0.653
	c-0.18,2.791-1.406,6.064-2.703,9.53c-1.557,4.146-3.153,8.405-3.034,11.978c5.41-6.229,12.423-11.821,23.046-11.182
	c1.303-4.896,3.28-7.886,5.367-11.036c0.829-1.252,1.687-2.549,2.537-4.018c10.607-18.311,20.424-28.582,33.873-35.464
	c1.421-0.726,6.354-3.007,10.221-1.901c2.169,0.621,3.646,2.201,4.275,4.573l0.174,0.66l-0.454,0.51
	c-1.703,1.915-3.941,1.94-5.74,1.959c-0.882,0.011-1.717,0.019-2.426,0.222c-3.211,0.916-8.257,4.381-11.771,6.906
	c-11.715,8.424-23.865,27.504-28.271,44.385l-0.146,0.553l-0.51,0.261c-2.646,1.341-5.48,1.062-8.224,0.788
	c-2.662-0.263-5.176-0.512-7.094,0.854c-1.67,1.19-5.015,5.629-5.473,9.306c-0.318,2.558,3.081,8.019,5.948,10.389
	c0.026,0.021,0.058,0.042,0.084,0.063c48.598-16.146,90.184-47.638,119.021-88.733c-0.34-0.681-0.708-1.347-1.102-1.997
	L441.188,383.473L441.188,383.473z"/>
<path fill="#FFFFFF" d="M262.393,267.684c-16.895,20.789-11.821,48.859,2.566,62.946c10.898,10.671,27.152,16.25,44.357,22.157
	l1.077,0.371c3.895,1.342,7.823,2.582,11.782,3.722c14.776,4.226,27.891,6.147,40.09,5.88c14.328-0.316,33.047-2.958,42.615-9.436
	c3.924-2.649,11.453-9.87,13.418-14.035c7.592-16.076,5.306-30.792,2.051-40.307c-1.302-3.799-3.932-8.183-6.745-12.719
	c-1.236-1.998-2.396-4.078-3.515-6.09c-1.315-2.363-2.561-4.598-3.854-6.572c-1.217-1.851-2.783-3.594-4.3-5.279
	c-2.188-2.432-4.449-4.948-5.748-7.881c-0.048-0.109-4.896-11.173-1.698-14.696l0.313-0.347l0.02-0.002l1.647-2.086
	c10.345-13.091,18.663-21.708,30.575-27.019c4.959-2.213,10.71-3.05,16.274-3.856c9.041-1.316,17.646-2.584,23.111-9.246
	c0.094-0.313,0.205-0.618,0.285-0.938l0.012-0.04l0.012-0.04c0.949-2.948,0.438-5.021-0.381-7.125
	c-0.079-0.025-0.156-0.047-0.231-0.069c-10.665-3.05-20.35-0.331-31.002,3.252l-1.768,0.594c-8.594,2.877-19.289,6.459-26.14,11.826
	c-3.189,2.5-6.228,5.8-9.439,9.293c-2.283,2.484-4.644,5.052-7.174,7.443c-1.023,0.968-2.188,1.938-3.533,3.059
	c-1.561,1.299-3.327,2.77-5.264,4.569c-0.756,0.704-1.59,1.647-2.479,2.643c-2.652,2.981-5.397,6.065-8.138,5.282
	c-1.476-0.423-2.533-1.857-3.23-4.387l-0.157-0.569c-0.521-7.292,0.967-16.689,3.873-23.873
	c6.147-15.188,19.827-21.517,33.051-27.637c10.494-4.857,21.135-9.048,27.533-17.715c1.218-2.274,1.573-4.154,1.032-5.593
	c-0.574-1.525-2.194-2.68-4.818-3.43c-2.241-0.641-5.16-0.95-8.448-0.897c-25.911,0.423-41.786,19.426-55.792,36.195
	c-6.901,8.264-14.495,18.793-18.489,34.242l-0.225,0.865l-0.892,0.082C305.953,233.742,280.592,245.294,262.393,267.684
	L262.393,267.684z M361.564,263.557c0.614,0.075,1.271,0.189,1.988,0.367l0.053,0.014l0.052,0.02
	c1.179,0.398,5.107,1.896,6.243,4.309c0.383,0.812,0.427,1.662,0.122,2.467c-1.29,3.406-4.966,4.701-9.597,3.377
	c-0.144-0.041-0.284-0.086-0.427-0.131c-0.638-0.203-1.254-0.468-1.841-0.789c-4.209,3.927-11.387,3.119-13.128-1.34
	C338.979,256.357,360.455,248.821,361.564,263.557L361.564,263.557z M327.657,284.072c1.108,0.316,1.992,1.139,2.43,2.252
	c0.777,2.004-0.144,4.242-2.058,4.99c-0.925,0.359-1.383,0.551-1.84,0.74c-0.474,0.196-0.944,0.391-1.896,0.762
	c-1.381,0.539-1.737,0.684-2.577,1.021l-0.74,0.296c-0.063,0.765-0.083,1.853,0.054,3.06c0.125,1.094,0.554,2.289,1.236,3.455
	c0.612,1.045,1.323,2.103,2.364,2.758c0.391,0.244,0.878,0.445,1.588,0.647c0.409,0.117,0.846,0.222,1.302,0.332
	c0.258,0.06,0.517,0.125,0.779,0.19l0.105,0.027c1.905,0.545,2.99,2.598,2.463,4.672c-0.533,2.117-2.462,3.442-4.388,3.022
	l-0.076-0.021c-0.154-0.044-0.3-0.117-0.428-0.215c-0.191-0.051-0.382-0.102-0.572-0.155c-0.753-0.21-1.492-0.466-2.214-0.765
	c-0.879-0.371-1.621-0.896-2.279-1.361c-0.198-0.143-0.4-0.282-0.604-0.418c-0.901-0.604-1.844-1.28-2.653-2.137
	c-0.771-0.814-1.305-1.735-1.818-2.625l-0.111-0.19c-0.159-0.275-0.316-0.552-0.47-0.83c-0.271,0.278-0.566,0.532-0.88,0.76
	c-0.842,0.591-1.742,0.94-2.613,1.28c-0.17,0.064-0.339,0.133-0.505,0.199l-0.146,0.059c-0.976,0.395-1.981,0.797-3.124,0.979
	c-1.053,0.17-2.192,0.236-3.396,0.199c-1.121-0.037-2.259-0.223-3.316-0.421l-0.061-0.009l-0.063-0.018
	c-0.093-0.027-0.183-0.064-0.267-0.111c-1.825-0.544-2.881-2.359-2.514-4.338c0.402-2.182,2.352-3.65,4.339-3.285
	c0.384,0.072,0.737,0.162,1.081,0.249c0.559,0.142,1.04,0.261,1.46,0.26c0.812-0.009,1.587-0.212,2.442-0.458
	c0.846-0.242,1.645-0.472,2.24-0.891c1.012-0.71,1.729-1.771,2.356-2.811c0.685-1.135,1.177-2.121,1.453-2.8
	c-0.342-0.329-0.691-0.649-1.048-0.964l-0.656-0.593c-0.568-0.515-0.836-0.802-1.094-1.076c-0.229-0.246-0.445-0.481-0.933-0.923
	c-0.487-0.438-0.74-0.629-1.013-0.834c-0.298-0.229-0.609-0.467-1.178-0.979c-0.763-0.688-1.192-1.654-1.212-2.722
	c-0.018-1.012,0.348-1.993,1.022-2.748c0.939-1.05,2.398-1.467,3.752-1.071c0.579,0.168,1.112,0.465,1.561,0.869
	c0.327,0.297,0.544,0.465,0.742,0.605l-0.897-0.982c0,0,3.448,3.855,12.742,3.104C326.24,283.898,326.966,283.874,327.657,284.072
	L327.657,284.072z M294.109,253.888c1.347-1.491,3.723-1.745,5.867-1.802l0.099-0.002l0.101,0.014c1,0.131,1.87,0.313,2.651,0.527
	c3.087-4.268,8.782-7.353,13.751-3.015c8.772,7.66-6.639,29.386-15.944,12.625c0.009-0.234,0.011-0.467,0.013-0.696
	c-0.14-0.009-0.279-0.021-0.419-0.037c-1.58-0.203-6.762-1.14-7.07-4.483C293.056,255.747,293.379,254.697,294.109,253.888z"/>
<path fill="#726541" d="M426.145,374.863c1.938,3.714,5.523,6.479,10.092,7.785c1.557,0.444,3.223,0.722,4.952,0.822l1.958,0.114
	c-0.399-0.661-0.816-1.313-1.25-1.953l-0.026-0.039l-0.022-0.043c-3.904-6.862-8.213-14.071-14.211-20.146
	c-0.514-0.49-1.014-0.995-1.5-1.514l-0.503,1.469C423.939,366.311,424.115,370.977,426.145,374.863z M443.322,212.435
	c-5.564,0.807-11.315,1.644-16.274,3.856c-11.912,5.311-20.23,13.927-30.575,27.019l-1.647,2.086l0.444-0.057
	c2.453-0.318,5.01-2.018,7.709-3.818c1.753-1.166,3.563-2.368,5.425-3.229c4.877-2.255,10.53-4.157,16.519-6.17
	c6.704-2.258,13.636-4.591,20.021-7.609c6.678-3.159,18.151-10.079,21.492-21.322C460.967,209.85,452.363,211.119,443.322,212.435z
	 M404.73,186.473c-13.224,6.12-26.902,12.449-33.051,27.637c-2.906,7.184-4.396,16.58-3.873,23.873l0.335-0.486
	c5.046-7.354,10.705-13.03,17.045-19.164c0.901-0.874,1.788-1.77,2.646-2.634c1.878-1.896,3.822-3.858,5.931-5.582
	c1.556-1.275,3.275-2.281,4.938-3.256c1.721-1.008,3.348-1.962,4.83-3.196c3.388-2.818,6.331-6.238,9.451-9.858
	c1.623-1.885,3.303-3.837,5.046-5.687c0.646-0.685,1.308-1.372,1.974-2.066c4.402-4.588,8.958-9.335,11.324-15.662l0.051-0.128
	l0.072-0.113c0.311-0.482,0.572-0.943,0.813-1.394C425.865,177.425,415.225,181.616,404.73,186.473L404.73,186.473z"/>
<path fill="#FFFFFF" d="M312.795,281.012l0.896,0.982c0.087,0.063,0.172,0.121,0.258,0.18c0.32,0.219,0.682,0.459,1.283,1.006
	c0.627,0.565,0.899,0.928,1.143,1.25c0.206,0.275,0.371,0.49,0.817,0.896c0.449,0.407,0.717,0.759,0.912,1.016
	c0.077,0.103,0.182,0.24,0.217,0.267c0,0,0.019,0.012,0.068,0.026c0.061,0.017,0.167,0.037,0.35,0.058
	c0.767,0.074,0.877,0.002,1.36-0.313c0.354-0.229,0.833-0.54,1.596-0.838c0.9-0.351,1.355-0.517,1.811-0.681
	c0.438-0.159,0.879-0.317,1.749-0.658c0.093-0.036,0.188-0.057,0.281-0.086C316.242,284.867,312.795,281.012,312.795,281.012
	L312.795,281.012z"/>
<linearGradient id="SVGID_1_" gradientUnits="userSpaceOnUse" x1="386.2073" y1="58.8691" x2="386.2073" y2="47.0978" gradientTransform="matrix(0.9769 0.2139 0.2139 -0.9769 -68.9202 249.3507)">
	<stop  offset="0" style="stop-color:#FFFFFF"/>
	<stop  offset="0.373" style="stop-color:#FDFDFD"/>
	<stop  offset="0.507" style="stop-color:#F6F6F6"/>
	<stop  offset="0.603" style="stop-color:#EBEBEB"/>
	<stop  offset="0.68" style="stop-color:#DADADA"/>
	<stop  offset="0.746" style="stop-color:#C4C4C4"/>
	<stop  offset="0.805" style="stop-color:#A8A8A8"/>
	<stop  offset="0.858" style="stop-color:#888888"/>
	<stop  offset="0.907" style="stop-color:#626262"/>
	<stop  offset="0.952" style="stop-color:#373737"/>
	<stop  offset="0.993" style="stop-color:#090909"/>
	<stop  offset="1" style="stop-color:#000000"/>
</linearGradient>
<path fill="url(#SVGID_1_)" d="M312.795,281.012l0.896,0.982c0.087,0.063,0.172,0.121,0.258,0.18
	c0.32,0.219,0.682,0.459,1.283,1.006c0.627,0.565,0.899,0.928,1.143,1.25c0.206,0.275,0.371,0.49,0.817,0.896
	c0.449,0.407,0.717,0.759,0.912,1.016c0.077,0.103,0.182,0.24,0.217,0.267c0,0,0.019,0.012,0.068,0.026
	c0.061,0.017,0.167,0.037,0.35,0.058c0.767,0.074,0.877,0.002,1.36-0.313c0.354-0.229,0.833-0.54,1.596-0.838
	c0.9-0.351,1.355-0.517,1.811-0.681c0.438-0.159,0.879-0.317,1.749-0.658c0.093-0.036,0.188-0.057,0.281-0.086
	C316.242,284.867,312.795,281.012,312.795,281.012L312.795,281.012z"/>
<path fill="#1D1D1D" d="M323.506,284.859c-0.454,0.164-0.909,0.33-1.811,0.68c-0.763,0.298-1.241,0.609-1.596,0.838
	c-0.483,0.314-0.595,0.387-1.36,0.313c-0.117-0.01-0.234-0.029-0.35-0.057c-0.023-0.006-0.046-0.016-0.068-0.025
	c-0.078-0.084-0.151-0.174-0.217-0.268c-0.27-0.367-0.575-0.708-0.912-1.016c-0.306-0.267-0.58-0.566-0.817-0.895
	c-0.334-0.459-0.717-0.878-1.143-1.252c-0.603-0.546-0.963-0.787-1.283-1.005c-0.086-0.059-0.171-0.116-0.258-0.18
	c-0.26-0.187-0.507-0.388-0.742-0.604c-0.447-0.404-0.981-0.703-1.561-0.871c-1.353-0.395-2.812,0.023-3.752,1.072
	c-0.675,0.755-1.04,1.736-1.022,2.748c0.02,1.066,0.449,2.032,1.212,2.723c0.567,0.512,0.881,0.75,1.179,0.978
	c0.271,0.205,0.523,0.396,1.012,0.834c0.487,0.44,0.703,0.677,0.933,0.923c0.259,0.275,0.524,0.563,1.095,1.076l0.655,0.593
	c0.387,0.343,0.586,0.524,1.049,0.964c-0.277,0.68-0.771,1.665-1.453,2.801c-0.628,1.037-1.347,2.1-2.357,2.81
	c-0.597,0.419-1.395,0.647-2.24,0.891c-0.855,0.246-1.632,0.449-2.442,0.458c-0.419,0.001-0.901-0.117-1.459-0.26
	c-0.345-0.087-0.698-0.178-1.082-0.249c-1.987-0.365-3.937,1.104-4.338,3.285c-0.368,1.979,0.688,3.794,2.513,4.338
	c0.086,0.047,0.174,0.084,0.267,0.11l0.063,0.019l0.061,0.009c1.06,0.198,2.195,0.385,3.316,0.42
	c1.136,0.043,2.272-0.023,3.396-0.197c1.143-0.183,2.148-0.586,3.124-0.979l0.146-0.06c0.166-0.065,0.335-0.133,0.505-0.198
	c0.871-0.34,1.771-0.69,2.613-1.28c0.314-0.228,0.608-0.481,0.88-0.76c0.151,0.277,0.311,0.555,0.47,0.83l0.111,0.189
	c0.515,0.891,1.049,1.812,1.818,2.627c0.811,0.854,1.752,1.53,2.653,2.135c0.2,0.134,0.402,0.275,0.604,0.419
	c0.657,0.465,1.399,0.989,2.278,1.36c0.65,0.274,1.376,0.524,2.214,0.766c0.191,0.055,0.387,0.105,0.572,0.154
	c0.154,0.119,0.313,0.184,0.428,0.217l0.076,0.02c1.926,0.42,3.854-0.906,4.389-3.023c0.526-2.073-0.559-4.125-2.464-4.67
	l-0.105-0.028c-0.263-0.065-0.521-0.132-0.779-0.19c-0.456-0.109-0.893-0.215-1.302-0.332c-0.71-0.201-1.197-0.402-1.588-0.648
	c-1.041-0.654-1.752-1.713-2.364-2.758c-0.684-1.166-1.111-2.36-1.236-3.455c-0.114-1.016-0.132-2.039-0.054-3.059l0.74-0.296
	c0.84-0.339,1.197-0.483,2.577-1.021c0.635-0.246,1.267-0.501,1.896-0.764c0.457-0.188,0.915-0.38,1.84-0.738
	c1.914-0.75,2.835-2.987,2.058-4.991c-0.438-1.113-1.32-1.937-2.43-2.253c-0.695-0.192-1.433-0.178-2.12,0.043
	c-0.096,0.029-0.189,0.05-0.282,0.086C324.385,284.541,323.944,284.699,323.506,284.859L323.506,284.859z"/>
<path fill="#726541" d="M361.643,265.411c-0.064,3.228-2.426,6.616-3.284,7.603c-0.063,0.063-0.135,0.113-0.199,0.174
	c0.576,0.316,1.193,0.584,1.841,0.789c0.143,0.045,0.283,0.09,0.427,0.133c4.631,1.324,8.307,0.027,9.597-3.379
	c0.305-0.804,0.261-1.654-0.122-2.465c-1.136-2.412-5.064-3.91-6.243-4.31l-0.052-0.021l-0.053-0.013
	c-0.655-0.163-1.318-0.285-1.988-0.366c0.028,0.367,0.054,0.737,0.056,1.133C361.642,264.932,361.647,265.171,361.643,265.411
	L361.643,265.411z M300.227,261.501c0.131,0.019,0.275,0.026,0.419,0.037c0.013-1.948-0.152-3.798,0.627-6.168
	c0.386-0.931,0.915-1.862,1.555-2.745c-0.87-0.237-1.757-0.414-2.651-0.527l-0.101-0.014l-0.099,0.002
	c-2.146,0.057-4.521,0.311-5.867,1.803c-0.729,0.811-1.054,1.858-0.953,3.129C293.465,260.361,298.646,261.298,300.227,261.501z"/>
<path fill="#1D1D1D" d="M358.158,273.188c0.064-0.061,0.137-0.11,0.199-0.174c0.858-0.986,3.22-4.375,3.284-7.603
	c0.005-0.24-0.001-0.479-0.022-0.722c-0.004-0.378-0.022-0.756-0.056-1.133c-1.108-14.736-22.585-7.199-16.533,8.291
	C346.772,276.307,353.949,277.113,358.158,273.188z M300.646,261.538c-0.002,0.229-0.004,0.462-0.013,0.696
	c9.307,16.762,24.718-4.965,15.944-12.625c-4.969-4.338-10.664-1.253-13.751,3.015c-0.622,0.852-1.145,1.773-1.555,2.745
	C300.492,257.74,300.657,259.59,300.646,261.538L300.646,261.538z"/>
<path fill="#1D1D1D" d="M423.649,346.475c4.972-7.133,8.271-21.804,8.306-28.979c0.076-14.507-4.894-23.41-10.65-33.714
	c-0.357-0.643-0.717-1.291-1.083-1.945l-1.296-2.352c-2.531-4.6-4.921-8.941-8.038-13.207c-0.452-0.618-0.919-1.237-1.385-1.86
	c-3.021-4.021-6.137-8.17-6.435-13.183c7.249-5.363,16.032-8.634,25.318-12.089c3.705-1.377,7.534-2.804,11.355-4.399l0.735-0.306
	c12.172-5.071,27.32-11.383,33.188-25.694c2.341-5.704,3.262-13.785-0.249-18.049c-1.604-1.952-3.906-3.367-6.847-4.208
	c-5.871-1.679-14.086-1.149-25.113,1.623c-5.033,1.268-9.815,2.977-14.034,4.485c-1.449,0.524-2.902,1.036-4.359,1.536
	c1.109-1.243,2.281-2.446,3.492-3.686c2.31-2.371,4.7-4.823,6.926-7.859c3.075-4.191,10-14.713,7.88-21.831
	c-1.145-3.851-6.741-7.054-11.456-8.402c-0.732-0.211-1.476-0.385-2.226-0.52c-14.491-2.571-29.791,2.902-38.493,8.373
	c-9.528,5.988-18.644,16.079-27.07,26.091c-7.063,8.391-16.899,21.176-21.378,35.863c-15.981,2.209-36.356,6.038-53.93,15.796
	c-14.748,8.19-32.688,20.375-40.622,42.103c-5.36,14.678-4.313,30.607,2.863,43.705c7.063,12.879,20.853,23.278,41,30.926
	c-10.318,15.814-17.315,41.35-20.804,75.942c-0.722,7.172,0.36,14.685,1.635,22.392c0.088,0.525,0.18,1.14,0.283,1.814
	c0.899,6.014,2.411,16.075,7.858,17.632c0.288,0.082,0.591,0.143,0.892,0.175c2.565,0.266,5.157-2.954,7.444-5.794
	c0.504-0.628,0.983-1.222,1.38-1.667c2.285-2.571,4.538-4.926,6.718-7.197c2.098-2.193,4.12-4.305,6.11-6.535
	c-1.191,6.738-2.485,18.254,2.104,20.069c0.196,0.075,0.393,0.143,0.584,0.196c2.956,0.847,4.655-1.156,6.021-2.767
	c0.191-0.226,0.382-0.451,0.58-0.672c1.037,3.56,2.899,6.453,5.297,8.85c3.043-0.877,6.067-1.815,9.072-2.814
	c-0.026-0.021-0.059-0.042-0.084-0.063c-2.867-2.37-6.268-7.831-5.948-10.389c0.458-3.678,3.803-8.114,5.473-9.306
	c1.918-1.365,4.432-1.116,7.094-0.854c2.741,0.271,5.575,0.553,8.224-0.788l0.51-0.261l0.146-0.554
	c4.403-16.88,16.556-35.961,28.271-44.384c3.514-2.526,8.56-5.989,11.771-6.907c0.709-0.203,1.544-0.211,2.426-0.221
	c1.799-0.02,4.037-0.044,5.74-1.959l0.454-0.51l-0.174-0.66c-0.629-2.372-2.106-3.952-4.275-4.572
	c-3.867-1.105-8.8,1.176-10.222,1.9c-13.448,6.882-23.265,17.154-33.873,35.464c-0.851,1.469-1.707,2.766-2.536,4.017
	c-2.087,3.151-4.064,6.141-5.367,11.037c-10.623-0.641-17.636,4.952-23.046,11.182c-0.119-3.571,1.479-7.83,3.034-11.978
	c1.297-3.466,2.523-6.74,2.702-9.531l0.038-0.652l-0.506-0.414c-0.644-0.53-1.389-0.924-2.188-1.158
	c-5.688-1.626-11.966,5.714-16.116,10.569c-0.617,0.719-1.146,1.339-1.599,1.834c-1.526,1.679-2.966,3.3-4.36,4.866
	c-3.287,3.693-6.187,6.951-8.92,9.552c-5.813-12.688-3.801-31.133-1.214-49c2.429-16.772,6.906-40.395,17.8-53.25
	c8.083,3.214,15.491,5.771,22.618,7.81c17.311,4.949,32.915,6.753,47.71,5.517c10.676-0.896,25.776-3.034,37.079-8.131
	c4.665-2.104,8.592-6.058,12.481-10.363c2.217,1.607,3.915,3.503,5.702,5.498c0.678,0.756,1.366,1.501,2.067,2.236
	c0.485,0.51,0.976,1.02,1.5,1.512c5.998,6.074,10.307,13.283,14.211,20.146l0.022,0.043l0.026,0.039
	c0.414,0.613,0.837,1.268,1.25,1.953c0.383,0.635,0.754,1.3,1.102,1.997c1.684-2.397,3.322-4.825,4.915-7.284
	C442.028,364.943,433.721,354.604,423.649,346.475L423.649,346.475z M345.523,230.14l0.225-0.865
	c3.994-15.448,11.589-25.978,18.489-34.242c14.006-16.769,29.881-35.772,55.792-36.195c3.288-0.052,6.207,0.257,8.448,0.897
	c2.624,0.75,4.244,1.905,4.819,3.43c0.541,1.439,0.185,3.318-1.033,5.593c-0.241,0.451-0.504,0.912-0.813,1.394l-0.072,0.113
	l-0.051,0.128c-2.366,6.326-6.922,11.074-11.324,15.662c-0.666,0.694-1.326,1.382-1.974,2.066c-1.743,1.85-3.423,3.801-5.046,5.687
	c-3.12,3.621-6.063,7.041-9.451,9.858c-1.482,1.233-3.109,2.188-4.83,3.196c-1.662,0.975-3.384,1.981-4.938,3.256
	c-2.107,1.724-4.053,3.686-5.931,5.582c-0.857,0.864-1.744,1.76-2.646,2.634c-6.34,6.133-11.999,11.809-17.045,19.164l-0.335,0.486
	l0.157,0.569c0.697,2.53,1.756,3.964,3.23,4.387c2.739,0.783,5.484-2.301,8.139-5.282c0.888-0.996,1.722-1.939,2.478-2.643
	c1.938-1.799,3.703-3.27,5.264-4.569c1.348-1.122,2.511-2.091,3.533-3.059c2.53-2.391,4.892-4.958,7.174-7.443
	c3.213-3.493,6.25-6.793,9.439-9.293c6.851-5.367,17.546-8.949,26.14-11.826l1.769-0.594c10.651-3.583,20.336-6.302,31.001-3.252
	c0.076,0.021,0.152,0.044,0.231,0.069c0.818,2.104,1.33,4.177,0.381,7.125l-0.012,0.04l-0.012,0.04
	c-0.08,0.32-0.191,0.625-0.285,0.938c-3.341,11.244-14.813,18.164-21.492,21.322c-6.386,3.018-13.316,5.352-20.021,7.609
	c-5.987,2.013-11.642,3.916-16.519,6.17c-1.861,0.861-3.672,2.064-5.425,3.229c-2.699,1.801-5.256,3.5-7.709,3.818l-0.444,0.057
	l-0.02,0.002l-0.313,0.347c-3.197,3.523,1.65,14.587,1.698,14.696c1.299,2.933,3.563,5.449,5.748,7.881
	c1.518,1.687,3.083,3.43,4.3,5.279c1.294,1.976,2.538,4.209,3.854,6.572c1.119,2.012,2.278,4.092,3.515,6.09
	c2.813,4.536,5.443,8.92,6.745,12.719c3.255,9.515,5.541,24.229-2.051,40.307c-1.965,4.165-9.494,11.386-13.418,14.035
	c-9.568,6.478-28.287,9.119-42.615,9.436c-12.199,0.268-25.313-1.654-40.09-5.88c-3.959-1.139-7.888-2.38-11.782-3.722l-1.077-0.371
	c-17.204-5.907-33.459-11.486-44.357-22.157c-14.388-14.087-19.461-42.157-2.566-62.946c18.199-22.39,43.563-33.94,82.239-37.46
	L345.523,230.14L345.523,230.14z"/>
<g>
	<path fill="#1D1D1D" d="M106.119,191.907c1.566,1.466,2.391,3.4,2.473,5.802v20.032h-8.489v-16.489
		c-0.082-1.344-0.306-2.352-0.672-3.023c-0.366-0.672-1.079-1.048-2.138-1.13c-1.995,0-3.552,0.967-4.672,2.901
		s-1.68,4.204-1.68,6.81v10.932h-8.55v-16.489c-0.082-1.344-0.326-2.352-0.732-3.023c-0.407-0.672-1.16-1.048-2.261-1.13
		c-1.914,0-3.42,0.967-4.519,2.901c-1.1,1.934-1.649,4.163-1.649,6.687v11.054h-8.55v-26.688h7.756l0.611,4.214
		c2.157-3.704,5.374-5.557,9.648-5.557c2.158,0,3.939,0.438,5.345,1.313c1.403,0.876,2.371,2.168,2.9,3.878
		c1.14-1.588,2.493-2.85,4.062-3.787c1.566-0.936,3.186-1.404,4.854-1.404C102.464,189.708,104.551,190.441,106.119,191.907z
		 M117.233,196.731c1.282-2.157,3.095-3.857,5.436-5.1c2.341-1.241,4.998-1.862,7.97-1.862c2.971,0,5.588,0.621,7.848,1.862
		c2.261,1.243,4,2.942,5.223,5.1c1.221,2.159,1.832,4.602,1.832,7.329c0,2.729-0.611,5.191-1.832,7.39
		c-1.223,2.199-2.962,3.919-5.223,5.161c-2.26,1.242-4.917,1.863-7.97,1.863c-2.972,0-5.608-0.58-7.909-1.741
		c-2.301-1.16-4.092-2.819-5.374-4.977c-1.282-2.158-1.924-4.723-1.924-7.695C115.31,201.333,115.951,198.89,117.233,196.731
		L117.233,196.731z M125.753,209.404c1.221,1.405,2.768,2.107,4.641,2.107c1.955,0,3.532-0.692,4.733-2.076
		c1.2-1.384,1.801-3.155,1.801-5.313c0-2.157-0.601-3.929-1.801-5.313c-1.202-1.384-2.779-2.077-4.733-2.077
		c-1.873,0-3.42,0.703-4.641,2.107c-1.222,1.405-1.833,3.167-1.833,5.283C123.92,206.239,124.531,208,125.753,209.404z
		 M182.122,191.052v26.688c0,2.524-0.724,4.814-2.168,6.871c-1.446,2.055-3.4,3.664-5.863,4.825c-2.464,1.16-5.141,1.74-8.031,1.74
		c-2.198,0-4.122-0.265-5.771-0.793c-1.649-0.53-2.974-1.121-3.971-1.771c-0.998-0.651-2.188-1.548-3.572-2.687l5.008-5.863
		c1.222,1.139,2.433,2.035,3.634,2.687c1.201,0.651,2.718,0.977,4.55,0.977c2.158,0,3.971-0.54,5.437-1.618
		c1.466-1.079,2.198-2.576,2.198-4.489v-3.787c-0.814,1.385-2.066,2.504-3.756,3.359s-3.756,1.283-6.198,1.283
		c-2.403,0-4.633-0.621-6.688-1.863c-2.057-1.241-3.695-2.952-4.917-5.13c-1.221-2.178-1.832-4.59-1.832-7.237
		c0-2.687,0.642-5.15,1.924-7.39c1.282-2.238,2.972-3.99,5.069-5.252c2.097-1.262,4.306-1.893,6.626-1.893
		c2.198,0,4.153,0.315,5.863,0.946c1.71,0.632,3.012,1.457,3.909,2.474l0.671-2.077H182.122L182.122,191.052z M173.572,207.48
		v-6.535c-0.57-1.302-1.518-2.34-2.84-3.114c-1.323-0.773-2.84-1.161-4.55-1.161c-2.076,0-3.827,0.693-5.252,2.077
		c-1.426,1.384-2.138,3.136-2.138,5.252c0,2.118,0.712,3.899,2.138,5.344c1.425,1.446,3.176,2.168,5.252,2.168
		C169.603,211.511,172.065,210.167,173.572,207.48z M192.168,178.501c0.957-0.834,2.046-1.252,3.268-1.252
		c1.181,0,2.239,0.418,3.176,1.252c0.937,0.835,1.405,1.863,1.405,3.084c0,1.221-0.469,2.239-1.405,3.053
		c-0.937,0.815-1.995,1.222-3.176,1.222c-1.222,0-2.311-0.407-3.268-1.222c-0.957-0.814-1.436-1.832-1.436-3.053
		C190.733,180.364,191.211,179.336,192.168,178.501z M199.466,191.052v26.688h-8.55v-26.688H199.466z M219.314,179.326v11.604h6.475
		v6.657h-6.475v20.154h-8.55v-20.154h-4.153v-6.657h4.153v-11.604H219.314z M261.026,191.052v26.688h-8.55v-3.298
		c-2.564,2.687-5.538,4.031-8.917,4.031c-3.95,0-7.156-1.181-9.619-3.542c-2.464-2.361-3.694-5.863-3.694-10.504
		c0-2.932,0.6-5.506,1.802-7.726c1.2-2.219,2.799-3.939,4.794-5.161c1.994-1.222,4.132-1.832,6.413-1.832
		c2.36,0,4.233,0.357,5.619,1.068c1.384,0.713,2.604,1.721,3.664,3.023l0.55-2.749h7.938V191.052z M252.477,207.48v-6.535
		c-0.489-1.302-1.334-2.34-2.535-3.114c-1.2-0.773-2.615-1.161-4.244-1.161c-1.872,0-3.472,0.693-4.794,2.077
		c-1.322,1.384-1.984,3.136-1.984,5.252c0,1.385,0.326,2.657,0.978,3.817c0.651,1.161,1.517,2.067,2.596,2.718
		c1.057,0.646,2.272,0.984,3.512,0.977C248.974,211.511,251.133,210.167,252.477,207.48L252.477,207.48z M294.707,192.029
		c1.688,1.507,2.555,3.42,2.596,5.741v19.97h-8.551v-16.795c-0.122-2.605-1.426-3.908-3.908-3.908c-1.954,0-3.522,0.916-4.702,2.748
		c-1.182,1.832-1.771,4.194-1.771,7.084v10.871h-8.551v-26.688h7.757l0.609,4.275c0.944-1.717,2.352-3.135,4.063-4.092
		c1.729-0.977,3.775-1.465,6.138-1.465C290.91,189.77,293.017,190.523,294.707,192.029L294.707,192.029z M105.11,257.761
		L93.08,286.037l-8.551-17.711l-7.816,17.711L64.56,257.761h8.307l4.946,11.298l3.727-8.244l-1.405-3.053H87.4l5.009,11.786
		l4.396-11.786L105.11,257.761L105.11,257.761z M138.822,257.761v26.688h-8.55v-3.299c-2.564,2.688-5.538,4.031-8.917,4.031
		c-3.95,0-7.155-1.181-9.619-3.543c-2.464-2.359-3.694-5.861-3.694-10.504c0-2.932,0.6-5.507,1.802-7.726
		c1.2-2.22,2.799-3.939,4.794-5.161c1.994-1.223,4.132-1.832,6.413-1.832c2.361,0,4.234,0.357,5.619,1.068
		c1.383,0.713,2.604,1.721,3.664,3.022l0.55-2.748h7.938V257.761z M130.271,274.189v-6.535c-0.487-1.303-1.334-2.342-2.535-3.114
		c-1.2-0.772-2.615-1.161-4.243-1.161c-1.873,0-3.473,0.693-4.794,2.077c-1.323,1.384-1.985,3.136-1.985,5.252
		c0,1.385,0.326,2.655,0.978,3.817c0.651,1.16,1.517,2.065,2.596,2.718c1.057,0.646,2.273,0.983,3.512,0.977
		C126.77,278.22,128.928,276.876,130.271,274.189L130.271,274.189z M158.67,246.035v11.604h6.474v6.656h-6.474v20.154h-8.55v-20.154
		h-4.153v-6.656h4.153v-11.604H158.67z M189.908,284.327c-1.771,0.569-3.513,0.854-5.223,0.854c-4.641,0-8.315-1.252-11.022-3.757
		c-2.708-2.504-4.062-5.954-4.062-10.352c0-2.851,0.661-5.345,1.985-7.481c1.322-2.138,3.063-3.766,5.222-4.886
		c2.157-1.119,4.479-1.681,6.962-1.681c4.438,0,8.041,1.183,10.811,3.543l-4.153,5.496c-1.751-1.383-3.705-2.075-5.863-2.075
		c-1.792,0-3.308,0.672-4.55,2.015c-1.242,1.344-1.863,3.034-1.863,5.069c0,2.036,0.673,3.735,2.017,5.1
		c1.343,1.364,3.094,2.046,5.252,2.046c1.873,0,3.42-0.509,4.642-1.525l4.275,5.373
		C193.154,283.005,191.679,283.758,189.908,284.327L189.908,284.327z M225.817,258.736c1.689,1.508,2.556,3.422,2.597,5.742v19.971
		h-8.551v-16.795c-0.123-2.605-1.426-3.908-3.908-3.908c-1.955,0-3.522,0.916-4.703,2.748c-1.182,1.832-1.771,4.193-1.771,7.084
		v10.871h-8.55v-48.186h8.367v25.711c0.957-1.691,2.362-3.086,4.061-4.031c1.73-0.978,3.776-1.465,6.139-1.465
		C222.02,256.479,224.127,257.232,225.817,258.736z"/>
</g>
<g>
	<path fill="none" d="M88.493,382.043L176,344.316l-22.327,92.648l-18.39-30.074l-17.089,20.456
		c14.305,10.713,29.86,19.644,46.323,26.598c27.277,11.538,56.262,17.388,86.148,17.388c29.886,0,58.87-5.85,86.147-17.388
		c26.354-11.146,50.026-27.107,70.358-47.439c20.332-20.331,36.293-44.003,47.438-70.356C466.15,308.87,472,279.886,472,249.999
		c0-29.886-5.851-58.871-17.389-86.148c-11.146-26.354-27.106-50.026-47.438-70.358s-44.004-36.293-70.358-47.44
		c-27.277-11.537-56.262-17.387-86.147-17.387c-29.887,0-58.871,5.85-86.148,17.387C138.164,57.2,114.492,73.161,94.16,93.493
		s-36.293,44.003-47.44,70.358c-11.537,27.277-17.387,56.262-17.387,86.148c0,29.887,5.85,58.871,17.387,86.147
		c11.147,26.354,27.108,50.026,47.44,70.357c3.179,3.172,6.452,6.249,9.815,9.227l17.271-20.674L88.493,382.043z"/>
	<path fill="#1D1D1D" d="M250.667,13.666c-130.523,0-236.333,105.81-236.333,236.333c0,70.59,30.958,133.938,80.025,177.243
		l9.617-11.512c-3.363-2.978-6.637-6.055-9.815-9.227c-20.332-20.331-36.293-44.003-47.44-70.357
		c-11.537-27.276-17.387-56.262-17.387-86.147c0-29.886,5.85-58.871,17.387-86.148c11.147-26.354,27.108-50.026,47.44-70.358
		s44.003-36.293,70.357-47.44c27.277-11.537,56.262-17.387,86.148-17.387c29.886,0,58.87,5.85,86.147,17.387
		c26.354,11.147,50.026,27.108,70.358,47.44s36.293,44.003,47.438,70.358C466.15,191.128,472,220.113,472,249.999
		c0,29.887-5.851,58.871-17.389,86.147c-11.146,26.354-27.106,50.026-47.438,70.357c-20.332,20.332-44.004,36.293-70.358,47.439
		c-27.277,11.538-56.262,17.388-86.147,17.388c-29.888,0-58.871-5.85-86.148-17.388c-16.463-6.953-32.019-15.885-46.323-26.598
		l-9.613,11.511c39.549,29.801,88.751,47.475,142.086,47.475C381.189,486.332,487,380.521,487,249.999
		C487,119.476,381.189,13.666,250.667,13.666z"/>
	<path fill="#1D1D1B" d="M135.283,406.891l18.39,30.075L176,344.316l-87.507,37.727l32.753,13.016l-17.271,20.672l-9.617,11.512
		l-22.342,26.745l14.041,11.832l22.523-26.962l9.613-11.51L135.283,406.891z"/>
</g>
</svg>
