<svg version="1.1" xmlns="http://www.w3.org/2000/svg" xmlns:xlink="http://www.w3.org/1999/xlink" viewBox="0 0 634.471 316.48"><path fill="#FFF" d="M192.75 243.84v13.58c-9.78.58-20.01.85-30.14.64.96-.86 1.86-1.77 2.69-2.72 2.8-3.27 4.82-6.97 6.04-10.94 7.16.08 14.4-.13 21.41-.56zm-112.94 1.64c6.12 1.9 15.8 4.67 28.93 7.14V236.8c-7.96-1.75-14.31-3.51-18.21-4.9-.17-.06-.34-.13-.51-.2a8.015 8.015 0 0 1-2.76 3.33c-1.35.92-2.93 1.4-4.52 1.4-.98 0-1.95-.18-2.89-.54l-.91-.35c-.22-.08-.43-.18-.63-.28-6.62-3.24-12.98-5.11-18.56-5.47 5.15 7.62 10.48 12.72 20.06 15.69zm544.6-150.12c-1.96-2.83-5.65-4.8-12.25-5.8-21.35-3.25-42.88-6.94-64.43-8.43-14.41-.99-29.09-1.62-43.54-1.3-56.04 1.23-116.23 12.77-127.36 16.88-11.11 4.13-37.91 13.2-45.73 14.85-7.83 1.65-14 1.23-14 1.23s-6.2.42-14-1.23c-7.84-1.64-34.62-10.71-45.75-14.85C246.2 92.6 186.05 81.06 130 79.83c-36-.8-74.68 1.96-109.78 10.46-13.35 3.23-12.7 9.21-11.74 21.39.56 7.1.99 14.2 1.63 21.3 0 0 1.64 4.13 2.06 5.35.41 1.25 5.82 7.84 10.77 11.95 4.93 4.13 10.71 28.01 13.6 34.62 1.44 3.3 4.65 10.22 8.31 17.71 3.97-.88 8.11-1.34 12.44-1.34 1.59 0 3.21.09 4.84.22-.44-.86-.86-1.72-1.26-2.57-14.02-30.08-13.21-63.04-13.21-63.04.42-3.72 0-19.96 5.37-26.96 5.36-7.01 5.77-8.31 15.66-11.2 9.88-2.88 50.98-5.11 82.3-3.46 31.31 1.65 84.48 11.12 94.78 14.83 10.31 3.71 18.14 7.83 25.16 16.9 6.99 9.07 11.11 13.61 9.86 25.56-1.22 11.95-12.33 53.97-16.89 63.04-3.81 7.62-9.38 15.51-20.81 20.53h2.62c4.42 0 8.02 3.58 8.02 8v5.02c12.27-5.98 20.52-22.2 25.02-32.31 4.94-11.12 9.48-24.31 13.58-35.85 4.12-11.54 10.74-31.72 14-34.6 3.32-2.89 10.74-1.65 10.74-1.65s7.41-1.23 10.69 1.65c3.31 2.89 9.91 23.07 14.03 34.6 4.11 11.54 8.63 24.73 13.58 35.85 4.95 11.13 14.42 29.68 28.87 33.8 1.52.44 3.38.89 5.48 1.35v-16.45c-1.58-.75-3.05-1.56-4.4-2.41h-6.6c-4.42 0-8-3.58-8-8v-8.54c-.17-.33-.35-.66-.51-.99-4.52-9.07-15.66-51.09-16.88-63.04-1.25-11.95 2.87-16.49 9.89-25.56 6.99-9.06 14.83-13.19 25.15-16.9 10.28-3.71 63.46-13.19 94.77-14.83 31.33-1.65 72.43.58 82.31 3.46 9.89 2.89 10.31 4.19 15.66 11.2 5.36 7 4.94 23.24 5.36 26.96 0 0 .83 32.96-13.18 63.04-6.61 14.2-19.38 29.26-29.7 32.97-5.4 1.94-15.54 4.57-28.12 6.92a7.955 7.955 0 0 1 1.25 4.29v11.02c17.61-2.77 30.2-6.33 37.61-8.63 11.94-3.71 17.3-10.7 23.91-21.84 6.58-11.13 16.48-32.15 19.35-38.74 2.89-6.61 8.66-30.49 13.6-34.62 4.95-4.11 10.36-10.7 10.76-11.95.42-1.23 2.07-5.35 2.07-5.36.48-5.43.93-10.86 1.35-16.29.77-9.3 2.35-16.55-.96-21.33zM454.74 244.37c-13.11-.23-26.05-1.35-37-2.91v13.91c11.18 1.28 23.91 2.27 37 2.63v-13.63zm143.67 39.35l-.49-.15-.14.5c-.59 2.23-1.72 3.99-3.34 5.24-1.62 1.25-3.5 1.89-5.59 1.89-3.05 0-5.37-.98-7.08-3.01-1.71-2.02-2.58-4.87-2.58-8.48 0-3.62.89-6.56 2.65-8.75 1.75-2.19 3.99-3.25 6.85-3.25 4.34 0 7.17 1.86 8.64 5.69l.15.41.43-.1 4.65-1.13.51-.12-.14-.5c-.89-3.07-2.55-5.45-4.94-7.09-2.38-1.63-5.35-2.45-8.81-2.45-4.89 0-8.86 1.53-11.82 4.54-2.96 3.01-4.46 7.05-4.46 12.01 0 5.52 1.44 9.92 4.29 13.09 2.86 3.18 6.81 4.8 11.76 4.8 3.56 0 6.7-.98 9.34-2.93 2.65-1.95 4.43-4.71 5.29-8.19l.11-.47-.46-.13-4.82-1.42zm20.36-4.33c0 8.2-2.96 15.32-8.8 21.17-5.84 5.85-12.94 8.82-21.12 8.82-8.22 0-15.36-2.96-21.21-8.8-5.85-5.84-8.82-12.97-8.82-21.19 0-8.2 2.97-15.31 8.82-21.15 5.85-5.84 12.99-8.8 21.21-8.8 8.17 0 15.28 2.96 21.12 8.8 5.84 5.84 8.8 12.96 8.8 21.15zm-12.97 17.03c4.7-4.73 7.08-10.45 7.08-17.03s-2.38-12.29-7.08-16.99c-4.7-4.7-10.4-7.08-16.95-7.08-6.6 0-12.34 2.38-17.05 7.08-4.71 4.7-7.1 10.41-7.1 16.99 0 6.6 2.39 12.34 7.1 17.05 4.71 4.71 10.45 7.1 17.05 7.1 6.55 0 12.26-2.39 16.95-7.12zM57.29 209.28c-12.39 0-23.13 4.27-31.92 12.7-8.8 8.43-13.26 18.71-13.26 30.55 0 12.05 4.54 22.49 13.49 31.03 8.94 8.53 19.86 12.85 32.46 12.85 8.59 0 16.87-1.98 24.23-5.9l.46-.29V276.35l-.95.65c-7.93 4.46-15.63 6.73-22.7 6.73-9.73 0-17.98-3-24.44-8.9-6.44-5.9-9.73-13.35-9.73-22.17 0-8.65 3.18-16.05 9.48-21.99 6.31-5.95 14.17-8.96 23.39-8.96 7.21 0 15.42 2.14 24.03 6.36l.91.35V214.88l-.5-.22c-8.48-3.58-17.01-5.38-24.95-5.38zm108.86 83.83l.53.99h-13.61l-.42-.59-22.28-33.41h-1.62v34H116.76v-82h17.88c8.79 0 16.06 2.08 21.6 6.47 5.58 4.42 8.41 10.01 8.41 16.91 0 5.51-1.83 10.45-5.44 14.67-3.49 4.08-8.92 7.02-16.15 8.75l23.09 34.21zm-36.33-43.32c15.03 0 22.29-4.47 22.29-13.67 0-3.28-.91-6.01-2.72-8.08-1.83-2.09-4.28-3.53-7.34-4.29-3.04-.75-7.3-1.14-13.3-1.16v27.19c0 .01.7.01 1.07.01zm18.91-4.44c.18-.16.37-.31.53-.48-.17.16-.35.32-.53.48zm3.32-5.26c.06-.2.13-.39.18-.6-.05.21-.13.39-.18.6zm-.56 1.51c.09-.2.19-.39.27-.59-.08.2-.18.39-.27.59zm-.73 1.37c.12-.19.25-.37.35-.56-.11.19-.23.37-.35.56zm-.92 1.25c.15-.17.31-.34.44-.52-.14.18-.3.35-.44.52zm2.66-6.36c-.02.19-.06.35-.09.54.03-.18.07-.35.09-.54zm-22.07 12.42c.47 0 .92-.02 1.38-.03l-1.38.03zm17-3.92c.21-.15.42-.29.62-.44-.19.16-.41.3-.62.44zm-1.47.9c.24-.13.48-.25.71-.39-.23.13-.47.26-.71.39zm-1.66.77c.27-.11.54-.22.8-.34-.26.12-.53.23-.8.34zm-1.86.67c.31-.09.61-.19.9-.29-.29.1-.59.19-.9.29zm-2.03.54c.34-.08.67-.16.99-.24-.32.09-.65.17-.99.24zm-2.22.44c.37-.06.73-.12 1.09-.19-.35.06-.72.12-1.09.19zm-2.4.31zm-2.59.2c.44-.02.86-.05 1.28-.08-.42.03-.84.06-1.28.08zm67.71-38.09h-.16v82h44.99v-12h-33v-27h33v-12.01h-33v-19h33v-12H200.91zm121.22 97l-6.47-14h-25.59l27.86-61.85 31.32 68.85h16.19l-47.16-104.23-.6-1.43-.59 1.26-49.37 110-.41 1.41h.69l54.13-.01zm56.97-97h-.36v12h19v70h12.01v-70h19v-12H379.1zm129.22 0h-45.57v82h46v-12h-34v-27h34v-12.01h-34v-19h34v-12h-.43zm-168.58-147V44.16c0-2.9 1-5.33 2.64-7.3 1.64-1.97 3.84-2.96 6.2-2.96 3.97 0 6.15 2.42 6.15 7.26V65.1h8V44.88c0-3.08.59-5.66 2.19-7.75s3.5-3.13 5.8-3.13c4.04 0 6.01 2.04 6.01 6.14V65.1h8V38.11c0-3.02-1.22-5.62-3.34-7.82-2.13-2.19-4.73-3.29-7.67-3.29-2.4 0-4.54.61-6.35 1.84-1.81 1.23-3.71 3.18-5.66 5.87-1.11-2.69-2.47-4.64-4.06-5.87-1.6-1.22-3.8-1.84-6.61-1.84-2.15 0-4.23.54-5.9 1.61-1.66 1.08-3.4 2.78-5.4 5.11V28.1h-7v37h7zm86-29.54c-2-2.54-3.6-4.6-6.2-6.18s-5.43-2.37-8.32-2.37c-4.69 0-8.81 1.94-12.29 5.8-3.48 3.87-5.24 8.38-5.24 13.55 0 5.47 1.72 10.11 5.16 13.93 3.45 3.82 7.76 5.73 12.63 5.73 5.62 0 10.26-2.79 14.26-8.38v7.45h7v-37h-7v7.47zm-2.87 19.73c-2.42 2.44-5.32 3.65-8.7 3.65-3.41 0-6.31-1.23-8.71-3.67-2.4-2.45-3.59-5.42-3.59-8.91 0-3.23 1.23-6.03 3.68-8.42s5.33-3.58 8.62-3.58c3.38 0 6.28 1.2 8.7 3.6 2.42 2.4 3.64 5.29 3.64 8.67 0 3.34-1.21 6.23-3.64 8.66zm21.87-5.19h21v-7h-21v7zm47 5.71l-12.2 26.29h8.14l24.96-54h-8.04l-9.27 20.07-13.4-20.07h-8.84l18.65 27.71zm61-20.25c-2-2.54-3.59-4.6-6.19-6.18S541.14 27 538.24 27c-4.69 0-8.81 1.94-12.29 5.8-3.48 3.87-5.24 8.38-5.24 13.55 0 5.47 1.72 10.11 5.17 13.93 3.45 3.82 7.75 5.73 12.61 5.73 5.61 0 10.24-2.79 14.24-8.38v7.45h8v-37h-8l.01 7.48zm-2.84 19.73c-2.42 2.44-5.33 3.65-8.71 3.65-3.41 0-6.31-1.23-8.71-3.67s-3.59-5.42-3.59-8.91c0-3.23 1.23-6.03 3.68-8.42 2.45-2.39 5.32-3.58 8.61-3.58 3.38 0 6.28 1.2 8.71 3.6 2.42 2.4 3.64 5.29 3.64 8.67.01 3.34-1.21 6.23-3.63 8.66zm21.84-38.19h4.81c-.06 3-1.55 6.17-4.48 9.1l3.58 3.32c1.82-1.67 3.33-3.65 4.4-5.89s1.67-4.4 1.67-6.43V7.1h-10l.02 10zm30.89 9.91c-3.49 0-6.4 1.02-8.71 3.07-2.31 2.04-3.48 4.6-3.48 7.68 0 2.48.81 4.56 2.44 6.25 1.63 1.69 4.56 3.35 8.8 5 4.24 1.65 6.36 3.5 6.36 5.56 0 1.16-.6 2.19-1.81 3.07-1.21.88-2.62 1.32-4.23 1.32-2.33 0-4.57-1.04-6.72-3.14l-6.14 2.96c3.34 4.84 7.63 7.26 12.85 7.26 3.43 0 6.42-1.16 8.96-3.47 2.54-2.31 3.81-5.02 3.81-8.12 0-2.66-.88-4.92-2.65-6.8-1.76-1.88-4.65-3.6-8.67-5.18-4.02-1.58-6.02-3.2-6.02-4.87 0-2.33 1.58-3.49 4.75-3.49 1.34 0 2.51.25 3.49.74.98.49 2.15 1.22 3.49 2.17l5.19-4.57c-4.31-3.64-8.22-5.44-11.71-5.44z"/></svg>