<?xml version="1.0" encoding="utf-8"?>
<!-- Generator: Adobe Illustrator 16.0.0, SVG Export Plug-In . SVG Version: 6.00 Build 0)  -->
<!DOCTYPE svg PUBLIC "-//W3C//DTD SVG 1.1//EN" "http://www.w3.org/Graphics/SVG/1.1/DTD/svg11.dtd">
<svg version="1.1" id="レイヤー_1" xmlns="http://www.w3.org/2000/svg" xmlns:xlink="http://www.w3.org/1999/xlink" x="0px"
	 y="0px" width="269.52px" height="269.52px" viewBox="0 0 269.52 269.52" enable-background="new 0 0 269.52 269.52"
	 xml:space="preserve">
<g>
	<rect x="0" y="0" fill="#C25ADB" width="269.52" height="269.52"/>
	<polygon opacity="0.1" fill="#040000" enable-background="new    " points="269.52,113.15 269.52,273.52 133.14,273.52 
		50.35,190.72 42.64,183.01 42.64,134.12 50.86,125.9 53.77,122.99 62.96,113.8 83.71,93.05 93.33,83.43 95.38,81.38 103.25,73.51 
		113.82,62.94 219.31,62.94 	"/>
	<g>
		<g>
			<polygon fill="#C3C2C6" points="164.85,209.12 104.67,209.12 106.79,163.96 162.73,163.96 			"/>
			<polygon fill="#B3B2B6" points="164.07,194.38 105.45,194.38 106.79,165.84 162.73,165.84 			"/>
			<path fill="#C9C8CD" d="M94.69,205.36h80.143c5.06,0,9.197,4.143,9.197,9.2l0,0H85.49l0,0C85.49,209.5,89.63,205.36,94.69,205.36
				z"/>
		</g>
		<path fill="#C9C8CD" d="M226.88,130v56.63c0,2.27-1.83,4.1-4.07,4.1H46.71c-2.24,0-4.07-1.83-4.07-4.1V130
			c0-2.26,1.83-4.103,4.07-4.103h176.1C225.04,125.9,226.88,127.73,226.88,130z"/>
		<path fill="#2D2D33" d="M226.88,68.281V171.48H42.64V68.281h0.13c0.62-3.053,3.34-5.343,6.55-5.343h170.87
			c3.21,0,5.933,2.29,6.55,5.343H226.88z"/>
		<rect x="53.76" y="73.51" fill="#F4F4F5" width="161.99" height="87.4"/>
		<g>
			<rect x="73.73" y="81.38" fill="#B3B2B6" width="25.09" height="2.04"/>
			<path fill="#B3B2B6" d="M68.84,80.25L68.84,80.25c1.188,1.188,1.188,3.12,0,4.31l0,0c-1.19,1.19-3.12,1.19-4.313,0l0,0
				c-1.188-1.188-1.188-3.12,0-4.31l0,0C65.72,79.06,67.65,79.06,68.84,80.25z"/>
			
				<rect x="196.317" y="80.952" transform="matrix(0.7066 0.7076 -0.7076 0.7066 116.3238 -115.7613)" fill="#B3B2B6" width="2.879" height="2.88"/>
			
				<rect x="203.274" y="80.968" transform="matrix(0.7069 0.7073 -0.7073 0.7069 118.2794 -120.6391)" fill="#B3B2B6" width="2.88" height="2.88"/>
			
				<rect x="190.117" y="80.964" transform="matrix(0.7069 0.7073 -0.7073 0.7069 114.4202 -111.3339)" fill="#B3B2B6" width="2.879" height="2.88"/>
		</g>
	</g>
</g>
<g enable-background="new    ">
	<path fill="#2D2D33" d="M81.889,114.939v3.42l-7.189,3.633l7.189,3.631v3.393l-10.828-5.605v-2.862L81.889,114.939z"/>
	<path fill="#2D2D33" d="M91.301,125.048h-3.796c0-1.457,0.757-2.808,2.271-4.053c1.033-0.848,1.641-1.457,1.819-1.831
		s0.269-0.726,0.269-1.05c0-0.407-0.13-0.749-0.389-1.025c-0.26-0.276-0.588-0.415-0.985-0.415c-1.077,0-1.738,0.826-1.981,2.479
		l-3.833-0.829c0.513-1.774,1.326-3.058,2.441-3.847c1.114-0.789,2.376-1.184,3.783-1.184c1.668,0,3.047,0.421,4.139,1.263
		c1.09,0.843,1.636,2.028,1.636,3.56c0,0.788-0.208,1.578-0.623,2.367s-1.294,1.574-2.637,2.355
		c-0.505,0.293-0.962,0.604-1.374,0.935C91.629,124.102,91.382,124.528,91.301,125.048z M91.644,126.098l-0.708,4.248H86.37
		l0.708-4.248H91.644z"/>
	<path fill="#2D2D33" d="M107.304,125.05l-1.562,9.296h-7.355l4.23-25.327h8.367c1.968,0,3.398,0.083,4.295,0.251
		c0.896,0.166,1.824,0.568,2.783,1.205c0.958,0.639,1.719,1.491,2.282,2.562c0.563,1.069,0.844,2.218,0.844,3.441
		c0,2.375-0.771,4.397-2.316,6.067s-3.759,2.505-6.639,2.505H107.304z M108.215,119.632h1.747c2.663,0,3.994-0.899,3.994-2.699
		c0-1.614-1.114-2.422-3.34-2.422h-1.541L108.215,119.632z"/>
	<path fill="#2D2D33" d="M137.542,124.159h-6.571l-1.702,10.187h-7.354l4.229-25.327h7.354l-1.556,9.314h6.572l1.556-9.314h7.355
		l-4.23,25.327h-7.354L137.542,124.159z"/>
	<path fill="#2D2D33" d="M157.271,125.05l-1.562,9.296h-7.354l4.23-25.327h8.367c1.967,0,3.397,0.083,4.296,0.251
		c0.896,0.166,1.823,0.568,2.782,1.205c0.958,0.639,1.721,1.491,2.282,2.562c0.563,1.069,0.844,2.218,0.844,3.441
		c0,2.375-0.771,4.397-2.315,6.067c-1.546,1.67-3.758,2.505-6.639,2.505H157.271z M158.181,119.632h1.746
		c2.663,0,3.994-0.899,3.994-2.699c0-1.614-1.113-2.422-3.34-2.422h-1.541L158.181,119.632z"/>
	<path fill="#2D2D33" d="M180.392,125.048h-3.797c0-1.457,0.757-2.808,2.271-4.053c1.032-0.848,1.64-1.457,1.818-1.831
		c0.178-0.374,0.269-0.726,0.269-1.05c0-0.407-0.129-0.749-0.39-1.025c-0.26-0.276-0.588-0.415-0.984-0.415
		c-1.078,0-1.739,0.826-1.982,2.479l-3.833-0.829c0.513-1.774,1.326-3.058,2.441-3.847c1.114-0.789,2.376-1.184,3.783-1.184
		c1.668,0,3.049,0.421,4.139,1.263c1.091,0.843,1.637,2.028,1.637,3.56c0,0.788-0.208,1.578-0.623,2.367s-1.294,1.574-2.637,2.355
		c-0.505,0.293-0.963,0.604-1.373,0.935C180.719,124.102,180.472,124.528,180.392,125.048z M180.734,126.098l-0.707,4.248h-4.565
		l0.707-4.248H180.734z"/>
	<path fill="#2D2D33" d="M187.63,129.029v-3.419l7.188-3.632l-7.188-3.632v-3.405l10.828,5.594v2.889L187.63,129.029z"/>
</g>
</svg>
