<?xml version="1.0" encoding="utf-8"?>
<!-- Generator: Adobe Illustrator 16.0.0, SVG Export Plug-In . SVG Version: 6.00 Build 0)  -->
<!DOCTYPE svg PUBLIC "-//W3C//DTD SVG 1.1//EN" "http://www.w3.org/Graphics/SVG/1.1/DTD/svg11.dtd">
<svg version="1.1" id="レイヤー_1" xmlns="http://www.w3.org/2000/svg" xmlns:xlink="http://www.w3.org/1999/xlink" x="0px"
	 y="0px" width="269.52px" height="269.52px" viewBox="0 0 269.52 269.52" enable-background="new 0 0 269.52 269.52"
	 xml:space="preserve">
<g>
	<rect x="0" y="0" fill="#0073AA" width="269.52" height="269.52"/>
	<polygon opacity="0.1" fill="#040000" enable-background="new    " points="269.52,113.15 269.52,273.52 133.14,273.52 
		50.35,190.72 42.64,183.01 42.64,134.12 50.86,125.9 53.77,122.99 62.96,113.8 83.71,93.05 93.33,83.43 95.38,81.38 103.25,73.51 
		113.82,62.94 219.31,62.94 	"/>
	<g>
		<g>
			<polygon fill="#C3C2C6" points="164.85,209.12 104.67,209.12 106.79,163.96 162.73,163.96 			"/>
			<polygon fill="#B3B2B6" points="164.07,194.38 105.45,194.38 106.79,165.84 162.73,165.84 			"/>
			<path fill="#C9C8CD" d="M94.69,205.36h80.142c5.06,0,9.198,4.142,9.198,9.2l0,0H85.49l0,0C85.49,209.5,89.63,205.36,94.69,205.36
				z"/>
		</g>
		<path fill="#C9C8CD" d="M226.88,130v56.63c0,2.27-1.83,4.1-4.07,4.1H46.71c-2.24,0-4.07-1.83-4.07-4.1V130
			c0-2.26,1.83-4.102,4.07-4.102h176.1C225.04,125.9,226.88,127.73,226.88,130z"/>
		<path fill="#2D2D33" d="M226.88,68.281V171.48H42.64V68.281h0.13c0.62-3.052,3.34-5.342,6.55-5.342h170.87
			c3.21,0,5.932,2.29,6.55,5.342H226.88z"/>
		<rect x="53.76" y="73.51" fill="#F4F4F5" width="161.99" height="87.4"/>
		<g>
			<rect x="73.73" y="81.38" fill="#B3B2B6" width="25.09" height="2.04"/>
			<path fill="#B3B2B6" d="M68.84,80.25L68.84,80.25c1.188,1.188,1.188,3.12,0,4.31l0,0c-1.19,1.19-3.12,1.19-4.312,0l0,0
				c-1.188-1.188-1.188-3.12,0-4.31l0,0C65.72,79.06,67.65,79.06,68.84,80.25z"/>
			
				<rect x="196.318" y="80.949" transform="matrix(-0.7066 -0.7076 0.7076 -0.7066 279.193 280.541)" fill="#B3B2B6" width="2.879" height="2.88"/>
			
				<rect x="203.265" y="80.971" transform="matrix(-0.7069 -0.7073 0.7073 -0.7069 291.1313 285.4523)" fill="#B3B2B6" width="2.88" height="2.88"/>
			
				<rect x="190.109" y="80.965" transform="matrix(-0.7069 -0.7073 0.7073 -0.7069 268.6771 276.1385)" fill="#B3B2B6" width="2.879" height="2.88"/>
		</g>
	</g>
</g>
<path fill="#323232" d="M134.975,89.473c-16.293-0.103-29.718,13.246-29.629,29.437c0,16.161,13.194,29.404,29.289,29.404
	c16.255,0.013,29.53-13.193,29.54-29.385C164.178,102.799,150.986,89.579,134.975,89.473L134.975,89.473z M123.037,142.56
	c-1.847-0.771-3.473-1.91-5.011-3.175c-5.872-4.887-9.127-11.181-9.683-18.809c-0.288-4.012,0.36-7.898,1.894-11.63
	c0.079-0.194,0.091-0.528,0.363-0.502c0.208,0.013,0.222,0.321,0.288,0.502c3.975,10.894,7.952,21.777,11.927,32.674
	c0.099,0.284,0.181,0.597,0.271,0.895v0.039L123.037,142.56z M142.864,144.072c-4.931,1.563-9.892,1.677-14.898,0.386
	c-0.671-0.156-0.608-0.479-0.44-0.968c1.808-5.216,3.603-10.417,5.397-15.632c0.644-1.897,1.288-3.784,1.95-5.668
	c0.076-0.231,0.103-0.485,0.414-0.75c0.271,0.76,0.541,1.447,0.799,2.142c2.391,6.555,4.775,13.104,7.179,19.658
	C143.446,143.721,143.357,143.916,142.864,144.072L142.864,144.072z M147.99,134.582c-0.285-0.18-0.301-0.439-0.371-0.637
	c-2.967-8.838-5.954-17.675-8.921-26.52c-0.296-0.888-0.296-0.888,0.659-0.981c0.671-0.049,1.354-0.115,2.022-0.218
	c0.698-0.103,1.058-0.568,0.998-1.19c-0.056-0.592-0.473-0.955-1.153-0.928c-1.651,0.066-3.306,0.195-4.958,0.257
	c-2.895,0.1-5.773-0.083-8.666-0.251c-0.142-0.01-0.284-0.026-0.425-0.01c-0.628,0.023-1.019,0.371-1.084,0.979
	c-0.05,0.555,0.301,1.034,0.918,1.124c0.748,0.115,1.514,0.194,2.274,0.244c0.371,0.04,0.608,0.142,0.738,0.516
	c1.265,3.487,2.541,6.987,3.819,10.47c0.1,0.297,0.054,0.569-0.043,0.84c-1.793,5.344-3.575,10.688-5.357,16.036
	c-0.049,0.168-0.073,0.371-0.268,0.486c-0.235-0.125-0.245-0.371-0.311-0.578c-3.008-8.933-6.011-17.88-9.01-26.827
	c-0.297-0.876-0.297-0.876,0.615-0.952c0.634-0.052,1.285-0.106,1.917-0.194c0.783-0.106,1.209-0.566,1.159-1.177
	c-0.065-0.659-0.518-0.995-1.344-0.966c-2.122,0.076-4.23,0.307-6.362,0.272c-0.489,0-0.999,0-1.484-0.015
	c-0.182,0-0.413,0.081-0.501-0.142c-0.057-0.158,0.099-0.297,0.194-0.439c1.083-1.563,2.307-3.011,3.718-4.286
	c4.207-3.861,9.138-6.224,14.82-6.858c7.694-0.862,14.536,1.229,20.475,6.249c0.115,0.104,0.284,0.169,0.284,0.375
	c-0.076,0.129-0.219,0.105-0.337,0.129c-2.853,0.376-4.633,2.842-4.079,5.694c0.245,1.342,0.88,2.518,1.577,3.678
	c0.61,1.008,1.256,1.99,1.756,3.047c1.437,2.958,1.742,6.028,0.839,9.165c-1.266,4.436-2.621,8.831-3.934,13.247
	C148.132,134.325,148.053,134.427,147.99,134.582L147.99,134.582z M148.207,141.52c-0.037-0.331,0.131-0.618,0.219-0.889
	c2.776-7.991,5.554-15.953,8.315-23.932c1.097-3.176,1.653-6.431,1.28-9.799c0-0.102-0.026-0.208,0.141-0.35
	c3.375,6.676,3.977,13.557,1.708,20.656C157.966,133.059,151.757,140.65,148.207,141.52L148.207,141.52z"/>
</svg>
